<?xml version="1.0" standalone="no"?>
<!DOCTYPE svg PUBLIC "-//W3C//DTD SVG 20010904//EN"
 "http://www.w3.org/TR/2001/REC-SVG-20010904/DTD/svg10.dtd">
<svg version="1.0" xmlns="http://www.w3.org/2000/svg"
 width="144.000000pt" height="144.000000pt" viewBox="0 0 144.000000 144.000000"
 preserveAspectRatio="xMidYMid meet">
<metadata>
Created by potrace 1.14, written by Peter Selinger 2001-2017
</metadata>
<g transform="translate(0.000000,144.000000) scale(0.100000,-0.100000)"
fill="#000000" stroke="none">
<path d="M797 1428 c-133 -17 -247 -76 -353 -182 -122 -123 -187 -287 -179
-456 4 -97 5 -103 34 -184 57 -163 192 -303 353 -367 29 -11 68 -22 88 -25 47
-6 59 -24 53 -82 -10 -93 -9 -117 7 -117 12 0 14 14 12 77 -4 86 2 119 23 112
18 -7 23 -32 14 -67 -6 -21 -4 -30 7 -34 22 -8 28 3 25 51 -1 32 2 45 14 50
14 5 54 -12 56 -24 0 -3 2 -13 4 -23 2 -10 -1 -32 -6 -49 -10 -35 3 -60 27
-51 16 6 18 40 4 77 -13 35 10 58 88 86 34 12 64 26 67 30 2 4 -24 12 -60 18
-191 32 -343 157 -420 347 -25 62 -29 83 -29 180 -1 87 4 125 21 180 24 77 80
171 134 224 78 77 226 146 328 153 27 2 53 6 56 10 7 6 -92 43 -155 58 -63 14
-145 17 -213 8z"/>
</g>
</svg>
