<svg width="48" height="51" viewBox="0 0 48 51" fill="none" xmlns="http://www.w3.org/2000/svg">
<g clip-path="url(#clip0_373_107)">
<path d="M47.2302 23.1975H4.85706V50.2279H47.2302V23.1975Z" fill="#9C9FC1" stroke="#644F9C" stroke-width="2.79" stroke-linecap="round" stroke-linejoin="round"/>
<path d="M26.0409 49.9168H4.85706L15.4517 42.0455L23.6982 35.9183C25.0883 34.8851 26.9934 34.8851 28.3891 35.9183L36.6355 42.0455L47.2302 49.9168H26.0409Z" fill="#9C9FC1" stroke="#644F9C" stroke-width="2.79" stroke-linecap="round" stroke-linejoin="round"/>
<path d="M47.2301 22.8919L36.5635 14.9705L28.2561 8.799C26.8549 7.75466 24.9387 7.75466 23.5375 8.799L15.2301 14.9705L4.56348 22.8919V23.3585L15.2301 31.2799L25.1547 38.6513C25.5977 38.979 26.1959 38.979 26.6389 38.6513L36.5635 31.2799L47.2301 23.3585V22.8919Z" fill="#8586A7" stroke="#644F9C" stroke-width="2.79" stroke-linecap="round" stroke-linejoin="round"/>
<path d="M31.4849 25.7804V28.9745L27.442 27.3802C26.9325 27.3469 26.1405 27.3636 25.2323 27.6413C24.0914 27.9968 23.3105 28.6023 22.9007 28.9745C22.3579 28.5412 21.0841 27.6469 19.2122 27.408C16.9027 27.1136 15.1582 28.008 14.5822 28.3357C14.3441 27.7858 13.757 26.647 12.4998 25.7804C10.495 24.3972 8.32399 24.7639 7.86985 24.8527C7.5874 24.2473 6.67913 22.5141 4.62998 21.3698C2.5919 20.231 0.66459 20.3643 0 20.4421C0.548287 19.5867 2.04361 17.5147 4.86258 16.2648C8.00831 14.8649 10.8494 15.3593 11.8075 15.5704C12.3503 16.8869 13.2032 18.4701 14.5877 19.9811C19.0793 24.8972 25.5202 25.0861 27.0876 25.0916V23.9306L26.855 23.0029L27.7799 23.6973L28.4721 23.2307L28.7047 22.0697L29.8622 23.2307C30.837 22.2141 32.6535 20.0477 33.5673 16.7314C34.6916 12.643 33.7722 9.23778 33.3347 7.91015C34.0381 6.6825 35.7771 4.03279 39.1222 2.10522C42.567 0.110995 45.8179 -0.022324 47.2302 -0.000104165C46.6542 0.494286 45.3139 1.78859 44.6826 3.94947C43.9349 6.49363 44.6549 8.61562 44.9152 9.28777C44.4444 9.5433 42.6722 10.5765 41.9079 12.7707C41.415 14.1817 41.559 15.4149 41.6753 16.0204C41.188 16.037 39.82 16.1537 38.668 17.1814C37.3167 18.3868 36.7906 20.3643 37.278 22.2919C36.7241 22.2752 35.2842 22.303 33.8055 23.2196C32.4043 24.0862 31.7397 25.2694 31.4905 25.7749L31.4849 25.7804Z" fill="#231F20"/>
</g>
<defs>
<clipPath id="clip0_373_107">
<rect width="48" height="51" fill="white"/>
</clipPath>
</defs>
</svg>
