<svg width="46" height="47" viewBox="0 0 46 47" fill="none" xmlns="http://www.w3.org/2000/svg">
<circle cx="23" cy="24" r="21.605" fill="#8C9ED0" stroke="#6A4D9F" stroke-width="2.79"/>
<path d="M22.5566 3.38844C17.4542 3.37736 12.4518 14.7567 12.4796 24.508C12.5074 34.1818 17.4987 45.4725 22.5566 45.4614C27.6867 45.4504 32.7446 33.8385 32.5669 23.849C32.4059 14.4743 27.5867 3.39397 22.5566 3.38844Z" fill="#8C9ED0" stroke="#6A4D9F" stroke-width="2.79" stroke-linecap="round" stroke-linejoin="round"/>
<path d="M22.5564 3.38843V45.4614" stroke="#6A4D9F" stroke-width="2.79" stroke-linecap="round" stroke-linejoin="round"/>
<path d="M6.42773 10.8638C8.86508 12.3256 14.7669 15.4321 22.8951 15.3989C30.6791 15.3657 36.3644 12.4696 38.8239 11.0299" stroke="#6A4D9F" stroke-width="2.79" stroke-linecap="round" stroke-linejoin="round"/>
<path d="M6.52783 38.0967C8.72089 36.6736 14.4728 33.3456 22.5566 33.3179C30.6681 33.2902 36.4589 36.6016 38.6575 38.0136" stroke="#6A4D9F" stroke-width="2.79" stroke-linecap="round" stroke-linejoin="round"/>
<path d="M28.5176 16.7982C28.4787 17.3852 28.3899 18.0053 27.8957 18.3874C27.6737 18.5591 27.3961 18.6477 27.1296 18.7307C26.8131 18.8304 26.4911 18.9246 26.169 19.0242C25.8581 19.1128 25.5528 19.2014 25.2363 19.2789C25.1197 19.3066 25.0087 19.3343 24.8921 19.3509C24.942 19.4949 24.9698 19.6499 24.9754 19.7995C25.3029 19.8438 25.6249 19.9157 25.9414 19.9877C26.3078 20.0708 26.6743 20.1926 26.9796 20.4196C27.2795 20.6411 27.4793 20.9623 27.5293 21.3333C27.5904 21.7486 27.4793 22.1639 27.3627 22.5571C27.1184 23.432 26.8631 24.3013 26.6077 25.1707C26.3523 26.0512 26.0858 26.9316 25.8082 27.8065C25.6749 28.2273 25.5361 28.6482 25.3973 29.0635C25.3196 29.285 25.2474 29.5065 25.1697 29.7224C25.0975 29.9273 25.0475 30.1377 24.8976 30.2983C24.8088 30.3925 24.6589 30.326 24.6478 30.2042C24.6256 29.955 24.7477 29.7224 24.8254 29.4954C24.9032 29.2739 24.9754 29.0524 25.0531 28.8365C25.203 28.3824 25.3529 27.9339 25.4973 27.4798C26.0136 25.8629 26.4744 24.2349 26.8631 22.5792C26.9519 22.2082 27.074 21.804 27.0185 21.4164C26.9741 21.1118 26.7742 20.8792 26.5133 20.7297C26.0358 20.4529 25.4861 20.3477 24.9587 20.1926C24.942 20.2978 24.9143 20.3975 24.8754 20.5027C24.6644 21.1007 24.4923 21.6213 24.3091 22.0532C23.9149 22.9668 23.4541 23.504 22.427 23.5372C20.9113 23.587 20.3227 22.5903 19.5843 20.6744C19.551 20.6854 19.5177 20.691 19.4844 20.7076C19.3289 20.7574 19.1679 20.8017 19.018 20.8516C18.5072 21.0232 18.002 21.1783 17.4912 21.3444C17.4301 22.0698 17.741 22.7786 18.0686 23.4098C18.6904 24.617 19.3733 25.7964 20.1062 26.9427C20.4726 27.5241 20.8557 28.0944 21.2499 28.6537C21.4498 28.9361 21.6497 29.2241 21.8551 29.5065C22.0494 29.7723 22.2882 30.0325 22.4325 30.3315C22.5158 30.5087 22.327 30.6859 22.166 30.553C21.8662 30.2983 21.6497 29.9329 21.422 29.6228C21.1833 29.2961 20.9446 28.9638 20.7169 28.6316C19.9008 27.4632 19.1402 26.2505 18.4295 25.0157C18.0797 24.4066 17.7244 23.7919 17.4301 23.1496C17.1303 22.5017 16.9304 21.8206 17.0415 21.1063C17.0581 21.0232 17.1303 20.9512 17.208 20.9291C17.7688 20.7574 18.3296 20.5858 18.8903 20.4196C19.0569 20.3698 19.229 20.3144 19.4011 20.2591C19.4289 20.2535 19.4566 20.2424 19.4844 20.2314C19.4677 20.0819 19.4733 19.9324 19.4955 19.7828C19.4788 19.7773 19.4622 19.7718 19.4455 19.7607C19.1513 19.6389 18.8625 19.4949 18.5794 19.3454C18.0464 19.0685 17.5245 18.7584 17.0248 18.4262C16.7805 18.2656 16.5251 18.1106 16.2975 17.9278C16.0588 17.734 15.9699 17.4738 16.0088 17.1747C16.0865 16.5878 16.2364 15.9953 16.3974 15.4249C16.564 14.8546 16.7583 14.2842 17.0415 13.7582C17.1192 13.6142 17.3468 13.7028 17.308 13.8579C17.1303 14.5279 16.9304 15.1813 16.8027 15.8624C16.7361 16.2057 16.6695 16.5601 16.6417 16.9145C16.6362 17.0363 16.5973 17.208 16.6306 17.3243C16.6639 17.4295 16.7972 17.5014 16.886 17.5624C17.4523 17.9555 18.0353 18.3265 18.6294 18.692C18.9125 18.8692 19.1957 19.0464 19.4844 19.218C19.5232 19.2402 19.5566 19.2623 19.5899 19.2845C19.6065 19.29 19.6232 19.3011 19.6343 19.3122C19.8231 18.8913 19.9619 18.2102 20.2617 17.8724C20.2617 17.8724 20.2561 17.8669 20.2506 17.8614C19.7675 17.3076 19.6343 17.064 19.1957 16.466C18.8348 15.9731 18.4017 15.3972 18.4961 14.7438C18.5405 14.4337 18.7126 14.1236 18.8403 13.8357C18.9847 13.509 19.1235 13.1823 19.2734 12.8556C19.5621 12.1966 19.873 11.5377 20.1673 10.8787C20.456 10.2309 20.7058 9.56085 21.0778 8.95174C21.1389 8.85206 21.311 8.90744 21.2777 9.02926C21.0667 9.76019 20.7225 10.4413 20.4282 11.139C20.1673 11.7647 19.9063 12.3904 19.6398 13.0106C19.501 13.3318 19.3678 13.6474 19.229 13.9631C19.0957 14.2676 18.9958 14.55 18.9958 14.8933C18.9958 15.4858 19.4844 16.0064 19.8008 16.466C20.134 16.9311 20.3338 17.1415 20.5948 17.3796C20.6225 17.4018 20.6559 17.4295 20.6836 17.4571C20.8446 17.3021 21.1555 16.7318 21.5275 16.3995C21.6885 16.2555 21.8607 16.1614 22.0383 16.1614C22.4048 16.1614 22.6157 16.3109 22.8989 16.6044C23.0932 16.8037 23.3264 17.0751 23.6706 17.4184C23.6817 17.4239 23.6873 17.435 23.6928 17.435C24.1592 16.8702 24.3702 16.7539 24.8421 16.1946C25.2363 15.7239 25.5472 15.1868 25.4973 14.5556C25.4417 13.8689 25.0586 13.2321 24.7422 12.6341C24.3979 11.9807 24.0426 11.3383 23.6762 10.7015C23.3097 10.0758 22.9211 9.45564 22.5935 8.8133C22.5214 8.66933 22.7046 8.55304 22.8045 8.6804C23.3319 9.37811 23.7595 10.1533 24.1981 10.912C24.5812 11.5765 24.9698 12.2409 25.3362 12.9165C25.6749 13.5422 26.0025 14.2289 25.9359 14.9598C25.8748 15.6021 25.4917 16.1448 25.0808 16.6155C24.6533 17.1028 24.409 17.3741 23.9427 17.8171C24.3147 18.2158 24.4313 18.5037 24.6589 18.836C24.7921 18.775 24.9309 18.7197 25.0697 18.6698C25.3862 18.5591 25.7027 18.4539 26.0191 18.3487C26.3134 18.249 26.6077 18.1549 26.9019 18.0552C27.1073 17.9887 27.3461 17.9334 27.5071 17.7839C27.6681 17.6454 27.7514 17.4128 27.818 17.219C27.9068 16.9532 27.9735 16.6875 28.0068 16.4106C28.0734 15.8458 28.0123 15.2643 27.9124 14.7051C27.8125 14.1458 27.6625 13.5921 27.6126 13.0217C27.6015 12.9054 27.7902 12.839 27.8402 12.9497C28.14 13.581 28.3066 14.2787 28.4176 14.9653C28.5176 15.5689 28.5731 16.1836 28.5342 16.7927L28.5176 16.7982Z" fill="#231F20"/>
<path d="M23.3375 23.3323C23.3541 22.69 22.8489 22.1584 22.2104 22.1418C21.5664 22.1251 21.0334 22.629 21.0167 23.2658C21.0056 23.7254 21.261 24.1241 21.6441 24.3235C21.6385 24.3456 21.6274 24.3733 21.6274 24.3955C21.6052 24.5394 21.6274 24.6834 21.683 24.8163C21.7329 24.9381 21.8218 25.0766 21.955 25.1153C22.005 25.1319 22.0716 25.0821 22.0494 25.0267C22.0161 24.9271 21.9494 24.8495 21.9217 24.7443C21.905 24.6945 21.8995 24.6447 21.8995 24.5948C21.8995 24.5394 21.8995 24.5007 21.9106 24.4564C21.9106 24.4453 21.9161 24.4342 21.9217 24.4287C21.9939 24.4453 22.0716 24.4564 22.1493 24.4564C22.3381 24.4564 22.5102 24.4232 22.6712 24.3456C22.6712 24.4232 22.6712 24.5062 22.6601 24.5727C22.6435 24.6502 22.6212 24.7277 22.5879 24.7997C22.5713 24.8385 22.5491 24.8717 22.5269 24.9049C22.4991 24.9437 22.4658 24.9824 22.4602 25.0323C22.4602 25.071 22.4935 25.1153 22.538 25.1153C22.6324 25.1098 22.6934 25.0101 22.7434 24.9381C22.7934 24.8661 22.8378 24.7831 22.86 24.6945C22.8877 24.6114 22.8988 24.5228 22.9044 24.4342C22.9044 24.3733 22.9044 24.2792 22.8766 24.2127C23.1487 24.0079 23.3264 23.6867 23.3375 23.3212V23.3323Z" fill="#231F20"/>
<path d="M22.2603 1V1.79184" stroke="#231F20" stroke-linecap="round" stroke-linejoin="round"/>
<path d="M22.2603 3.23157V16.92" stroke="#231F20" stroke-linecap="round" stroke-linejoin="round"/>
<path d="M22.2603 17.6398V18.4316" stroke="#231F20" stroke-linecap="round" stroke-linejoin="round"/>
</svg>
