<svg width="39" height="370" viewBox="0 0 39 370" fill="none" xmlns="http://www.w3.org/2000/svg">
<path d="M38.9094 326.995C38.7886 328.82 38.5125 330.748 36.9766 331.935C36.2862 332.469 35.4233 332.744 34.595 333.002C33.6113 333.312 32.6103 333.605 31.6093 333.915C30.6429 334.19 29.6937 334.465 28.71 334.706C28.3476 334.792 28.0024 334.878 27.64 334.93C27.7953 335.378 27.8816 335.86 27.8989 336.324C28.9171 336.462 29.9181 336.686 30.9018 336.91C32.0408 337.168 33.1798 337.546 34.129 338.252C35.0609 338.941 35.6822 339.939 35.8375 341.092C36.0274 342.383 35.6822 343.674 35.3198 344.896C34.5604 347.616 33.7666 350.318 32.9727 353.02C32.1789 355.757 31.3505 358.494 30.4876 361.213C30.0734 362.521 29.6419 363.83 29.2105 365.121C28.9689 365.809 28.7445 366.497 28.5029 367.169C28.2786 367.806 28.1232 368.46 27.6573 368.959C27.3811 369.251 26.9152 369.045 26.8807 368.666C26.8116 367.892 27.1913 367.169 27.4329 366.463C27.6745 365.775 27.8989 365.086 28.1405 364.415C28.6065 363.003 29.0724 361.609 29.5211 360.198C31.1261 355.172 32.5585 350.111 33.7666 344.965C34.0427 343.812 34.4224 342.555 34.2498 341.35C34.1117 340.404 33.4905 339.681 32.6793 339.216C31.1951 338.355 29.4866 338.028 27.8471 337.546C27.7953 337.873 27.709 338.183 27.5882 338.51C26.9324 340.369 26.3974 341.987 25.8279 343.33C24.6026 346.17 23.1702 347.839 19.9775 347.943C15.2661 348.098 13.4367 344.999 11.1414 339.044C11.0379 339.078 10.9343 339.095 10.8308 339.147C10.3476 339.302 9.8471 339.44 9.38113 339.595C7.7934 340.128 6.22293 340.61 4.6352 341.127C4.44537 343.381 5.41181 345.585 6.43003 347.547C8.36292 351.299 10.4856 354.965 12.7637 358.528C13.9027 360.335 15.0935 362.108 16.3188 363.847C16.9401 364.725 17.5614 365.62 18.1999 366.497C18.804 367.324 19.5461 368.133 19.9948 369.062C20.2536 369.613 19.6669 370.164 19.1664 369.751C18.2344 368.959 17.5614 367.823 16.8538 366.859C16.1117 365.843 15.3696 364.811 14.6621 363.778C12.1251 360.146 9.76081 356.377 7.5518 352.538C6.46455 350.645 5.36004 348.734 4.44537 346.738C3.51344 344.724 2.89215 342.607 3.23731 340.386C3.28909 340.128 3.51344 339.904 3.75505 339.836C5.4981 339.302 7.24115 338.768 8.9842 338.252C9.50194 338.097 10.0369 337.925 10.5719 337.753C10.6582 337.736 10.7445 337.701 10.8308 337.667C10.779 337.202 10.7963 336.737 10.8653 336.273C10.8135 336.255 10.7618 336.238 10.71 336.204C9.79532 335.825 8.89791 335.378 8.01775 334.913C6.36099 334.052 4.73875 333.088 3.18554 332.056C2.42619 331.556 1.63232 331.075 0.924749 330.507C0.182659 329.904 -0.0934689 329.095 0.0273366 328.166C0.268948 326.341 0.734913 324.499 1.23539 322.727C1.75313 320.954 2.35716 319.181 3.23731 317.546C3.47892 317.098 4.1865 317.374 4.06569 317.855C3.51344 319.938 2.89215 321.969 2.49522 324.086C2.28813 325.154 2.08103 326.255 1.99474 327.357C1.97748 327.735 1.85668 328.269 1.96023 328.63C2.06377 328.957 2.47796 329.181 2.75409 329.371C4.5144 330.593 6.32648 331.746 8.17308 332.882C9.05323 333.433 9.93339 333.983 10.8308 334.517C10.9516 334.586 11.0551 334.655 11.1587 334.724C11.2105 334.741 11.2622 334.775 11.2968 334.81C11.8835 333.501 12.315 331.384 13.2469 330.334C13.2469 330.334 13.2297 330.317 13.2124 330.3C11.711 328.579 11.2968 327.821 9.93338 325.962C8.81162 324.431 7.4655 322.641 7.75889 320.609C7.89695 319.646 8.43195 318.682 8.82888 317.787C9.27759 316.771 9.70903 315.756 10.175 314.74C11.0724 312.692 12.0389 310.644 12.9535 308.595C13.8509 306.581 14.6275 304.499 15.7838 302.605C15.9737 302.296 16.5087 302.468 16.4051 302.846C15.7493 305.118 14.6793 307.235 13.7646 309.404C12.9535 311.349 12.1424 313.294 11.314 315.222C10.8826 316.22 10.4684 317.201 10.0369 318.183C9.62274 319.129 9.3121 320.007 9.3121 321.074C9.3121 322.916 10.8308 324.534 11.8145 325.962C12.85 327.408 13.4713 328.062 14.2824 328.803C14.3687 328.871 14.4722 328.957 14.5585 329.044C15.059 328.562 16.0254 326.789 17.1817 325.756C17.6822 325.308 18.2172 325.016 18.7694 325.016C19.9085 325.016 20.5643 325.481 21.4444 326.393C22.0485 327.012 22.7733 327.856 23.8433 328.923C23.8778 328.94 23.895 328.975 23.9123 328.975C25.362 327.219 26.0178 326.858 27.4847 325.119C28.71 323.656 29.6765 321.986 29.5211 320.024C29.3486 317.89 28.1578 315.911 27.1741 314.052C26.1041 312.021 24.9996 310.024 23.8605 308.044C22.7215 306.099 21.5135 304.172 20.4952 302.175C20.2709 301.728 20.8404 301.366 21.151 301.762C22.7905 303.931 24.1194 306.34 25.4828 308.699C26.6736 310.764 27.8816 312.83 29.0207 314.929C30.0734 316.874 31.0916 319.009 30.8845 321.281C30.6947 323.277 29.5039 324.964 28.2268 326.427C26.8979 327.942 26.1386 328.785 24.6889 330.162C25.8452 331.402 26.2076 332.297 26.9152 333.329C27.3294 333.14 27.7608 332.968 28.1923 332.813C29.176 332.469 30.1597 332.142 31.1434 331.815C32.058 331.505 32.9727 331.212 33.8874 330.902C34.5259 330.696 35.268 330.524 35.7685 330.059C36.269 329.629 36.5279 328.906 36.7349 328.303C37.0111 327.477 37.2182 326.651 37.3217 325.79C37.5288 324.035 37.339 322.227 37.0283 320.489C36.7177 318.751 36.2517 317.029 36.0964 315.256C36.0619 314.895 36.6487 314.688 36.804 315.033C37.7359 316.995 38.2536 319.164 38.5988 321.298C38.9094 323.174 39.082 325.085 38.9612 326.978L38.9094 326.995Z" fill="#171717"/>
<path d="M22.8077 347.306C22.8594 345.309 21.289 343.657 19.3043 343.605C17.3024 343.553 15.6456 345.12 15.5939 347.099C15.5593 348.528 16.3532 349.767 17.544 350.387C17.5267 350.455 17.4922 350.542 17.4922 350.61C17.4232 351.058 17.4922 351.505 17.6648 351.919C17.8201 352.297 18.0963 352.728 18.5104 352.848C18.6658 352.9 18.8729 352.745 18.8038 352.573C18.7003 352.263 18.4932 352.022 18.4069 351.695C18.3551 351.54 18.3379 351.385 18.3379 351.23C18.3379 351.058 18.3379 350.937 18.3724 350.8C18.3724 350.765 18.3896 350.731 18.4069 350.714C18.6312 350.765 18.8729 350.8 19.1145 350.8C19.7012 350.8 20.2362 350.696 20.7367 350.456C20.7367 350.696 20.7367 350.955 20.7022 351.161C20.6504 351.402 20.5814 351.643 20.4778 351.867C20.4261 351.987 20.357 352.091 20.288 352.194C20.2017 352.314 20.0982 352.435 20.0809 352.59C20.0809 352.71 20.1845 352.848 20.3225 352.848C20.6159 352.831 20.8057 352.521 20.9611 352.297C21.1164 352.073 21.2545 351.815 21.3235 351.54C21.4098 351.282 21.4443 351.006 21.4615 350.731C21.4615 350.542 21.4615 350.249 21.3753 350.042C22.2209 349.406 22.7731 348.407 22.8077 347.271V347.306Z" fill="#171717"/>
<path d="M18.9536 -5L18.9536 328.737L18.9536 -5Z" fill="#171717"/>
<path d="M18.9536 -5L18.9536 328.737" stroke="#231F20" stroke-linecap="round" stroke-linejoin="round"/>
</svg>
