<svg width="133" height="64" viewBox="0 0 133 64" fill="none" xmlns="http://www.w3.org/2000/svg">
<g clip-path="url(#clip0_257_283)">
<path d="M0 5.10416C1.4585 4.08849 10.3766 -1.90941 22.1667 0.618554C34.4547 3.25545 40.1345 13.0725 40.9601 14.556C40.1217 17.9714 39.0037 24.4948 40.7995 32.3382C42.9841 41.8829 48.2623 48.025 50.7585 50.601C52.1399 49.9698 53.971 48.9029 55.5773 47.0766C57.5337 44.8498 58.5521 42.1681 58.7899 42.2706C59.0533 42.386 57.3635 45.5419 58.4686 46.7562C59.0019 47.3426 60.0813 47.2689 60.7174 47.0766C62.4682 46.548 63.1172 44.4461 63.2874 44.5134C63.4384 44.5743 62.9919 46.2884 60.3961 53.4846C62.4971 53.6641 73.0408 54.3497 81.599 46.7562C86.389 42.5045 88.4418 37.5383 89.3092 34.9014C92.0752 33.5429 102.914 28.628 115.973 32.3382C124.972 34.895 130.594 40.2873 133 42.9114C129.983 42.5622 123.696 42.2514 116.616 45.1542C110.596 47.6245 106.715 51.3027 104.729 53.4846C103.274 52.8567 98.7316 51.1137 93.1642 52.5234C88.7727 53.6352 85.9874 56.1376 84.8116 57.3294C83.729 56.945 80.0442 55.7947 75.8164 57.3294C72.6778 58.4701 70.8177 60.5174 70.0338 61.4947C67.7754 60.5463 64.3122 59.5114 60.3961 60.213C56.7499 60.8667 56.0078 62.4398 52.3647 63.4171C45.5509 65.2465 38.5347 62.3277 38.5507 60.8538C38.5636 59.71 42.8202 59.8991 44.0121 57.009C44.7831 55.1411 43.8065 53.1098 43.3696 52.203C41.6412 48.6081 37.9178 47.3682 36.9444 47.0766C37.0472 45.7053 37.0954 42.5205 35.3382 39.0666C33.703 35.853 31.3449 34.062 30.1981 33.2994C29.9796 31.7006 29.1508 27.2246 25.3792 23.367C22.6228 20.5475 19.5741 19.3684 17.9903 18.8814C17.2418 16.9974 15.9022 14.3573 13.4928 11.8326C8.47794 6.58121 2.252 5.41495 0 5.10416Z" fill="#231F20"/>
</g>
<defs>
<clipPath id="clip0_257_283">
<rect width="133" height="64" fill="white" transform="matrix(-1 0 0 1 133 0)"/>
</clipPath>
</defs>
</svg>
