<svg width="322" height="92" viewBox="0 0 322 92" fill="none" xmlns="http://www.w3.org/2000/svg">
<path d="M0.024231 92H309.973L313.672 88.5445C323.785 79.0966 324.297 63.2309 314.816 53.1495L309.973 48C309.61 45.9911 307.817 37.196 299.652 30.9978C290.59 24.1381 280.583 25.7061 278.886 26.0001C275.858 11.1293 263.016 0.300756 248.211 0.00676998C232.947 -0.311715 219.354 10.6393 216.228 26.0001C214.629 25.1671 209.395 22.6927 202.708 23.9911C194.494 25.6081 190.229 31.7573 189.405 32.9822C187.37 32.0023 180.125 28.7929 171.063 30.9733C161.396 33.3252 156.259 40.2094 154.999 41.9733C151.8 40.9444 145.307 39.3274 137.408 40.9689C125.608 43.4433 118.872 51.5279 116.982 53.9778C113.251 58.3141 109.495 62.6504 105.764 66.9866C104.601 66.0312 97.5497 60.47 87.9547 61.9889C79.9345 63.2628 73.1501 69.0201 70.1456 76.9822C69.4672 76.6637 64.9846 74.7283 60.2598 76.9822C56.3346 78.8441 53.7662 82.8864 53.5239 87.4432C48.9202 87.5412 44.2438 87.7372 39.4705 88.0067C25.5383 88.7906 12.3573 90.1871 0 92H0.024231Z" fill="white"/>
</svg>
