<svg width="165" height="100" viewBox="0 0 165 100" fill="none" xmlns="http://www.w3.org/2000/svg">
<path d="M151.463 75.9252C149.58 79.0728 144.782 86.0988 135.69 90.3818C120.904 97.3403 106.779 91.3486 104.503 90.3368C103.415 91.6296 96.5211 99.5549 84.896 99.9821C72.105 100.454 64.2465 91.461 63.2936 90.3368C61.1973 91.2474 45.7943 97.6213 30.2792 89.415C19.506 83.7156 14.8873 74.284 13.5085 71.1138C5.82939 70.1358 0 63.5033 0 55.7354C0 47.9676 5.81818 41.3463 13.5085 40.357C13.6094 38.7158 14.551 26.8447 24.9767 19.223C36.5121 10.7806 49.5385 14.9625 50.7605 15.3784C51.5452 14.2205 61.4439 0.0112415 79.5374 0C97.6534 0 107.563 14.2205 108.337 15.3784C109.133 15.0861 122.35 10.5558 133.246 19.223C142.17 26.3164 142.764 36.8497 142.831 38.446C153.66 37.1869 163.368 44.775 164.815 54.7799C166.104 63.7057 160.566 72.7776 151.452 75.914L151.463 75.9252Z" fill="white"/>
</svg>
