<svg width="405" height="114" viewBox="0 0 405 114" fill="none" xmlns="http://www.w3.org/2000/svg">
<path d="M404.47 114H17.5L8.5308 105.683C-1.67094 96.2233 -2.18717 80.2549 7.38227 70.1559L17.5 59.4783C17.9538 56.989 20.1923 46.0907 30.3869 38.4103C41.7007 29.9103 54.1944 31.8532 56.3119 32.2175C60.0933 13.7906 76.1263 0.372676 94.6096 0.00838889C113.668 -0.386256 130.638 13.1835 134.541 32.2175C136.537 31.1853 143.072 28.1192 151.421 29.7282C161.676 31.7317 167 39.3514 168.029 40.8693C170.57 39.655 179.615 35.6782 190.929 38.38C202.999 41.2943 209.412 49.8247 210.985 52.0104C214.978 50.7354 223.085 48.7318 232.947 50.7658C247.679 53.8319 256.089 63.8498 258.449 66.8855C263.107 72.2587 267.796 77.632 272.455 83.0052C273.907 81.8213 282.71 74.9302 294.689 76.8123C304.702 78.3909 313.172 85.5249 316.924 95.391C317.771 94.9963 323.367 92.5981 329.266 95.391C334.167 97.6981 337.373 102.707 337.676 108.354C343.423 108.475 349.262 108.718 355.221 109.052C372.616 110.023 389.072 111.754 404.5 114H404.47Z" fill="white"/>
</svg>
