<svg width="823" height="561" viewBox="0 0 823 561" fill="none" xmlns="http://www.w3.org/2000/svg">
<g clip-path="url(#clip0_391_1053)">
<path d="M90 134.067C91.1624 133.255 98.27 128.476 107.667 130.493C117.46 132.594 121.987 140.417 122.645 141.599C121.977 144.321 121.086 149.519 122.517 155.769C124.258 163.375 128.465 168.27 130.454 170.323C131.555 169.82 133.014 168.969 134.295 167.514C135.854 165.74 136.666 163.603 136.855 163.684C137.065 163.776 135.718 166.291 136.599 167.259C137.024 167.726 137.884 167.667 138.391 167.514C139.787 167.093 140.304 165.418 140.44 165.472C140.56 165.52 140.204 166.886 138.135 172.62C139.81 172.763 148.213 173.31 155.034 167.259C158.851 163.871 160.487 159.913 161.179 157.812C163.383 156.729 172.022 152.813 182.43 155.769C189.602 157.807 194.082 162.104 196 164.195C193.596 163.917 188.585 163.669 182.942 165.982C178.144 167.951 175.051 170.882 173.469 172.62C172.309 172.12 168.688 170.731 164.251 171.855C160.751 172.74 158.531 174.735 157.594 175.684C156.731 175.378 153.795 174.461 150.425 175.684C147.924 176.593 146.441 178.225 145.816 179.003C144.016 178.248 141.256 177.423 138.135 177.982C135.229 178.503 134.638 179.757 131.734 180.535C126.304 181.993 120.712 179.667 120.725 178.493C120.735 177.581 124.127 177.732 125.077 175.429C125.692 173.94 124.913 172.322 124.565 171.599C123.188 168.735 120.22 167.746 119.444 167.514C119.526 166.421 119.565 163.883 118.164 161.131C116.861 158.57 114.982 157.143 114.068 156.535C113.894 155.261 113.233 151.695 110.227 148.62C108.03 146.374 105.6 145.434 104.338 145.046C103.742 143.545 102.674 141.441 100.754 139.429C96.7569 135.242 91.7948 134.312 90 134.067Z" fill="#231F20"/>
</g>
<g clip-path="url(#clip1_391_1053)">
<path d="M729 155.738C731.5 155.248 734.766 154.862 738.564 155.048C743.08 155.262 746.81 156.208 749.495 157.118C749.044 158.526 748.45 160.983 748.812 164.019C749.058 166.075 749.659 167.717 750.178 168.849C750.732 170.422 751.579 172.354 752.911 174.369C755.2 177.826 757.891 180.014 759.743 181.269C760.091 180.883 760.76 180.248 761.792 179.889C762.462 179.662 763.684 179.234 764.306 179.889C764.778 180.386 764.764 181.345 764.306 182.242C766.581 182.788 769.423 183.264 772.723 183.34C776.89 183.443 780.429 182.877 783.08 182.242C784.842 182.574 787.247 183.257 789.802 184.72C794.4 187.356 796.886 191.061 798 193C797.228 192.524 795.814 191.799 793.901 191.62C791.004 191.351 788.832 192.524 788.053 193C787.787 192.759 786.045 191.268 783.653 191.62C782.185 191.834 781.215 192.634 780.818 193C780.627 192.614 779.486 190.385 776.822 189.55C774.007 188.667 771.705 190.026 771.356 190.24C771.247 189.736 770.714 187.576 768.624 186.1C766.356 184.499 763.951 184.899 763.5 184.982C762.749 185.382 761.71 185.831 760.426 186.1C758.404 186.528 756.689 186.314 755.644 186.1C755.418 184.947 755.186 183.802 754.96 182.65C754.872 181.801 754.434 178.413 751.545 175.749C749.099 173.493 746.339 173.086 745.396 172.989C745.321 172.258 744.945 169.567 742.663 167.469C741.092 166.02 739.37 165.557 738.564 165.399C738.346 164.233 737.827 162.397 736.515 160.569C733.926 156.953 730.114 155.98 729 155.738Z" fill="#231F20"/>
</g>
<g clip-path="url(#clip2_391_1053)">
<path d="M823 502.104C821.542 501.088 812.623 495.091 800.833 497.619C788.545 500.255 782.865 510.073 782.04 511.556C782.878 514.971 783.996 521.495 782.2 529.338C780.016 538.883 774.738 545.025 772.242 547.601C770.86 546.97 769.029 545.903 767.423 544.077C765.466 541.85 764.448 539.168 764.21 539.271C763.947 539.386 765.637 542.542 764.531 543.756C763.998 544.343 762.919 544.269 762.283 544.077C760.532 543.548 759.883 541.446 759.713 541.513C759.562 541.574 760.008 543.288 762.604 550.485C760.503 550.664 749.959 551.35 741.401 543.756C736.611 539.505 734.558 534.538 733.691 531.901C730.925 530.543 720.086 525.628 707.027 529.338C698.028 531.895 692.406 537.287 690 539.911C693.017 539.562 699.304 539.251 706.384 542.154C712.404 544.625 716.285 548.303 718.271 550.485C719.726 549.857 724.268 548.114 729.836 549.523C734.227 550.635 737.013 553.138 738.188 554.329C739.271 553.945 742.956 552.795 747.184 554.329C750.322 555.47 752.182 557.517 752.966 558.495C755.225 557.546 758.688 556.511 762.604 557.213C766.25 557.867 766.992 559.44 770.635 560.417C777.449 562.247 784.465 559.328 784.449 557.854C784.436 556.71 780.18 556.899 778.988 554.009C778.217 552.141 779.194 550.11 779.63 549.203C781.359 545.608 785.082 544.368 786.056 544.077C785.953 542.705 785.905 539.521 787.662 536.067C789.297 532.853 791.655 531.062 792.802 530.299C793.02 528.701 793.849 524.225 797.621 520.367C800.377 517.547 803.426 516.368 805.01 515.881C805.758 513.997 807.098 511.357 809.507 508.833C814.522 503.581 820.748 502.415 823 502.104Z" fill="#231F20"/>
</g>
<g clip-path="url(#clip3_391_1053)">
<path d="M2.04078 316C-0.236065 312.837 -0.642149 308.706 0.999541 305.238C3.33539 300.309 8.5416 299.406 8.98239 299.337C12.1686 299.187 14.6329 299.618 16.2711 300.031C20.2521 301.031 22.0153 302.572 27.3777 304.544C29.717 305.405 31.6745 305.957 32.9309 306.28C33.1635 304.777 33.3926 303.27 33.6251 301.767L32.2368 297.254L35.0134 299.684L36.7488 298.99L36.0547 295.518L38.4842 298.295L43.3434 300.031C47.0988 295.813 51.5726 289.95 55.4912 282.326C60.5447 272.495 62.7729 263.441 63.8211 256.984C68.17 253.707 72.2066 252.003 74.9277 251.083C80.8419 249.087 85.7982 249.021 90.1992 249C95.0965 248.976 99.1574 249.521 102 250.041C99.4177 251.152 92.4136 254.561 87.4226 262.539C82.376 270.603 82.4177 278.487 82.5634 281.285C81.8866 281.122 76.0418 279.813 71.4569 283.715C68.8295 285.951 67.9409 288.769 67.639 289.964C66.7713 289.998 60.9924 290.314 57.2266 295.171C54.7276 298.396 54.4777 301.864 54.4499 303.155C51.9371 304.259 50.3683 306.158 50.632 307.668C50.8819 309.099 52.7354 309.977 54.4499 310.793C55.7029 311.386 56.817 311.681 57.5737 311.834C56.4491 312.705 54.7102 313.837 52.3674 314.611C48.9661 315.736 46.0089 315.538 44.3846 315.306C42.4409 314.861 40.0426 314.125 37.443 312.876C35.3501 311.869 33.6182 310.765 32.2368 309.751C31.9661 309.654 30.9665 309.324 29.8072 309.751C28.7764 310.13 28.2384 310.883 28.0718 311.14C27.8566 310.876 26.3919 309.13 23.9068 309.057C21.8174 308.998 20.4083 310.164 20.089 310.446C19.6794 309.998 18.3813 308.696 16.2711 308.363C13.2168 307.88 11.0128 309.831 10.7178 310.098C9.90215 309.786 8.80885 309.536 7.59407 309.751C4.95626 310.216 2.78006 312.688 2.04078 316Z" fill="#231F20"/>
</g>
<g clip-path="url(#clip4_391_1053)">
<path d="M115.333 405.812V409.997L110.027 407.904C109.355 407.862 108.319 407.88 107.127 408.249C105.629 408.712 104.608 409.506 104.064 409.997C103.353 409.43 101.675 408.255 99.2255 407.944C96.1954 407.557 93.9038 408.73 93.1471 409.162C92.834 408.443 92.0621 406.948 90.4118 405.812C87.7828 404 84.9321 404.478 84.3333 404.594C83.9625 403.802 82.7712 401.526 80.0784 400.025C77.407 398.535 74.8723 398.709 74 398.806C74.7203 397.689 76.6836 394.969 80.3824 393.324C84.5157 391.487 88.2418 392.133 89.5 392.41C90.2112 394.14 91.3357 396.217 93.1471 398.197C99.0462 404.645 107.498 404.895 109.559 404.898V403.375L109.255 402.157L110.471 403.071L111.382 402.461L111.686 400.939L113.206 402.461C114.485 401.13 116.871 398.286 118.069 393.933C119.543 388.572 118.339 384.107 117.765 382.359C118.689 380.751 120.968 377.275 125.363 374.744C129.879 372.143 134.152 371.969 136 372.003C135.246 372.655 133.487 374.351 132.657 377.181C131.678 380.519 132.62 383.3 132.961 384.186C132.341 384.521 130.019 385.874 129.01 388.755C128.362 390.601 128.554 392.224 128.706 393.019C128.065 393.041 126.271 393.193 124.755 394.542C122.98 396.123 122.29 398.715 122.931 401.243C122.202 401.222 120.315 401.258 118.373 402.461C116.534 403.598 115.659 405.151 115.333 405.812Z" fill="#231F20"/>
</g>
<path d="M645 1.81497C647.318 2.44459 653.758 4.5246 658.44 10.8096C666.011 20.9848 662.203 33.1276 661.8 34.3419C663.67 34.904 667.546 36.3432 670.76 40.0422C676.36 46.4734 675.419 54.4562 675.24 55.7829C676.629 56.6036 679.082 58.3126 680.84 61.4045C684.211 67.3185 682.318 73.4461 681.96 74.5367C682.475 74.6267 685.667 75.2338 687.56 78.2695C689.094 80.7318 688.781 83.2278 688.68 83.8912C689.654 84.7681 691.021 86.2298 692.04 88.3885C693.888 92.2899 693.418 95.9552 693.16 97.3831C694.65 99.2608 696.15 101.127 697.64 103.005L707.72 98.5075C707.922 96.9896 708.571 93.7291 711.08 90.6372C714.787 86.0836 719.872 85.1954 721.16 85.0155C721.283 77.9435 724.699 71.7934 730.12 69.2749C733.155 67.8582 736.112 67.9144 737.96 68.1505C737.781 67.2398 736.56 60.3926 741.32 54.6586C746.842 48.0025 755.32 48.9582 755.88 49.0369C756.978 46.7433 759.878 41.5151 765.96 37.7936C774.36 32.6554 782.85 34.0158 785 34.4206C783.219 32.2394 774.696 22.334 760.36 20.9286C740.122 18.9498 727.398 35.7923 726.76 36.6692C727.163 42.2234 727.253 54.5574 720.04 67.0262C716.837 72.5691 713.074 76.6055 709.96 79.3938C708.47 77.5162 706.97 75.6498 705.48 73.7722L699.88 76.0208C697.786 73.8734 692.309 67.7008 690.92 58.0315C689.016 44.7644 696.251 35.0952 697.64 33.2962C697.158 31.0026 692.97 12.7322 675.24 4.06363C661.285 -2.76106 648.125 0.859285 645 1.81497Z" fill="url(#paint0_linear_391_1053)"/>
<defs>
<linearGradient id="paint0_linear_391_1053" x1="715" y1="52" x2="803.5" y2="12" gradientUnits="userSpaceOnUse">
<stop stop-color="#231F20"/>
<stop offset="1" stop-color="#6D6D6D"/>
</linearGradient>
<clipPath id="clip0_391_1053">
<rect width="106" height="51" fill="white" transform="translate(90 130)"/>
</clipPath>
<clipPath id="clip1_391_1053">
<rect width="69" height="38" fill="white" transform="translate(729 155)"/>
</clipPath>
<clipPath id="clip2_391_1053">
<rect width="133" height="64" fill="white" transform="translate(690 497)"/>
</clipPath>
<clipPath id="clip3_391_1053">
<rect width="102" height="67" fill="white" transform="translate(0 249)"/>
</clipPath>
<clipPath id="clip4_391_1053">
<rect width="62" height="38" fill="white" transform="translate(74 372)"/>
</clipPath>
</defs>
</svg>
