<svg width="1136" height="496" viewBox="0 0 1136 496" fill="none" xmlns="http://www.w3.org/2000/svg">
<circle cx="581" r="304" fill="url(#paint0_radial_239_316)"/>
<path d="M617.93 -102.554C562.329 -122.573 500.722 -92.8787 480.326 -36.2305C459.931 20.4178 488.469 82.5685 544.069 102.587C599.67 122.606 661.277 92.9115 681.673 36.2633C702.068 -20.3849 673.53 -82.5357 617.93 -102.554Z" fill="#D1D7D8" stroke="#ACB5C0" stroke-width="2" stroke-miterlimit="10"/>
<path d="M629.713 15.0173C622.886 12.5594 615.322 16.2053 612.818 23.1606C610.314 30.1159 613.818 37.7468 620.644 40.2047C627.471 42.6626 635.035 39.0167 637.539 32.0614C640.044 25.1061 636.54 17.4752 629.713 15.0173Z" fill="#ACB5C0"/>
<path d="M597.95 45.431C592.523 43.477 586.509 46.3753 584.519 51.9046C582.528 57.4338 585.313 63.5001 590.74 65.454C596.167 67.408 602.18 64.5096 604.171 58.9804C606.162 53.4512 603.376 47.3849 597.95 45.431Z" fill="#ACB5C0"/>
<path d="M501.067 21.3663C503.572 14.4081 511.133 10.7641 517.962 13.223C524.792 15.682 528.294 23.3089 525.788 30.2671C523.283 37.2254 515.723 40.8694 508.893 38.4104C502.064 35.9515 498.562 28.3246 501.067 21.3663Z" fill="#ACB5C0"/>
<path d="M622.17 59.3197C619.459 58.3436 616.455 59.7915 615.461 62.5536C614.466 65.3157 615.858 68.3461 618.569 69.3222C621.28 70.2983 624.284 68.8504 625.278 66.0883C626.273 63.3262 624.881 60.2958 622.17 59.3197Z" fill="#ACB5C0"/>
<path d="M498.718 0.634342C496.007 -0.341743 493.003 1.10611 492.008 3.86822C491.014 6.63033 492.405 9.66073 495.116 10.6368C497.827 11.6129 500.831 10.165 501.826 7.40294C502.82 4.64083 501.429 1.61043 498.718 0.634342Z" fill="#ACB5C0"/>
<ellipse opacity="0.5" cx="568" cy="19" rx="568" ry="477" fill="url(#paint1_radial_239_316)"/>
<defs>
<radialGradient id="paint0_radial_239_316" cx="0" cy="0" r="1" gradientUnits="userSpaceOnUse" gradientTransform="translate(581 2.68045e-05) rotate(-43.1672) scale(318.152)">
<stop stop-color="white" stop-opacity="0.24"/>
<stop offset="1" stop-color="#605E5E" stop-opacity="0"/>
</radialGradient>
<radialGradient id="paint1_radial_239_316" cx="0" cy="0" r="1" gradientUnits="userSpaceOnUse" gradientTransform="translate(566.185 17.476) rotate(-49.211) scale(453.319 491.635)">
<stop offset="0.0989583" stop-color="white"/>
<stop offset="1" stop-color="#2D2C2C" stop-opacity="0"/>
</radialGradient>
</defs>
</svg>
