<svg width="4535" height="868" viewBox="0 0 4535 868" fill="none" xmlns="http://www.w3.org/2000/svg">
<path opacity="0.14" d="M3945.17 208.53C3907.67 205.218 3892.1 223.851 3842.78 244.356C3708.67 300.085 3570.43 267.764 3539.51 260.53C3480.89 246.805 3450.93 227.327 3408.68 207.318C3231.16 123.316 3046.06 129.369 2947.95 132.579C2763.06 138.642 2724.04 191.695 2612.17 226.961C2600.67 230.58 2534.97 250.469 2462.61 254.306C2299.06 263.014 2267.06 180.752 2106.16 180.617C2050.97 180.566 2001.34 190.679 1902.04 210.873C1902.04 210.873 1780.28 235.636 1697.82 227.478C1678.48 225.554 1665.08 223.433 1665.08 223.433C1644.76 220.257 1637.76 217.625 1605.57 215.419C1575.41 213.361 1508.11 209.216 1439.77 224.392C1373.14 239.188 1352.4 261.986 1295.87 286.779C1156.94 347.686 1017.05 326.248 971.812 317.185C949.284 312.673 954.395 312.016 734.03 218.177C569.493 148.079 553.769 142.953 523.558 140.499C431.475 133.046 421.485 168.229 284.407 166.49C227.948 165.779 200.386 159.415 143.113 168.472C89.3122 176.983 18.087 188.222 7.51124 227.163C-3.92614 269.243 57.6155 335.169 119.605 340.93C157.095 344.393 172.749 323.797 222.175 300.967C356.561 238.896 494.684 273.934 525.571 281.772C584.141 296.645 614.022 317.996 656.194 339.846C833.377 431.731 1018.51 424.227 1116.65 420.232C1303.03 412.661 1341.45 353.136 1455.49 313.789C1520.42 291.385 1573.61 286.63 1602.62 283.857C1721.99 272.517 1745.31 303.54 1873.79 308.811C2016.23 314.655 2019.21 277.838 2155.72 286.421C2204.64 289.5 2343.18 302.952 2367.65 305.067C2370.31 305.303 2379.29 306.084 2391.48 307.638C2394.37 308.005 2397.31 308.405 2400.44 308.872C2420.74 311.836 2427.77 314.258 2459.93 316.372C2490.11 318.339 2557.4 322.393 2625.67 308.878C2692.23 295.713 2712.88 275.12 2769.29 252.894C2907.96 198.24 3047.91 218.197 3093.18 226.626C3115.72 230.806 3110.61 231.372 3331.31 317.389C3496.1 381.628 3511.85 386.331 3542.06 388.664C3634.16 395.785 3644.01 363.924 3781.07 366.056C3837.52 366.948 3865.1 372.798 3922.33 364.828C3976.15 357.347 4047.31 347.437 4057.73 312.151C4069 274.058 4007.2 213.991 3945.2 208.532L3945.17 208.53Z" fill="white"/>
<path opacity="0.14" d="M415.147 565.974C432.365 616.849 639.828 534.034 899.308 569.997C1150.25 604.78 1131.49 706.499 1379.44 727.278C1477.43 735.505 1662.29 750.992 1843.42 666.786C1886.54 646.762 1917.35 626.679 1976.57 614.369C2007.79 607.866 2147.45 578.799 2279.17 646.641C2327.64 671.595 2342.38 692.858 2380.02 691.013C2442.27 687.928 2506.66 624.683 2497.04 582.126C2488.14 542.715 2417.4 528.408 2363.9 517.61C2307.01 506.117 2279.2 511.259 2222.67 509.535C2085.5 505.361 2077.03 469.76 1984.62 473.239C1954.33 474.388 1938.38 478.834 1770.77 541.807C1546.33 626.134 1551.41 626.981 1528.69 630.52C1483.05 637.658 1342.22 653.023 1205.9 586.149C1150.44 558.957 1130.68 535.274 1064.68 517.58C996.987 499.462 929.507 500.703 899.247 501.459C854.19 502.578 858.154 506.661 806.44 509.535C702.042 515.281 607.117 502.88 596.647 501.459C521.239 491.266 496.002 479.5 463.502 497.436C437.116 511.984 407.975 544.953 415.086 566.005L415.147 565.974Z" fill="white"/>
<path opacity="0.27" d="M76.3944 788.829C98.9362 812.803 370.406 773.779 709.985 790.717C1038.37 807.107 1013.83 855.026 1338.28 864.835C1466.51 868.704 1708.39 876.015 1945.46 836.321C2001.86 826.877 2042.19 817.434 2119.68 811.615C2160.56 808.538 2343.28 794.86 2515.66 826.817C2579.08 838.576 2598.38 848.598 2647.64 847.715C2729.06 846.252 2813.33 816.459 2800.74 796.414C2789.09 777.862 2696.51 771.099 2626.52 766.011C2552.09 760.589 2515.66 763.026 2441.74 762.203C2262.25 760.254 2251.18 743.468 2130.24 745.113C2090.6 745.662 2069.72 747.764 1850.42 777.405C1556.74 817.129 1563.34 817.525 1533.62 819.201C1473.93 822.552 1289.6 829.802 1111.23 798.303C1038.64 785.477 1012.8 774.328 926.447 766.011C837.883 757.481 749.562 758.06 709.985 758.395C651.013 758.913 656.188 760.863 588.562 762.203C451.95 764.915 327.713 759.066 314.006 758.395C215.306 753.613 182.326 748.068 139.784 756.507C105.26 763.361 67.1054 778.897 76.4247 788.798L76.3944 788.829Z" fill="white"/>
<path opacity="0.14" d="M4533.92 497.524C4517.63 462.243 4321.42 519.674 4076.01 494.734C3838.67 470.612 3856.41 400.072 3621.9 385.661C3529.24 379.956 3354.4 369.217 3183.08 427.612C3142.3 441.498 3113.17 455.426 3057.16 463.963C3027.62 468.473 2895.55 488.63 2770.97 441.582C2725.12 424.277 2711.18 409.531 2675.58 410.811C2616.71 412.95 2555.81 456.81 2564.91 486.323C2573.32 513.654 2640.23 523.575 2690.83 531.063C2744.64 539.034 2770.94 535.468 2824.4 536.664C2954.13 539.558 2962.14 564.247 3049.55 561.834C3078.2 561.037 3093.28 557.954 3251.8 514.283C3464.07 455.803 3459.26 455.216 3480.75 452.762C3523.91 447.812 3657.11 437.156 3786.04 483.533C3838.5 502.39 3857.18 518.814 3919.6 531.084C3983.62 543.649 4047.44 542.789 4076.06 542.264C4118.68 541.488 4114.93 538.656 4163.84 536.664C4262.58 532.678 4352.35 541.278 4362.26 542.264C4433.58 549.333 4457.44 557.492 4488.18 545.054C4513.14 534.965 4540.7 512.102 4533.97 497.503L4533.92 497.524Z" fill="white"/>
</svg>
