<svg width="204" height="142" viewBox="0 0 204 142" fill="none" xmlns="http://www.w3.org/2000/svg">
<g clip-path="url(#clip0_261_351)">
<path d="M186.525 16.5733C187.727 19.7629 187.392 21.8255 186.861 23.1127C184.293 29.3367 171.387 31.5337 154.583 27.9254C156.403 28.2976 158.223 28.6698 160.048 29.042C158.471 33.9375 156.207 37.1219 154.5 39.076C152.087 41.8365 149.813 43.2632 140.316 48.9445C138.104 50.2679 134.84 52.2167 130.838 54.5895C129.781 54.9049 128.719 55.2254 127.662 55.5407C128.482 55.6131 129.297 55.6906 130.117 55.763C130.019 59.0766 129.302 66.1123 124.295 72.2794C122.965 73.9182 121.552 75.2208 120.227 76.2496C117.515 74.3472 114.803 72.45 112.085 70.5477C109.574 64.122 107.068 57.6912 104.557 51.2656C103.959 45.698 102.866 37.98 100.706 28.9076C97.6273 15.9581 95.3999 12.9547 94.2346 11.5796C89.6816 6.20335 83.7108 4.95751 72.4651 2.78116C59.2188 0.217111 41.9352 -3.12753 25.4921 5.94488C22.0477 7.84724 19.48 9.83231 17.9125 11.1454C20.6762 11.3883 38.5837 13.1821 46.4314 23.9708C48.1381 26.3177 51.1029 30.3913 50.3347 35.4832C49.9222 38.2333 48.5712 40.2649 47.6328 41.4384C48.9116 41.0249 50.7884 40.6216 52.9282 40.9887C58.6104 41.9657 61.7247 47.6107 63.7459 51.2707C68.7268 60.2914 68.8506 69.6378 68.3762 75.2467C68.4587 74.0319 68.799 72.4552 69.9643 71.3644C72.7899 68.7228 78.3071 70.9354 80.1375 71.6694C84.7626 73.5253 90.2282 77.8004 92.5691 84.5776C96.4569 95.8418 88.8309 105.659 88.2792 106.346C87.382 106.868 86.6137 107.029 86.0517 107.075C85.4175 107.122 85.0101 107.018 84.7987 107.272C84.4893 107.639 84.8451 108.466 85.2473 109.174C83.9583 109.985 82.8445 110.301 82.0402 110.43C81.2513 110.559 80.6325 110.539 80.452 110.906C80.2149 111.386 80.88 112.214 81.5091 112.86C80.1839 113.501 79.0702 113.883 78.3019 114.116C77.0283 114.504 76.1724 114.633 76.0435 115.15C75.9301 115.61 76.456 116.132 76.853 116.463C75.6155 117.626 74.4657 118.112 73.5943 118.334C72.3413 118.655 71.2327 118.531 71.0574 119.032C70.9234 119.415 71.4029 119.937 71.867 120.345C71.0213 121.332 70.1912 121.777 69.5518 121.994C68.4897 122.356 67.7008 122.18 67.3244 122.723C66.9737 123.219 67.2006 123.99 67.4636 124.594C66.3137 125.142 65.3237 125.422 64.5916 125.571C63.4108 125.82 62.6116 125.799 62.3641 126.3C62.1372 126.755 62.4827 127.391 62.8385 127.893C56.6923 131.31 47.0914 135.766 35.6911 137.508C35.6911 137.508 27.9774 138.686 19.0778 136.613C16.7317 136.065 14.432 135.197 12.581 133.233C11.7663 132.364 11.2455 131.511 10.9361 130.911C7.29585 129.03 3.65041 127.148 0.0101318 125.266L7.65162 136.5C9.41504 136.655 12.0808 136.944 15.288 137.503C22.1921 138.707 24.7393 139.974 29.1994 140.94C31.3495 141.406 38.5682 142.796 47.0966 141.328C53.1912 140.279 57.409 138.206 63.7356 135.094C69.6395 132.194 74.2646 129.247 77.4511 127.045C77.745 127.314 78.0389 127.665 77.9822 128.022C77.8739 128.694 76.6107 128.895 76.6468 129.138C76.6829 129.392 78.1214 129.536 79.4053 129.392C83.9376 128.875 85.3504 124.92 91.5843 121.203C93.0744 120.314 94.1933 119.828 96.4363 118.856C101.623 116.602 103.366 116.649 104.351 116.789C106.249 117.052 106.094 117.745 108.229 118.381C113.808 120.04 119.613 116.69 120.16 116.365C122.831 114.778 123.109 113.552 125.399 113.123C127.317 112.761 128.353 113.382 130.89 113.935C131.834 114.142 136.577 115.165 140.759 114.214C145.338 113.17 144.698 110.792 149.54 109.432C153.387 108.352 154.743 109.587 159.213 108.455C162.116 107.721 164.307 106.496 165.653 105.633C167.427 106.067 170.093 106.532 173.32 106.331C175.543 106.191 176.461 105.834 178.312 105.855C180.173 105.876 182.859 106.279 186.144 108.119C186.556 107.158 187.041 105.638 186.84 103.844C186.665 102.283 186.02 100.872 183.664 97.9768C181.091 94.8235 179.807 93.2416 177.445 91.5202C175.048 89.7677 170.526 86.4696 165.153 87.3019C164.05 87.4725 163.168 87.7775 162.616 87.9998C163.524 87.9429 165.663 87.9532 167.437 89.3697C167.69 89.5713 168.391 90.1296 168.272 90.3777C168.046 90.8533 165.163 89.2611 161.528 89.7626C160.719 89.8763 160.064 90.0675 159.631 90.2123C162.281 90.4604 164.266 91.789 164.591 93.4535C164.658 93.7999 164.684 94.322 164.452 94.9889C163.286 94.1152 162.229 93.6965 161.497 93.4794C160.775 93.2674 159.765 93.071 159.656 93.314C159.564 93.5259 160.306 93.8206 160.77 94.6529C161.301 95.6092 161.281 96.9429 160.853 97.1394C160.378 97.3565 159.754 96.0124 157.955 95.0147C157.027 94.4978 156.15 94.2807 155.557 94.1773C156.707 95.4696 156.991 96.8292 156.506 97.3617C156.047 97.8683 154.794 97.7545 154.052 97.1394C152.948 96.2192 153.613 94.689 152.52 93.588C151.902 92.9676 151.051 92.8125 150.432 92.7763C148.761 90.9722 145.446 86.8521 145.998 81.9877C146.199 80.2094 147.132 76.4564 156.645 70.2478C163.926 65.4919 173.79 59.0559 188.145 56.9985C192.687 56.3471 197.668 56.1352 200.937 52.2736C203.134 49.6837 203.515 46.6802 203.835 44.1679C205.119 34.0719 199.406 26.3074 198.73 25.4182C194.487 19.8301 189.078 17.4728 186.546 16.563L186.525 16.5733Z" fill="#1E1E1E"/>
</g>
<defs>
<clipPath id="clip0_261_351">
<rect width="204" height="142" fill="white"/>
</clipPath>
</defs>
</svg>
