<svg width="41" height="147" viewBox="0 0 41 147" fill="none" xmlns="http://www.w3.org/2000/svg">
<g clip-path="url(#clip0_168_236)">
<path d="M22.8543 52.6931C22.8543 52.6931 24.238 54.8096 23.6327 55.3553C23.0305 55.898 20.8395 56.0788 18.9561 55.9265C17.0726 55.7742 16.6274 55.5045 16.6659 55.0317C16.7043 54.5621 17.6748 51.7983 18.4372 51.6238C19.1963 51.4493 22.1432 51.3509 22.8511 52.6931H22.8543Z" fill="#CF6684"/>
<path d="M0.118517 25.4139C0.00320442 38.376 10.0866 52.5757 20.2502 52.6646C26.8966 52.7217 33.9083 46.3564 37.7969 38.2237C37.8065 38.2047 37.8161 38.1888 37.8257 38.1698C37.8257 38.1634 37.8289 38.1603 37.8321 38.1571C37.8321 38.1476 37.8353 38.1444 37.8385 38.1381V38.1317C39.6899 34.2415 40.8206 29.9514 40.8591 25.7756C40.9744 12.8135 31.9512 2.22795 20.6986 2.12958C15.9355 2.08833 11.5345 3.93191 8.03664 7.0606C3.2736 11.3189 0.182576 17.9475 0.115311 25.4202L0.118517 25.4139Z" fill="#CF6684"/>
<path d="M22.5148 130.282C22.6301 127.131 21.4449 124.136 20.9292 121.067C20.6602 119.468 20.5769 117.818 20.9933 116.235C21.4225 114.597 22.3034 113.128 23.2034 111.707C24.0651 110.349 24.9748 109.006 25.6154 107.528C26.224 106.119 26.5219 104.615 26.4482 103.082C26.3009 99.9947 24.7858 97.1389 23.0593 94.6353C21.2495 92.0143 19.0426 89.6948 17.2328 87.0706C15.4647 84.5099 13.9752 81.5557 14.0585 78.3763C14.1546 74.7431 16.2911 71.6493 18.0656 68.6126C18.9497 67.1022 19.7665 65.5537 20.3238 63.891C20.9068 62.1521 21.2463 60.3308 21.32 58.4967C21.3552 57.6241 21.3296 56.7515 21.2495 55.8852C21.2271 55.6377 20.8299 55.6314 20.8524 55.8852C21.2015 59.6898 20.4039 63.4468 18.6166 66.8261C16.9894 69.9009 14.7472 72.7599 13.9432 76.1995C12.4538 82.5743 17.2264 87.8258 20.9164 92.43C22.928 94.9399 24.8755 97.71 25.6987 100.855C26.0895 102.346 26.1888 103.907 25.8813 105.421C25.5353 107.109 24.6801 108.632 23.7736 110.079C22.9184 111.443 21.9959 112.776 21.3104 114.236C20.6473 115.651 20.2918 117.155 20.3078 118.719C20.343 121.883 21.5698 124.869 21.9927 127.978C22.2105 129.578 22.1656 131.18 21.7236 132.738C21.2912 134.261 20.5705 135.689 19.7953 137.066C18.2995 139.713 16.4737 142.302 15.817 145.313C15.6569 146.056 15.5832 146.808 15.596 147.563C15.5992 147.813 15.9964 147.848 15.99 147.598C15.9291 144.348 17.646 141.502 19.2444 138.789C20.7947 136.159 22.3995 133.401 22.5148 130.279V130.282Z" fill="#303030"/>
<g clip-path="url(#clip1_168_236)">
<path d="M4.48388 29.7292C3.76519 30.0174 7.31773 42.2746 14.2136 45.5628C14.5567 45.7263 16.5445 46.6748 16.8104 46.3203C17.1283 45.896 14.7733 43.886 13.3992 42.5911C6.62693 36.2021 5.01011 29.518 4.48388 29.7292Z" fill="white"/>
</g>
<g clip-path="url(#clip2_168_236)">
<path d="M31.0913 10.7014C31.453 11.5002 31.9049 13.1556 31.0913 13.8936C30.2304 14.6746 28.3418 14.0714 27.3672 13.0103C25.9762 11.4928 26.1165 8.67554 27.2121 8.09608C28.2635 7.54034 30.3116 8.98083 31.0913 10.7014Z" fill="white"/>
<path d="M32.9799 19.574C33.7709 19.574 34.4122 18.9304 34.4122 18.1365C34.4122 17.3426 33.7709 16.699 32.9799 16.699C32.1888 16.699 31.5475 17.3426 31.5475 18.1365C31.5475 18.9304 32.1888 19.574 32.9799 19.574Z" fill="white"/>
</g>
</g>
<defs>
<clipPath id="clip0_168_236">
<rect width="41" height="147.893" fill="white"/>
</clipPath>
<clipPath id="clip1_168_236">
<rect width="12.4464" height="16.6742" fill="white" transform="translate(4.39286 29.7236)"/>
</clipPath>
<clipPath id="clip2_168_236">
<rect width="8.05357" height="11.5994" fill="white" transform="translate(26.3571 7.97461)"/>
</clipPath>
</defs>
</svg>
