<svg width="37" height="135" viewBox="0 0 37 135" fill="none" xmlns="http://www.w3.org/2000/svg">
<path d="M20.6246 48.0995C20.6246 48.0995 21.8734 50.0315 21.327 50.5296C20.7836 51.0249 18.8064 51.19 17.1067 51.051C15.407 50.912 15.0052 50.6658 15.0399 50.2342C15.0746 49.8055 15.9505 47.2827 16.6384 47.1234C17.3235 46.9641 19.9829 46.8743 20.6217 48.0995H20.6246Z" fill="#D88B58"/>
<path d="M0.106958 23.1984C0.00289589 35.0305 9.10258 47.9923 18.2745 48.0734C24.2726 48.1256 30.6002 42.3152 34.1094 34.8915C34.1181 34.8741 34.1267 34.8597 34.1354 34.8423C34.1354 34.8365 34.1383 34.8336 34.1412 34.8307C34.1412 34.822 34.1441 34.8191 34.147 34.8133V34.8075C35.8177 31.2564 36.8381 27.3404 36.8728 23.5286C36.9769 11.6964 28.834 2.03374 18.6792 1.94395C14.3809 1.90629 10.4091 3.58915 7.25258 6.44509C2.95422 10.3322 0.164768 16.383 0.104065 23.2042L0.106958 23.1984Z" fill="#D88B58"/>
<path d="M20.3182 118.924C20.4223 116.048 19.3528 113.314 18.8874 110.513C18.6446 109.053 18.5694 107.547 18.9452 106.102C19.3325 104.607 20.1274 103.266 20.9397 101.968C21.7173 100.729 22.5382 99.5035 23.1164 98.1537C23.6656 96.8677 23.9344 95.4948 23.8679 94.0958C23.735 91.2775 22.3677 88.6706 20.8096 86.3853C19.1764 83.9928 17.1848 81.8755 15.5516 79.4801C13.956 77.1426 12.6118 74.446 12.687 71.5437C12.7737 68.2272 14.7017 65.4031 16.3032 62.6312C17.101 61.2525 17.8381 59.839 18.341 58.3212C18.8671 56.7339 19.1735 55.0713 19.24 53.3972C19.2718 52.6006 19.2487 51.8041 19.1764 51.0134C19.1562 50.7874 18.7978 50.7816 18.818 51.0134C19.1331 54.4863 18.4133 57.9157 16.8003 61.0005C15.3319 63.8072 13.3085 66.4169 12.5829 69.5567C11.2388 75.3757 15.5458 80.1694 18.8758 84.3722C20.6911 86.6634 22.4486 89.192 23.1915 92.0624C23.5442 93.4238 23.6338 94.8488 23.3563 96.2305C23.0441 97.7714 22.2723 99.1617 21.4542 100.483C20.6824 101.728 19.8499 102.945 19.2314 104.277C18.633 105.569 18.3121 106.942 18.3266 108.37C18.3584 111.257 19.4655 113.983 19.8471 116.822C20.0436 118.281 20.0032 119.744 19.6042 121.166C19.214 122.557 18.5636 123.86 17.8641 125.117C16.5142 127.533 14.8665 129.896 14.2739 132.645C14.1294 133.323 14.0629 134.009 14.0745 134.699C14.0774 134.928 14.4358 134.959 14.43 134.731C14.3751 131.765 15.9245 129.166 17.3669 126.69C18.766 124.289 20.2142 121.772 20.3182 118.922V118.924Z" fill="#303030"/>
<g clip-path="url(#clip0_168_217)">
<path d="M4.04647 27.1374C3.39789 27.4004 6.60384 38.5891 12.827 41.5906C13.1366 41.7399 14.9304 42.6057 15.1704 42.2821C15.4573 41.8948 13.3321 40.06 12.092 38.878C5.98044 33.046 4.52136 26.9445 4.04647 27.1374Z" fill="white"/>
</g>
<g clip-path="url(#clip1_168_217)">
<path d="M28.0579 9.7685C28.3844 10.4976 28.7922 12.0087 28.0579 12.6824C27.2811 13.3953 25.5767 12.8447 24.6972 11.8761C23.4419 10.4909 23.5685 7.91924 24.5573 7.3903C25.5061 6.88301 27.3543 8.19791 28.0579 9.7685Z" fill="white"/>
<path d="M29.7623 17.8677C30.4762 17.8677 31.0549 17.2802 31.0549 16.5555C31.0549 15.8307 30.4762 15.2433 29.7623 15.2433C29.0484 15.2433 28.4697 15.8307 28.4697 16.5555C28.4697 17.2802 29.0484 17.8677 29.7623 17.8677Z" fill="white"/>
</g>
<defs>
<clipPath id="clip0_168_217">
<rect width="11.2321" height="15.2206" fill="white" transform="translate(3.96429 27.1324)"/>
</clipPath>
<clipPath id="clip1_168_217">
<rect width="7.26786" height="10.5882" fill="white" transform="translate(23.7857 7.27942)"/>
</clipPath>
</defs>
</svg>
