<svg width="56" height="204" viewBox="0 0 56 204" fill="none" xmlns="http://www.w3.org/2000/svg">
<path d="M31.2156 72.6837C31.2156 72.6837 33.1056 75.6031 32.2787 76.3559C31.4562 77.1044 28.4637 77.3539 25.8912 77.1438C23.3187 76.9337 22.7106 76.5616 22.7631 75.9095C22.8156 75.2617 24.1412 71.4494 25.1825 71.2087C26.2194 70.9679 30.2444 70.8322 31.2112 72.6837H31.2156Z" fill="#ECD763"/>
<path d="M0.16185 35.0553C0.00434998 52.9351 13.7769 72.5218 27.6587 72.6443C36.7369 72.7231 46.3137 63.943 51.625 52.725C51.6381 52.6987 51.6512 52.6768 51.6644 52.6506C51.6644 52.6418 51.6687 52.6374 51.6731 52.633C51.6731 52.6199 51.6775 52.6155 51.6819 52.6068V52.598C54.2106 47.2319 55.755 41.3143 55.8075 35.5543C55.965 17.6746 43.6406 3.0732 28.2712 2.93752C21.7656 2.88062 15.7544 5.42361 10.9769 9.73925C4.47123 15.6131 0.249346 24.7565 0.157471 35.0641L0.16185 35.0553Z" fill="#ECD763"/>
<path d="M30.7519 179.708C30.9094 175.362 29.2906 171.23 28.5863 166.998C28.2188 164.792 28.105 162.516 28.6738 160.331C29.26 158.073 30.4631 156.046 31.6925 154.086C32.8694 152.212 34.1119 150.361 34.9869 148.321C35.8181 146.378 36.225 144.303 36.1244 142.189C35.9231 137.93 33.8538 133.991 31.4956 130.538C29.0238 126.922 26.0094 123.723 23.5375 120.103C21.1225 116.571 19.0881 112.496 19.2019 108.11C19.3331 103.099 22.2513 98.8314 24.675 94.6427C25.8825 92.5593 26.9981 90.4233 27.7594 88.1298C28.5556 85.7313 29.0194 83.2189 29.12 80.6891C29.1681 79.4854 29.1331 78.2818 29.0238 77.0869C28.9931 76.7455 28.4506 76.7367 28.4813 77.0869C28.9581 82.3348 27.8688 87.5171 25.4275 92.1785C23.205 96.4197 20.1425 100.363 19.0444 105.108C17.01 113.901 23.5288 121.145 28.5688 127.496C31.3163 130.958 33.9763 134.779 35.1006 139.117C35.6344 141.174 35.77 143.327 35.35 145.415C34.8775 147.743 33.7094 149.844 32.4713 151.84C31.3031 153.722 30.0431 155.561 29.1069 157.574C28.2013 159.526 27.7156 161.601 27.7375 163.759C27.7856 168.122 29.4613 172.241 30.0388 176.53C30.3363 178.736 30.275 180.947 29.6713 183.096C29.0806 185.197 28.0963 187.166 27.0375 189.066C24.9944 192.716 22.5006 196.288 21.6038 200.442C21.385 201.466 21.2844 202.503 21.3019 203.545C21.3063 203.891 21.8488 203.939 21.84 203.593C21.7569 199.111 24.1019 195.185 26.285 191.443C28.4025 187.814 30.5944 184.011 30.7519 179.704V179.708Z" fill="#303030"/>
<g clip-path="url(#clip0_168_255)">
<path d="M6.1244 41.0076C5.14278 41.405 9.99502 58.3124 19.4138 62.848C19.8824 63.0736 22.5974 64.3819 22.9606 63.8929C23.3949 63.3077 20.1783 60.5351 18.3014 58.7489C9.05149 49.9362 6.84316 40.7162 6.1244 41.0076Z" fill="white"/>
</g>
<g clip-path="url(#clip1_168_255)">
<path d="M42.4661 14.7614C42.9602 15.8632 43.5774 18.1466 42.4661 19.1646C41.2903 20.2419 38.7107 19.4099 37.3795 17.9463C35.4797 15.853 35.6713 11.967 37.1678 11.1677C38.6038 10.4011 41.4012 12.3881 42.4661 14.7614Z" fill="white"/>
<path d="M45.0457 27C46.1261 27 47.002 26.1122 47.002 25.0171C47.002 23.922 46.1261 23.0342 45.0457 23.0342C43.9652 23.0342 43.0893 23.922 43.0893 25.0171C43.0893 26.1122 43.9652 27 45.0457 27Z" fill="white"/>
</g>
<defs>
<clipPath id="clip0_168_255">
<rect width="17" height="23" fill="white" transform="translate(6 41)"/>
</clipPath>
<clipPath id="clip1_168_255">
<rect width="11" height="16" fill="white" transform="translate(36 11)"/>
</clipPath>
</defs>
</svg>
