<svg width="84" height="62" viewBox="0 0 84 62" fill="none" xmlns="http://www.w3.org/2000/svg">
<g clip-path="url(#clip0_297_1202)">
<path d="M0 1.08945C1.39104 1.46845 5.25504 2.7205 8.064 6.50371C12.6067 12.6286 10.3219 19.9378 10.08 20.6688C11.2022 21.0071 13.5274 21.8734 15.456 24.1C18.816 27.9712 18.2515 32.7764 18.144 33.575C18.9773 34.069 20.449 35.0978 21.504 36.9589C23.5267 40.5188 22.391 44.2072 22.176 44.8637C22.4851 44.9179 24.4003 45.2833 25.536 47.1106C26.4566 48.5928 26.2685 50.0952 26.208 50.4945C26.7926 51.0224 27.6125 51.9022 28.224 53.2017C29.3328 55.5501 29.0506 57.7564 28.896 58.6159C29.7898 59.7462 30.6902 60.8696 31.584 61.9998L37.632 59.2927C37.753 58.3791 38.1427 56.4164 39.648 54.5552C41.8723 51.8143 44.9232 51.2796 45.696 51.1713C45.7699 46.9144 47.8195 43.2124 51.072 41.6964C52.8931 40.8436 54.6672 40.8775 55.776 41.0196C55.6685 40.4714 54.936 36.3498 57.792 32.8982C61.105 28.8917 66.192 29.4669 66.528 29.5143C67.1866 28.1337 68.927 24.9866 72.576 22.7465C77.616 19.6536 82.7098 20.4725 84 20.7161C82.9315 19.4032 77.8176 13.4407 69.216 12.5947C57.073 11.4036 49.439 21.5418 49.056 22.0697C49.2979 25.413 49.3517 32.8373 45.024 40.3428C43.1021 43.6793 40.8442 46.109 38.976 47.7874C38.0822 46.6572 37.1818 45.5337 36.288 44.4035L32.928 45.7571C31.6714 44.4644 28.3853 40.7489 27.552 34.9286C26.4096 26.9425 30.7507 21.1222 31.584 20.0393C31.295 18.6587 28.7818 7.66101 18.144 2.44302C9.77088 -1.66505 1.87488 0.514188 0 1.08945Z" fill="#231F20"/>
</g>
<defs>
<clipPath id="clip0_297_1202">
<rect width="84" height="62" fill="white"/>
</clipPath>
</defs>
</svg>
