<svg width="382" height="180" viewBox="0 0 382 180" fill="none" xmlns="http://www.w3.org/2000/svg">
<path d="M351.724 136.964C350.998 139.684 345.86 157.696 327.574 166.52C312.945 173.562 299.254 170.207 295.687 169.21H253.373C246.995 172.323 236.417 176.463 222.786 177.279C203.925 178.397 189.418 172.565 182.496 169.21C178.023 172.323 166.568 179.425 150.247 179.969C131.628 180.573 118.42 172.202 114.128 169.21C112.315 170.449 92.1849 183.505 69.6374 174.589C53.2557 168.092 46.1831 154.22 44.5208 150.745C29.6805 149.929 14.8403 149.143 0 148.327C12.3316 142.313 24.6331 136.299 36.9647 130.285C33.2169 119.163 37.4482 107.075 46.8179 101.182C54.9181 96.1046 65.5873 96.437 73.8387 102.088C78.2817 98.9454 85.9587 94.382 96.5373 92.2363C103.58 90.8159 109.685 90.9065 114.158 91.3296C114.642 79.5735 121.322 69.1774 131.477 64.4628C143.295 58.9625 154.508 63.6771 156.291 64.4628C156.926 60.7758 158.891 52.5858 165.51 44.7585C171.766 37.3543 179.02 34.0601 182.526 32.7002C186.516 28.1972 200.328 13.7514 222.816 10.7292C235.087 9.09727 245.182 11.4848 251.106 13.4189C256.849 9.55059 272.807 -0.090029 295.355 0.000635098C317.57 0.0912992 333.287 9.55059 339.059 13.4189C340.51 13.7211 356.348 17.4686 362.544 32.7002C367.078 43.8821 363.481 54.0062 362.544 56.3937C380.286 71.4742 386.512 94.6238 378.654 112.817C371.521 129.348 355.441 135.664 351.754 136.994L351.724 136.964Z" fill="white"/>
</svg>
