<svg width="240" height="113" viewBox="0 0 240 113" fill="none" xmlns="http://www.w3.org/2000/svg">
<path d="M19.0219 85.9829C19.4776 87.6904 22.7057 98.9979 34.1943 104.538C43.3851 108.958 51.9872 106.852 54.2279 106.226H80.8129C84.8196 108.18 91.4659 110.78 100.03 111.292C111.879 111.994 120.994 108.332 125.343 106.226C128.153 108.18 135.35 112.639 145.604 112.98C157.302 113.36 165.6 108.105 168.296 106.226C169.436 107.004 182.083 115.2 196.249 109.603C206.541 105.524 210.984 96.8161 212.029 94.6343C221.353 94.122 230.676 93.6287 240 93.1165C232.252 89.341 224.524 85.5655 216.776 81.79C219.131 74.8082 216.472 67.2193 210.586 63.5197C205.497 60.3323 198.793 60.541 193.609 64.0888C190.818 62.1157 185.995 59.2509 179.348 57.9039C174.924 57.0122 171.088 57.0691 168.277 57.3347C167.974 49.9545 163.777 43.428 157.397 40.4683C149.972 37.0154 142.927 39.975 141.806 40.4683C141.408 38.1537 140.173 33.0122 136.015 28.0984C132.084 23.4502 127.527 21.3822 125.324 20.5284C122.817 17.7016 114.139 8.6328 100.011 6.73557C92.3015 5.71106 85.959 7.20988 82.2371 8.4241C78.6291 5.99565 68.6029 -0.0565182 54.4369 0.000398701C40.4798 0.0573156 30.6053 5.99565 26.9784 8.4241C26.0669 8.61383 16.1165 10.9664 12.2237 20.5284C9.37526 27.5482 11.635 33.9039 12.2237 35.4027C1.07695 44.8699 -2.83475 59.4027 2.10246 70.824C6.58392 81.2019 16.6862 85.1671 19.0028 86.0019L19.0219 85.9829Z" fill="white"/>
</svg>
