<svg width="782" height="506" viewBox="0 0 782 506" fill="none" xmlns="http://www.w3.org/2000/svg">
<path opacity="0.5" d="M107 97C109.423 97.4494 114.148 98.588 118.515 101.674C124.646 105.959 126.111 111.232 126.5 113C126.65 111.562 127.487 106.079 133.588 101.674C138.403 98.1985 143.847 97.2697 146 97" stroke="#303030" stroke-width="5" stroke-linecap="round" stroke-linejoin="round"/>
<path opacity="0.73" d="M729 113.493C730.211 113.049 737.813 110.45 745.384 114.888C750.896 118.121 753.197 123.256 753.894 125C754.409 123.51 756.68 117.582 762.858 114.19C770.49 110.006 777.94 113.017 779 113.493" stroke="#303030" stroke-width="5" stroke-linecap="round" stroke-linejoin="round"/>
<path opacity="0.59" d="M703 3C699.992 4.07414 695.54 5.9155 691.329 8.95378C684.109 14.1403 682.545 19.2655 679.838 18.9893C677.07 18.7131 678.274 13.3424 672.618 8.37069C669.37 5.48587 665.128 3.92068 662 3.03068" stroke="#303030" stroke-width="5" stroke-linecap="round" stroke-linejoin="round"/>
<path opacity="0.59" d="M743 503.356C745.068 500.922 748.003 497.101 750.131 492.365C753.79 484.263 752.582 479.043 755.064 477.928C757.599 476.784 759.242 482.036 766.626 483.514C770.882 484.388 775.337 483.623 778.492 482.83" stroke="#303030" stroke-width="5" stroke-linecap="round" stroke-linejoin="round"/>
<path opacity="0.73" d="M3.43391 244.962C4.46399 244.186 10.9816 239.489 19.5159 241.534C25.7296 243.026 29.4246 247.271 30.5979 248.736C30.6574 247.161 31.1076 240.829 36.0329 235.788C42.1188 229.566 50.1225 230.281 51.2749 230.428" stroke="#303030" stroke-width="5" stroke-linecap="round" stroke-linejoin="round"/>
</svg>
