<svg width="320" height="526" viewBox="0 0 320 526" fill="none" xmlns="http://www.w3.org/2000/svg">
<path opacity="0.14" d="M-308.649 65.4979C-303.378 81.0916 -239.865 55.7078 -160.427 66.7309C-83.6015 77.3925 -89.3451 108.571 -13.4369 114.94C16.5596 117.461 73.1526 122.208 128.606 96.3979C141.807 90.2605 151.238 84.1046 169.367 80.3314C178.928 78.3381 221.68 69.4287 262.006 90.2234C276.847 97.872 281.358 104.389 292.883 103.824C311.938 102.878 331.652 83.4927 328.706 70.4485C325.982 58.3685 304.323 53.9834 287.945 50.6737C270.529 47.1507 262.015 48.7268 244.71 48.1983C202.717 46.9189 200.123 36.007 171.831 37.0732C162.558 37.4255 157.676 38.7883 106.364 58.0904C37.6534 83.9377 39.2097 84.1973 32.2526 85.282C18.2827 87.47 -24.8315 92.1796 -66.5652 71.6816C-83.5459 63.347 -89.5952 56.0879 -109.8 50.6644C-130.523 45.1111 -151.182 45.4912 -160.445 45.723C-174.239 46.066 -173.026 47.3176 -188.858 48.1983C-220.818 49.9598 -249.879 46.1587 -253.084 45.723C-276.17 42.5987 -283.896 38.9923 -293.845 44.4899C-301.923 48.9493 -310.844 59.0546 -308.667 65.5071L-308.649 65.4979Z" fill="white"/>
<path opacity="0.27" d="M-412.573 133.541C-405.671 140.947 -322.547 128.891 -218.569 134.124C-118.019 139.187 -125.533 153.992 -26.1867 157.022C13.0772 158.217 87.1396 160.476 159.729 148.213C176.998 145.295 189.348 142.378 213.075 140.58C225.592 139.63 281.542 135.404 334.323 145.277C353.742 148.91 359.653 152.006 374.736 151.733C399.667 151.281 425.47 142.077 421.615 135.884C418.049 130.152 389.698 128.063 368.269 126.491C345.478 124.816 334.323 125.569 311.689 125.315C256.731 124.712 253.34 119.527 216.309 120.035C204.172 120.204 197.779 120.854 130.628 130.011C40.7047 142.284 42.7244 142.406 33.6265 142.924C15.3471 143.959 -41.0938 146.199 -95.7094 136.467C-117.936 132.505 -125.848 129.061 -152.289 126.491C-179.407 123.856 -206.451 124.035 -218.569 124.138C-236.626 124.298 -235.042 124.901 -255.749 125.315C-297.579 126.152 -335.62 124.345 -339.817 124.138C-370.039 122.661 -380.137 120.948 -393.163 123.555C-403.734 125.672 -415.417 130.472 -412.564 133.531L-412.573 133.541Z" fill="white"/>
<circle cx="291" r="150" fill="url(#paint0_radial_181_40)"/>
<path opacity="0.73" d="M299 118.804C299.654 118.565 303.759 117.165 307.847 119.555C310.824 121.296 312.067 124.061 312.443 125C312.721 124.198 313.947 121.006 317.283 119.179C321.405 116.926 325.428 118.548 326 118.804" stroke="black" stroke-width="3" stroke-linecap="round" stroke-linejoin="round"/>
<path opacity="0.73" d="M4 389.804C4.65415 389.565 8.75893 388.165 12.8474 390.555C15.8237 392.296 17.0666 395.061 17.4428 396C17.7208 395.198 18.9473 392.006 22.2835 390.179C26.4046 387.926 30.4276 389.548 31 389.804" stroke="black" stroke-width="3" stroke-linecap="round" stroke-linejoin="round"/>
<path d="M104.986 132H-67.7262C-74.488 125.715 -74.8304 115.124 -68.4887 108.415L-67.7262 107.609C-67.5237 106.495 -66.5245 101.62 -61.9745 98.1836C-56.9249 94.3809 -51.3487 95.2501 -50.4036 95.4131C-48.7159 87.1695 -41.56 81.1667 -33.3106 81.0038C-24.8045 80.8272 -17.2301 86.8979 -15.4884 95.4131C-14.5973 94.9513 -11.681 93.5796 -7.95451 94.2994C-3.37746 95.1958 -1.00118 98.6046 -0.54213 99.2836C0.592003 98.7404 4.62899 96.9613 9.6786 98.17C15.0657 99.4738 17.9281 103.29 18.6302 104.268C20.4124 103.697 24.0308 102.801 28.4323 103.711C35.0076 105.083 38.7611 109.564 39.8142 110.922C41.8934 113.326 43.9862 115.73 46.0654 118.134C46.7135 117.604 50.6425 114.521 55.9891 115.363C60.4582 116.07 64.2386 119.261 65.9128 123.675C66.2909 123.498 68.7887 122.425 71.4215 123.675C73.6087 124.707 75.0399 126.948 75.1749 129.474C77.7402 129.528 80.3461 129.637 83.0059 129.786C90.7693 130.221 98.1142 130.995 105 132H104.986Z" fill="white"/>
<path d="M359.123 367.328C358.91 368.129 357.404 373.433 352.043 376.031C347.754 378.104 343.739 377.117 342.694 376.823H330.287C328.418 377.74 325.316 378.959 321.319 379.199C315.79 379.528 311.536 377.811 309.507 376.823C308.195 377.74 304.837 379.831 300.051 379.991C294.593 380.169 290.72 377.704 289.462 376.823C288.93 377.188 283.028 381.032 276.417 378.407C271.614 376.494 269.541 372.409 269.053 371.386C264.702 371.146 260.351 370.914 256 370.674C259.616 368.903 263.222 367.132 266.838 365.362C265.739 362.087 266.98 358.528 269.727 356.792C272.102 355.297 275.23 355.395 277.649 357.059C278.952 356.134 281.203 354.79 284.304 354.158C286.369 353.74 288.159 353.767 289.471 353.891C289.612 350.43 291.571 347.369 294.548 345.981C298.013 344.361 301.301 345.749 301.824 345.981C302.01 344.895 302.586 342.484 304.526 340.179C306.361 337.999 308.488 337.029 309.516 336.628C310.685 335.303 314.735 331.049 321.328 330.159C324.926 329.679 327.886 330.382 329.623 330.951C331.306 329.812 335.985 326.973 342.596 327C349.109 327.027 353.718 329.812 355.41 330.951C355.835 331.04 360.479 332.144 362.296 336.628C363.625 339.921 362.57 342.902 362.296 343.605C367.497 348.045 369.323 354.861 367.019 360.218C364.927 365.086 360.213 366.946 359.132 367.337L359.123 367.328Z" fill="white"/>
<path d="M-36.4773 508.068C-36.1772 509.202 -34.052 516.707 -26.4888 520.383C-20.4382 523.317 -14.7751 521.92 -13.2999 521.504H4.20183C6.83959 522.801 11.215 524.526 16.8531 524.866C24.6539 525.332 30.6545 522.902 33.5173 521.504C35.3675 522.801 40.1055 525.76 46.8562 525.987C54.5569 526.239 60.02 522.751 61.7952 521.504C62.5453 522.02 70.8712 527.46 80.1971 523.746C86.9728 521.038 89.8981 515.258 90.5857 513.81C96.7238 513.47 102.862 513.143 109 512.803C103.899 510.297 98.8115 507.791 93.7109 505.285C95.2611 500.651 93.5109 495.615 89.6355 493.159C86.2852 491.044 81.8723 491.182 78.4594 493.537C76.6217 492.227 73.4464 490.326 69.0709 489.432C66.1581 488.84 63.6329 488.878 61.7827 489.054C61.5827 484.156 58.8199 479.824 54.6195 477.86C49.7315 475.568 45.0935 477.532 44.3559 477.86C44.0934 476.323 43.2808 472.911 40.543 469.649C37.9553 466.564 34.955 465.192 33.5048 464.625C31.8546 462.749 26.1416 456.73 16.8407 455.471C11.7652 454.791 7.58967 455.785 5.13942 456.591C2.76418 454.979 -3.83643 450.962 -13.1624 451C-22.3508 451.038 -28.8515 454.979 -31.2392 456.591C-31.8393 456.717 -38.39 458.279 -40.9528 464.625C-42.8279 469.284 -41.3403 473.503 -40.9528 474.497C-48.291 480.781 -50.8662 490.427 -47.6159 498.007C-44.6656 504.895 -38.015 507.527 -36.4898 508.081L-36.4773 508.068Z" fill="white"/>
<defs>
<radialGradient id="paint0_radial_181_40" cx="0" cy="0" r="1" gradientUnits="userSpaceOnUse" gradientTransform="translate(291 1.32259e-05) rotate(-43.1672) scale(156.983)">
<stop stop-color="white"/>
<stop offset="1" stop-color="white" stop-opacity="0"/>
</radialGradient>
</defs>
</svg>
