<svg width="36" height="166" viewBox="0 0 36 166" fill="none" xmlns="http://www.w3.org/2000/svg">
<path d="M35.4221 126.945C35.3121 128.606 35.0607 130.361 33.6625 131.443C33.034 131.928 32.2485 132.179 31.4943 132.414C30.5988 132.696 29.6875 132.962 28.7763 133.245C27.8965 133.495 27.0324 133.746 26.1368 133.965C25.8069 134.044 25.4927 134.122 25.1627 134.169C25.3041 134.576 25.3827 135.015 25.3984 135.438C26.3253 135.564 27.2366 135.767 28.1321 135.971C29.1691 136.206 30.206 136.551 31.0701 137.193C31.9185 137.82 32.4841 138.729 32.6255 139.779C32.7983 140.954 32.4841 142.129 32.1542 143.242C31.4629 145.718 30.7402 148.178 30.0175 150.638C29.2948 153.129 28.5406 155.621 27.7551 158.097C27.378 159.287 26.9852 160.478 26.5924 161.654C26.3725 162.28 26.1682 162.907 25.9483 163.518C25.744 164.098 25.6026 164.693 25.1784 165.148C24.9271 165.414 24.5029 165.226 24.4714 164.882C24.4086 164.176 24.7542 163.518 24.9742 162.876C25.1941 162.249 25.3984 161.622 25.6183 161.011C26.0425 159.726 26.4668 158.457 26.8752 157.172C28.3364 152.597 29.6404 147.99 30.7402 143.304C30.9916 142.255 31.3372 141.111 31.1801 140.014C31.0544 139.152 30.4888 138.494 29.7504 138.071C28.3992 137.287 26.8438 136.99 25.3513 136.551C25.3041 136.849 25.2256 137.131 25.1156 137.428C24.5186 139.121 24.0315 140.594 23.513 141.816C22.3976 144.401 21.0935 145.921 18.187 146.015C13.8978 146.156 12.2324 143.336 10.1429 137.914C10.0486 137.945 9.95433 137.961 9.86006 138.008C9.42015 138.149 8.96453 138.274 8.54033 138.416C7.0949 138.901 5.66519 139.34 4.21976 139.81C4.04694 141.863 4.92677 143.869 5.85372 145.655C7.61337 149.071 9.54584 152.408 11.6197 155.652C12.6566 157.297 13.7407 158.911 14.8562 160.494C15.4218 161.293 15.9874 162.108 16.5687 162.907C17.1186 163.659 17.7942 164.396 18.2027 165.242C18.4384 165.743 17.9042 166.245 17.4486 165.869C16.6001 165.148 15.9874 164.114 15.3433 163.236C14.6677 162.312 13.9921 161.372 13.3479 160.431C11.0384 157.125 8.88598 153.693 6.87495 150.199C5.88515 148.475 4.87963 146.736 4.04694 144.918C3.19854 143.085 2.63294 141.158 2.94716 139.136C2.99429 138.901 3.19854 138.698 3.41849 138.635C5.00532 138.149 6.59215 137.663 8.17897 137.193C8.65031 137.052 9.13736 136.896 9.6244 136.739C9.70296 136.723 9.78151 136.692 9.86006 136.661C9.81293 136.237 9.82864 135.814 9.89149 135.391C9.84435 135.376 9.79722 135.36 9.75009 135.329C8.9174 134.984 8.10041 134.576 7.29915 134.153C5.79088 133.37 4.31403 132.492 2.90003 131.552C2.20874 131.098 1.48602 130.659 0.841867 130.142C0.166287 129.594 -0.0850916 128.857 0.0248865 128.011C0.244843 126.35 0.669045 124.673 1.12467 123.059C1.596 121.445 2.14589 119.831 2.94716 118.343C3.16712 117.935 3.81127 118.186 3.7013 118.625C3.19854 120.521 2.63294 122.37 2.27158 124.297C2.08305 125.269 1.89452 126.272 1.81596 127.274C1.80025 127.619 1.69027 128.105 1.78454 128.434C1.8788 128.732 2.25587 128.935 2.50725 129.108C4.10978 130.22 5.75945 131.27 7.44055 132.304C8.24182 132.806 9.04309 133.307 9.86006 133.793C9.97004 133.856 10.0643 133.918 10.1586 133.981C10.2057 133.997 10.2528 134.028 10.2843 134.059C10.8184 132.868 11.2112 130.941 12.0596 129.985C12.0596 129.985 12.0439 129.97 12.0282 129.954C10.6613 128.387 10.2843 127.697 9.04308 126.005C8.02186 124.611 6.79639 122.981 7.06348 121.132C7.18917 120.254 7.67622 119.377 8.03757 118.562C8.44606 117.638 8.83884 116.713 9.26304 115.789C10.08 113.924 10.9598 112.059 11.7925 110.195C12.6095 108.361 13.3165 106.465 14.3692 104.741C14.542 104.459 15.029 104.616 14.9348 104.961C14.3377 107.029 13.3637 108.957 12.531 110.931C11.7925 112.702 11.0541 114.472 10.3 116.227C9.9072 117.136 9.53013 118.029 9.13735 118.923C8.76029 119.784 8.47748 120.583 8.47748 121.555C8.47748 123.232 9.86006 124.705 10.7556 126.005C11.6983 127.321 12.2639 127.917 13.0023 128.591C13.0808 128.653 13.1751 128.732 13.2537 128.81C13.7093 128.371 14.5891 126.757 15.6418 125.817C16.0974 125.41 16.5844 125.143 17.0872 125.143C18.1241 125.143 18.7212 125.566 19.5224 126.397C20.0723 126.961 20.7322 127.729 21.7063 128.7C21.7377 128.716 21.7534 128.747 21.7691 128.747C23.0889 127.149 23.6859 126.82 25.0213 125.237C26.1368 123.905 27.0166 122.385 26.8752 120.599C26.7181 118.656 25.6341 116.854 24.7385 115.162C23.7644 113.313 22.7589 111.495 21.722 109.693C20.685 107.922 19.5853 106.167 18.6583 104.35C18.4541 103.942 18.9725 103.613 19.2553 103.974C20.7479 105.948 21.9576 108.142 23.1988 110.289C24.2829 112.169 25.3827 114.049 26.4196 115.961C27.378 117.732 28.305 119.675 28.1164 121.743C27.9436 123.561 26.8595 125.096 25.6969 126.428C24.4871 127.807 23.7958 128.575 22.4761 129.829C23.5288 130.957 23.8587 131.772 24.5029 132.712C24.8799 132.539 25.2727 132.383 25.6655 132.242C26.561 131.928 27.4566 131.631 28.3521 131.333C29.1848 131.051 30.0175 130.784 30.8502 130.502C31.4315 130.314 32.1071 130.158 32.5627 129.735C33.0183 129.343 33.254 128.685 33.4425 128.136C33.6939 127.384 33.8824 126.632 33.9767 125.848C34.1652 124.25 33.9924 122.605 33.7096 121.022C33.4268 119.44 33.0026 117.873 32.8612 116.259C32.8298 115.93 33.3639 115.742 33.5053 116.055C34.3537 117.841 34.8251 119.816 35.1393 121.759C35.4221 123.467 35.5792 125.206 35.4692 126.93L35.4221 126.945Z" fill="#231F20"/>
<path d="M20.7635 145.435C20.8106 143.618 19.3809 142.113 17.5741 142.066C15.7516 142.019 14.2434 143.445 14.1962 145.247C14.1648 146.548 14.8875 147.676 15.9716 148.24C15.9559 148.303 15.9245 148.381 15.9245 148.444C15.8616 148.851 15.9245 149.259 16.0816 149.635C16.223 149.98 16.4744 150.371 16.8514 150.481C16.9928 150.528 17.1813 150.387 17.1185 150.23C17.0242 149.948 16.8357 149.729 16.7571 149.431C16.71 149.29 16.6943 149.149 16.6943 149.008C16.6943 148.851 16.6943 148.742 16.7257 148.616C16.7257 148.585 16.7414 148.554 16.7571 148.538C16.9614 148.585 17.1814 148.616 17.4013 148.616C17.9355 148.616 18.4225 148.522 18.8782 148.303C18.8782 148.522 18.8782 148.757 18.8467 148.945C18.7996 149.165 18.7368 149.384 18.6425 149.588C18.5954 149.698 18.5325 149.792 18.4697 149.886C18.3911 149.995 18.2968 150.105 18.2811 150.246C18.2811 150.356 18.3754 150.481 18.5011 150.481C18.7682 150.465 18.941 150.183 19.0824 149.98C19.2238 149.776 19.3495 149.541 19.4123 149.29C19.4909 149.055 19.5223 148.804 19.538 148.554C19.538 148.381 19.538 148.115 19.4595 147.927C20.2293 147.347 20.7321 146.438 20.7635 145.404V145.435Z" fill="#231F20"/>
<path d="M18.1653 -1.79883L18.1653 128.249" stroke="#231F20" stroke-linecap="round" stroke-linejoin="round"/>
<path d="M18.1653 135.087L18.1653 142.61" stroke="#231F20" stroke-linecap="round" stroke-linejoin="round"/>
</svg>
