<svg width="169" height="108" viewBox="0 0 169 108" fill="none" xmlns="http://www.w3.org/2000/svg">
<g opacity="0.5">
<path d="M100.674 92.1137C100.629 92.7893 100.527 93.5032 99.9578 93.943C99.7022 94.1406 99.3826 94.2426 99.0759 94.3382C98.7116 94.4529 98.3409 94.5613 97.9703 94.676C97.6124 94.778 97.2609 94.88 96.8966 94.9692C96.7624 95.0011 96.6346 95.033 96.5004 95.0521C96.5579 95.2178 96.5898 95.3963 96.5962 95.5684C96.9733 95.6194 97.344 95.7022 97.7082 95.7851C98.13 95.8807 98.5518 96.0209 98.9033 96.2823C99.2484 96.5372 99.4785 96.9069 99.536 97.334C99.6063 97.812 99.4785 98.2901 99.3443 98.7426C99.0631 99.7497 98.7691 100.75 98.4751 101.751C98.1812 102.765 97.8744 103.778 97.5549 104.785C97.4015 105.27 97.2417 105.754 97.0819 106.232C96.9925 106.487 96.9094 106.742 96.8199 106.991C96.7368 107.226 96.6793 107.469 96.5068 107.653C96.4045 107.762 96.232 107.685 96.2192 107.545C96.1936 107.258 96.3342 106.991 96.4237 106.729C96.5132 106.474 96.5962 106.219 96.6857 105.971C96.8583 105.448 97.0308 104.932 97.197 104.409C97.7913 102.548 98.3218 100.674 98.7691 98.7681C98.8714 98.3411 99.012 97.8758 98.9481 97.4296C98.8969 97.079 98.6669 96.8113 98.3665 96.6392C97.8169 96.3205 97.1842 96.1994 96.5771 96.0209C96.5579 96.142 96.5259 96.2568 96.4812 96.3779C96.2383 97.0663 96.0402 97.6654 95.8293 98.1626C95.3756 99.2143 94.8451 99.8326 93.6628 99.8708C91.9181 99.9282 91.2407 98.7809 90.3907 96.5755C90.3524 96.5882 90.314 96.5946 90.2757 96.6137C90.0967 96.6711 89.9114 96.7221 89.7389 96.7794C89.1509 96.977 88.5693 97.1555 87.9814 97.3467C87.9111 98.1817 88.269 98.9976 88.646 99.7242C89.3618 101.114 90.1479 102.471 90.9915 103.791C91.4133 104.46 91.8542 105.117 92.308 105.76C92.538 106.085 92.7681 106.417 93.0046 106.742C93.2283 107.048 93.5031 107.347 93.6692 107.692C93.7651 107.896 93.5478 108.1 93.3625 107.947C93.0174 107.653 92.7681 107.233 92.5061 106.876C92.2313 106.5 91.9565 106.117 91.6945 105.735C90.755 104.39 89.8795 102.994 89.0614 101.573C88.6588 100.872 88.2498 100.164 87.9111 99.4246C87.566 98.6789 87.3359 97.8949 87.4637 97.0726C87.4829 96.977 87.566 96.8942 87.6554 96.8687C88.3009 96.6711 88.9464 96.4735 89.5919 96.2823C89.7836 96.2249 89.9817 96.1612 90.1798 96.0974C90.2118 96.091 90.2437 96.0783 90.2757 96.0656C90.2565 95.8935 90.2629 95.7214 90.2885 95.5493C90.2693 95.5429 90.2501 95.5365 90.231 95.5238C89.8922 95.3835 89.5599 95.2178 89.234 95.0457C88.6205 94.727 88.0197 94.3701 87.4445 93.9876C87.1633 93.8028 86.8694 93.6243 86.6073 93.414C86.3325 93.1909 86.2303 92.8913 86.275 92.5471C86.3645 91.8715 86.537 91.1895 86.7224 90.533C86.9141 89.8764 87.1378 89.2199 87.4637 88.6144C87.5532 88.4487 87.8152 88.5507 87.7705 88.7291C87.566 89.5004 87.3359 90.2525 87.1889 91.0365C87.1122 91.4317 87.0355 91.8396 87.0036 92.2476C86.9972 92.3878 86.9524 92.5854 86.9908 92.7192C87.0291 92.8403 87.1825 92.9232 87.2848 92.9933C87.9366 93.4459 88.6077 93.8729 89.2915 94.2936C89.6174 94.4976 89.9434 94.7015 90.2757 94.8991C90.3204 94.9246 90.3588 94.9501 90.3971 94.9756C90.4163 94.982 90.4355 94.9947 90.4482 95.0075C90.6655 94.5231 90.8253 93.7391 91.1704 93.3502C91.1704 93.3502 91.164 93.3439 91.1576 93.3375C90.6016 92.7001 90.4482 92.4196 89.9434 91.7313C89.528 91.164 89.0295 90.5011 89.1381 89.749C89.1892 89.392 89.3874 89.0351 89.5343 88.7036C89.7005 88.3276 89.8603 87.9515 90.0328 87.5754C90.3652 86.8169 90.723 86.0584 91.0618 85.2999C91.3941 84.5542 91.6817 83.7829 92.1099 83.0818C92.1802 82.9671 92.3783 83.0308 92.3399 83.171C92.0971 84.0124 91.7008 84.7964 91.3621 85.5995C91.0618 86.3198 90.7614 87.04 90.4546 87.7539C90.2949 88.1236 90.1415 88.4869 89.9817 88.8502C89.8283 89.2008 89.7133 89.5259 89.7133 89.9211C89.7133 90.6031 90.2757 91.2022 90.64 91.7313C91.0234 92.2667 91.2535 92.5089 91.5539 92.783C91.5858 92.8085 91.6242 92.8403 91.6561 92.8722C91.8414 92.6937 92.1993 92.0372 92.6275 91.6548C92.8129 91.489 93.011 91.3807 93.2155 91.3807C93.6373 91.3807 93.8801 91.5528 94.2061 91.8906C94.4297 92.1201 94.6982 92.4324 95.0944 92.8276C95.1072 92.834 95.1136 92.8467 95.12 92.8467C95.6568 92.1966 95.8996 92.0627 96.4429 91.4189C96.8966 90.8771 97.2545 90.2589 97.197 89.5322C97.1331 88.7419 96.6921 88.0089 96.3278 87.3205C95.9316 86.5684 95.5226 85.829 95.1008 85.096C94.679 84.3757 94.2316 83.6618 93.8546 82.9224C93.7715 82.7567 93.9824 82.6229 94.0974 82.7695C94.7045 83.5726 95.1966 84.4649 95.7015 85.3382C96.1425 86.1031 96.5898 86.8679 97.0116 87.6456C97.4015 88.3658 97.7785 89.1562 97.7019 89.9975C97.6316 90.7369 97.1906 91.3616 96.7177 91.9034C96.2256 92.4643 95.9444 92.7766 95.4075 93.2865C95.8357 93.7454 95.9699 94.0769 96.232 94.4593C96.3853 94.3892 96.5451 94.3255 96.7049 94.2681C97.0692 94.1406 97.4334 94.0195 97.7977 93.8984C98.1364 93.7837 98.4751 93.6753 98.8139 93.5606C99.0503 93.4841 99.3251 93.4204 99.5105 93.2483C99.6958 93.0889 99.7917 92.8212 99.8684 92.5981C99.9706 92.2922 100.047 91.9862 100.086 91.6675C100.162 91.0174 100.092 90.3481 99.977 89.7043C99.862 89.0606 99.6894 88.4232 99.6319 87.7667C99.6191 87.6328 99.8364 87.5563 99.8939 87.6838C100.239 88.4104 100.431 89.2135 100.559 90.0039C100.674 90.6987 100.738 91.4062 100.693 92.1073L100.674 92.1137Z" fill="#0A0A0A"/>
<path d="M94.711 99.6349C94.7301 98.8955 94.1486 98.2836 93.4136 98.2645C92.6723 98.2454 92.0588 98.8254 92.0396 99.5584C92.0268 100.087 92.3208 100.546 92.7617 100.776C92.7554 100.801 92.7426 100.833 92.7426 100.859C92.717 101.024 92.7426 101.19 92.8065 101.343C92.864 101.483 92.9663 101.643 93.1196 101.687C93.1772 101.706 93.2538 101.649 93.2283 101.585C93.1899 101.471 93.1132 101.381 93.0813 101.26C93.0621 101.203 93.0557 101.146 93.0557 101.088C93.0557 101.024 93.0557 100.98 93.0685 100.929C93.0685 100.916 93.0749 100.903 93.0813 100.897C93.1644 100.916 93.2538 100.929 93.3433 100.929C93.5606 100.929 93.7587 100.891 93.9441 100.801C93.9441 100.891 93.9441 100.986 93.9313 101.063C93.9121 101.152 93.8865 101.241 93.8482 101.324C93.829 101.369 93.8035 101.407 93.7779 101.445C93.7459 101.49 93.7076 101.534 93.7012 101.592C93.7012 101.636 93.7395 101.687 93.7907 101.687C93.8993 101.681 93.9696 101.566 94.0271 101.483C94.0847 101.4 94.1358 101.305 94.1613 101.203C94.1933 101.107 94.2061 101.005 94.2125 100.903C94.2125 100.833 94.2125 100.725 94.1805 100.648C94.4937 100.413 94.6982 100.043 94.711 99.6222V99.6349Z" fill="#0A0A0A"/>
<path d="M93.2593 57.0602L93.4312 94.1069" stroke="#0A0A0A" stroke-linecap="round" stroke-linejoin="round"/>
<path d="M93.6211 95.778L93.6211 97.6176" stroke="#0A0A0A" stroke-linecap="round" stroke-linejoin="round"/>
</g>
<g opacity="0.5">
<path d="M6.68346 -7.1186C6.73212 -7.04879 6.80405 -6.9952 6.88304 -6.9811C12.4099 -4.95546 18.1025 -3.28737 23.8676 -1.91195C24.9767 4.88757 27.7734 11.4789 32.3803 18.0878C32.6236 18.4368 32.8669 18.7859 33.1498 19.142C27.5032 20.0698 22.2495 20.9658 17.8766 21.8356C17.6418 21.8956 17.5043 22.0952 17.5642 22.33C17.5734 22.3928 17.6058 22.4393 17.6383 22.4859C17.7356 22.6255 17.8865 22.6932 18.0748 22.6657C22.557 21.7542 27.9758 20.8469 33.7478 19.9008C35.3587 22.0628 37.1903 24.2439 39.1869 26.4136C39.9839 27.6561 40.8041 28.8824 41.6314 30.0692C36.5808 31.6535 31.8377 32.8852 27.7158 33.7183C27.5043 33.7621 27.3435 33.9779 27.4035 34.2127C27.4126 34.2755 27.4451 34.322 27.4775 34.3686C27.5748 34.5082 27.7258 34.5759 27.9141 34.5483C32.1382 33.7131 36.9906 32.4398 42.1738 30.7977C44.8898 34.6444 47.7553 38.1103 50.7238 41.2277C47.8784 42.9 45.0288 44.3678 42.2771 45.6289C42.0748 45.7354 41.9697 45.9815 42.0762 46.1839C42.0924 46.2072 42.1086 46.2304 42.1249 46.2537C42.2384 46.4166 42.4521 46.4751 42.6474 46.4081C45.4851 45.1216 48.3883 43.5819 51.343 41.868C56.2551 46.881 61.4761 50.8488 66.7809 53.5479C65.561 55.8159 64.803 57.2088 64.7657 57.304C64.698 57.4549 64.7093 57.6199 64.7904 57.7363C64.8228 57.7828 64.8948 57.8364 64.9505 57.8667C65.1571 57.9647 65.4152 57.8886 65.5132 57.6819C65.6719 57.3639 66.4066 55.9872 67.582 53.8539C75.7845 56.6424 84.3451 58.1093 92.9642 58.2214C92.9926 61.4865 93.0238 63.3666 93.0097 63.4456C93.0069 63.6896 93.1994 63.8666 93.4434 63.8694C93.6874 63.8722 93.2369 63.9055 93.5507 63.4718C93.1269 63.4718 93.8572 61.4371 93.8266 58.0698C95.842 56.5957 98.1197 55.25 100.521 53.7837C105.293 50.9068 110.22 47.9558 113.535 43.8816C114.138 44.8449 114.513 45.4823 114.626 45.6452L114.643 45.6685C114.772 45.8547 115.009 45.897 115.212 45.7905C115.398 45.6607 115.464 45.4075 115.357 45.2051C115.325 45.1586 114.884 44.428 114.143 43.2158C117.368 41.2445 119.795 38.377 122.162 35.6209C122.83 34.8437 123.506 34.027 124.19 33.2731C125.359 31.974 126.64 30.7356 127.897 29.5133C129.671 27.7925 131.515 26.023 133.079 23.9996C137.554 18.2173 142.269 9.95121 144.618 2.1592C145.448 1.96097 146.089 1.79026 146.48 1.65624C146.699 1.573 146.82 1.35015 146.737 1.13155C146.654 0.912941 146.431 0.791665 146.212 0.874897C145.884 0.999744 145.438 1.10344 144.882 1.24876C145.446 -0.769585 145.838 -2.73716 146.011 -4.62148C149.235 -5.90027 151.826 -7.29183 153.519 -8.78277C153.689 -8.93581 153.715 -9.19603 153.562 -9.36598C153.409 -9.53592 153.148 -9.56199 152.978 -9.40895C145.653 -2.95363 120.369 1.6004 104.39 4.02541C104.39 4.02541 104.39 4.02541 104.374 4.00214C104.223 3.93445 104.035 3.96197 103.911 4.08257C100.185 4.63997 96.9911 5.06827 94.6921 5.39143C93.939 5.50149 93.2718 5.58618 92.7303 5.65251C92.7303 5.65251 92.714 5.62924 92.6908 5.64546L92.6513 5.6384C92.6513 5.6384 92.628 5.65463 92.6118 5.63136L92.5723 5.62432L92.549 5.64054C92.549 5.64054 92.5257 5.65676 92.5095 5.63348L92.4863 5.6497L92.463 5.66592C84.7945 5.47892 79.5894 5.30372 73.4463 4.67585C73.3744 4.62226 73.2721 4.62439 73.1698 4.62651C73.1466 4.64273 73.1071 4.63568 73.1071 4.63568C72.8864 4.61665 72.6261 4.59057 72.4054 4.57156L70.8673 4.3989C49.548 2.04019 27.5108 -0.405908 7.40977 -7.76321C7.17987 -7.845 6.95421 -7.72228 6.8562 -7.51564C6.58401 -7.36048 6.60235 -7.23495 6.68346 -7.1186ZM24.7456 -1.69411C25.331 -1.54888 25.9001 -1.42692 26.5087 -1.29792C28.4266 5.42185 31.2529 12.3038 34.7654 18.8802C34.5143 18.9169 34.3028 18.9607 34.0517 18.9974C29.0153 12.1692 25.9612 5.3078 24.7456 -1.69411ZM34.6265 19.7723C34.8148 19.7448 35.0031 19.7173 35.1914 19.6898C35.6823 20.5924 36.1569 21.4718 36.6711 22.3582C35.9524 21.476 35.2895 20.6242 34.6265 19.7723ZM48.3154 2.55368C49.4278 6.48089 50.9711 11.0759 53.1463 15.7837C51.0216 16.1583 48.8968 16.533 46.7953 16.8914C43.7082 11.4707 41.6782 6.17753 40.9113 1.45623C43.3669 1.85378 45.8457 2.23511 48.3154 2.55368ZM54.644 3.39803C55.5709 7.10876 57.0994 10.988 59.0651 14.7008C57.3796 15.0112 55.6942 15.3216 54.0088 15.632C51.8752 11.0335 50.334 6.54076 49.2307 2.67631C51.0382 2.93781 52.8295 3.17603 54.644 3.39803ZM63.8026 4.48265C65.0954 6.48604 66.3275 8.60086 67.6338 10.8715C67.9928 11.4857 68.3517 12.1 68.7107 12.7142C65.8279 13.3406 62.9056 13.96 59.9346 14.5096C57.9851 10.8201 56.482 7.02688 55.5664 3.48117C58.3125 3.84908 61.0656 4.1775 63.8026 4.48265ZM66.9182 4.83502C68.235 7.61696 69.5526 10.0526 70.9589 12.2189C70.4892 12.3389 70.0266 12.4193 69.557 12.5392C69.1493 11.8552 68.7649 11.1549 68.3573 10.4709C67.1575 8.40264 66.0389 6.45071 64.8597 4.61021C65.5776 4.6976 66.2398 4.75468 66.9182 4.83502ZM77.7453 5.9322C77.7383 5.97169 77.7545 5.99497 77.7637 6.05773C77.8307 6.25307 77.8582 6.44135 77.9252 6.63669C78.2158 7.74807 78.5389 8.906 79.2202 9.88337C79.2689 9.95318 79.3013 9.99972 79.35 10.0695C79.35 10.0695 79.35 10.0695 79.3662 10.0928C78.1223 10.4413 76.8388 10.7827 75.5391 11.1008C74.5411 9.2723 73.8337 7.41414 73.5119 5.5637C74.971 5.72226 76.3582 5.82723 77.7453 5.9322ZM84.0795 6.28856C84.0478 7.03678 84.2461 7.8668 84.6142 8.54377C83.2074 9.00579 81.7681 9.42127 80.2823 9.86919C80.1779 9.76905 80.113 9.67596 80.0086 9.57583C79.3527 8.6845 79.0388 7.58934 78.732 6.45468C78.6974 6.30589 78.6628 6.15709 78.605 6.02452C80.4012 6.12099 82.1811 6.1942 84.0795 6.28856ZM98.7421 5.64571C98.7118 5.70142 98.6977 5.7804 98.6674 5.83611C98.2584 5.84461 97.8331 5.82984 97.4009 5.85455C97.8635 5.77412 98.3028 5.70991 98.7421 5.64571ZM111.646 3.67014C111.461 4.24843 111.253 4.84293 111.022 5.45365C108.695 5.58852 106.313 5.69308 103.875 5.76731C103.913 5.6721 103.973 5.56068 103.995 5.4422C104.069 5.25179 104.167 5.04516 104.242 4.85475C106.587 4.49915 109.042 4.10193 111.646 3.67014ZM113.685 3.32091C113.66 4.02965 113.603 4.69184 113.513 5.30749C112.995 5.3576 112.484 5.36822 111.949 5.39506C112.164 4.76106 112.379 4.12706 112.594 3.49307C112.948 3.45425 113.324 3.39921 113.685 3.32091ZM117.197 2.705C117.34 3.50469 117.443 4.29734 117.52 5.00395C116.507 5.08795 115.454 5.16489 114.401 5.24184C114.498 4.5867 114.555 3.9245 114.57 3.153C115.41 3.01754 116.311 2.8729 117.197 2.705ZM122.284 1.71802C122.396 2.57343 122.471 3.52405 122.492 4.54659C121.142 4.69268 119.735 4.80844 118.329 4.92419C118.242 4.15482 118.139 3.36217 118.004 2.52299C119.431 2.28875 120.866 2.01502 122.284 1.71802ZM126.343 0.894037C126.701 1.8545 126.897 2.92851 126.936 4.07659C125.774 4.19515 124.565 4.34616 123.34 4.47389C123.303 3.42807 123.235 2.43797 123.107 1.55929C124.204 1.34765 125.262 1.12895 126.343 0.894037ZM132.146 -0.454063C132.399 0.752526 132.497 2.03319 132.461 3.37167C130.978 3.57559 129.433 3.78868 127.792 3.9644C127.736 2.79305 127.547 1.67955 127.196 0.679591C128.865 0.345899 130.525 -0.0505608 132.146 -0.454063ZM141.347 -3.02947C140.541 -1.25793 139.769 0.560156 138.996 2.37824C137.334 2.67243 135.404 2.98005 133.27 3.29192C133.313 1.91394 133.199 0.610015 132.929 -0.619843C135.919 -1.39016 138.751 -2.18866 141.347 -3.02947ZM93.5948 51.8343C93.5467 49.1362 93.5133 46.0129 93.434 42.5757C98.7019 41.6007 104.303 40.3591 110.283 38.8185C110.771 39.6188 111.228 40.3727 111.659 41.0405C108.449 42.5865 105.428 44.5536 102.494 46.4952C99.6297 48.3882 96.6955 50.3299 93.5948 51.8343ZM82.6343 12.1024C82.6181 12.0791 82.5624 12.0488 82.5461 12.0255C81.9403 11.6525 81.4093 11.0891 80.9177 10.5327C82.3803 10.101 83.8196 9.68557 85.1869 9.2165C85.5071 9.4774 85.8576 9.68258 86.1848 9.90399C85.0749 10.6431 83.8627 11.3844 82.6343 12.1024ZM113.342 6.15305C113.096 7.18902 112.683 8.13403 112.098 9.12982C112.074 9.14604 112.091 9.16931 112.067 9.18553C111.57 9.11717 111.05 9.06502 110.552 8.99665C110.942 8.06786 111.309 7.1553 111.652 6.25896C112.21 6.21589 112.784 6.19611 113.342 6.15305ZM110.615 37.7571C110.265 37.2057 109.938 36.638 109.572 36.0633C113.902 33.4946 117.321 29.8667 120.616 26.3595C121.47 25.4525 122.348 24.5294 123.203 23.6224C123.607 23.7556 124.011 23.8889 124.399 23.9989C120.311 29.8912 115.224 34.9938 110.615 37.7571ZM117.165 10.6456C116.654 11.7973 116.326 13.0631 116.006 14.2895C115.561 15.9828 115.062 17.7479 114.148 19.2148C112.449 18.4632 110.701 17.6418 108.894 16.6878C109.943 15.2653 110.713 13.6912 111.499 12.1404C111.823 11.4648 112.171 10.7729 112.535 10.1044C114.05 10.2933 115.627 10.473 117.165 10.6456ZM120.013 25.7425C116.764 29.2173 113.399 32.7732 109.155 35.3165C108.544 34.2905 107.9 33.2179 107.224 32.0988C108.855 30.7193 110.629 29.3447 112.356 28.0025C114.741 26.1667 117.197 24.2822 119.366 22.2856C119.39 22.2694 119.413 22.2532 119.42 22.2137C120.451 22.6015 121.45 22.9427 122.353 23.2466C121.545 24.1211 120.767 24.9399 120.013 25.7425ZM78.1741 33.7801C82.2976 35.6775 87.0507 36.4444 92.4731 36.0878C92.5077 37.3777 92.5261 38.6442 92.5587 39.8318C88.5637 39.9541 84.5256 39.5186 80.3924 39.0457C78.8543 38.873 77.2535 38.7095 75.6526 38.5461C76.4621 36.979 77.3181 35.3796 78.1741 33.7801ZM81.0664 28.306C84.3366 30.4179 88.9481 32.3209 92.3507 32.0929C92.3812 33.1782 92.4186 34.224 92.4166 35.2628C87.136 35.6242 82.5408 34.8855 78.5288 33.0488C79.3848 31.4493 80.2408 29.8498 81.0664 28.306ZM80.9874 18.8175C82.0298 19.3703 83.1652 19.8582 84.3613 20.2347C83.9601 20.9985 83.5518 21.8017 83.1273 22.5817C81.5483 21.9535 80.3297 21.247 79.367 20.362C79.9072 19.8472 80.4473 19.3323 80.9874 18.8175ZM85.1765 20.4617C87.4318 21.068 89.8295 21.333 92.0213 21.1537C92.0389 21.6255 92.0404 22.074 92.0651 22.5063C89.4016 22.7033 86.664 22.7444 83.9799 22.7135C84.3974 21.973 84.7986 21.2093 85.1765 20.4617ZM89.9515 11.2894C90.4091 11.3508 90.8485 11.2866 91.2483 11.2153C91.4134 11.204 91.5621 11.1694 91.7272 11.1581C91.7646 12.204 91.8021 13.2498 91.8395 14.2956C91.2888 14.2992 90.7309 14.3422 90.1894 14.4085C89.5455 14.477 88.9249 14.5292 88.3184 14.5025C88.9157 13.3254 89.4522 12.2598 89.9515 11.2894ZM98.6932 11.6273C97.9415 12.1859 97.0784 12.6838 96.0876 13.0978C95.6129 12.2185 95.1474 11.4019 94.7539 10.6389C94.8865 10.581 95.0352 10.5465 95.1678 10.4886C95.526 10.3081 95.8681 10.1042 96.1938 9.87713C97.0246 10.4737 97.8554 11.0702 98.6932 11.6273ZM106.042 16.1175C104.23 17.9335 101.949 18.7285 99.5661 19.1793C98.4729 17.3134 97.4517 15.5011 96.5277 13.8284C97.6511 13.3565 98.6306 12.7775 99.4824 12.1145C101.662 13.6037 103.869 14.935 106.042 16.1175ZM107.474 16.8825C105.409 18.633 103.11 20.4434 100.587 20.9916C100.384 20.6496 100.164 20.2843 99.983 19.9261C102.498 19.4174 104.896 18.5414 106.806 16.5187C107.005 16.6562 107.251 16.7612 107.474 16.8825ZM113.715 19.9321C111.852 23.0633 107.925 26.1115 104.785 27.9552C104.761 27.9714 104.761 27.9714 104.738 27.9876C103.499 25.9123 102.243 23.8137 101.06 21.7687C103.769 21.0908 106.175 19.1365 108.294 17.314C110.155 18.2984 111.976 19.1734 113.715 19.9321ZM118.533 21.9331C116.463 23.8253 114.124 25.6287 111.839 27.3601C110.135 28.6861 108.392 30.0049 106.783 31.3682C106.246 30.498 105.716 29.5884 105.185 28.6787L105.209 28.6625C108.482 26.761 112.594 23.583 114.516 20.2381C115.907 20.8938 117.256 21.4402 118.533 21.9331ZM105.308 32.6737C100.952 34.0153 96.9489 34.8696 93.2649 35.1901C93.2275 34.1442 93.2133 33.0822 93.1991 32.0202C97.1969 31.6538 100.875 30.6804 104.399 29.0885C104.978 30.068 105.58 31.0312 106.127 31.9642C105.841 32.1983 105.578 32.4163 105.308 32.6737ZM92.9629 23.2982C95.4918 23.0568 97.9303 22.6363 100.19 21.9598C101.423 24.0747 102.71 26.2198 103.982 28.3417C100.591 29.8758 97.0452 30.7914 93.2124 31.1464C93.1128 28.6225 93.0506 26.0033 92.9629 23.2982ZM92.6816 15.0572C93.7859 14.806 94.7788 14.4942 95.6928 14.1684C96.5681 15.7712 97.5802 17.5208 98.6409 19.3401C97.8412 19.4826 97.0324 19.5624 96.2165 19.6816C95.11 19.8305 93.964 19.9723 92.8668 20.184C92.8236 18.4852 92.741 16.7793 92.6816 15.0572ZM92.536 11.0784C92.6221 11.053 92.7243 11.0509 92.8103 11.0255C93.1869 10.9704 93.5402 10.9316 93.9239 10.8371C94.3336 11.6234 94.7921 12.4795 95.2992 13.4054C94.4946 13.6896 93.611 13.9598 92.6717 14.1996C92.6109 13.17 92.5735 12.1242 92.536 11.0784ZM96.3357 20.4975C97.2539 20.3762 98.172 20.2548 99.1135 20.1172C99.3335 20.4825 99.5536 20.8478 99.7504 21.2293C97.639 21.8712 95.333 22.2338 92.9459 22.4801C92.9282 22.0084 92.9106 21.5366 92.9162 21.0486C93.981 20.7904 95.127 20.6485 96.3357 20.4975ZM94.7975 9.70941C94.665 9.76724 94.5091 9.8413 94.3603 9.87586C93.9181 9.04305 93.564 8.2871 93.2515 7.64044C94.0033 8.22289 94.7389 8.78206 95.4745 9.34123C95.2488 9.46395 95.0232 9.58668 94.7975 9.70941ZM93.507 10.0903C93.2327 10.1432 92.9584 10.1961 92.6911 10.2096C92.6283 10.2187 92.5656 10.2279 92.5028 10.2371C92.4788 9.45853 92.4547 8.67998 92.4145 7.87816C92.7269 8.52481 93.1043 9.26455 93.507 10.0903ZM90.3435 10.4629C90.8427 9.49251 91.258 8.64975 91.5824 7.97413C91.6064 8.75268 91.6304 9.53123 91.6777 10.2936C91.4894 10.3211 91.3012 10.3486 91.1129 10.3761C90.8385 10.429 90.5875 10.4657 90.3435 10.4629ZM89.5142 10.3149C89.4352 10.3008 89.3795 10.2705 89.3005 10.2564C89.5007 10.0476 89.701 9.83884 89.885 9.60681C89.7405 9.84589 89.6192 10.0688 89.5142 10.3149ZM90.2691 15.2174C90.8107 15.1511 91.3452 15.1243 91.8565 15.1136C91.9088 16.8752 91.9682 18.5973 92.0276 20.3195C89.9613 20.4804 87.6983 20.2598 85.5777 19.698C86.3872 18.1309 87.1593 16.6591 87.894 15.2825C88.6909 15.384 89.4835 15.2809 90.2691 15.2174ZM92.1145 23.3709C92.2022 26.076 92.2645 28.6952 92.3408 31.2353C89.1032 31.4521 84.5383 29.5166 81.4676 27.5423C82.1791 26.1819 82.8835 24.861 83.5646 23.5563C86.4066 23.6153 89.3022 23.6024 92.1145 23.3709ZM93.2981 36.0314C97.0844 35.7088 101.19 34.8524 105.655 33.4691C105.717 33.4599 105.764 33.4275 105.81 33.3951C106.057 33.1539 106.297 32.9522 106.56 32.7342C107.204 33.8068 107.815 34.8328 108.418 35.7961C107.422 36.3519 105.79 36.9366 104.422 37.4057C103.945 37.5651 103.508 37.7316 103.134 37.8888C99.8152 39.1303 96.6002 39.677 93.3697 39.8543C93.3512 38.5877 93.3328 37.3212 93.2981 36.0314ZM119.886 21.543C121.562 18.8878 122.569 15.0739 123.041 11.2869C124.043 11.3842 125.044 11.4814 126.006 11.5716C125.42 14.0547 124.66 16.4863 123.989 18.6485C123.554 20.0583 123.149 21.4123 122.819 22.5759C121.893 22.2882 120.917 21.9308 119.886 21.543ZM119.085 21.237C117.768 20.7371 116.38 20.1836 114.926 19.537C115.877 17.9749 116.353 16.226 116.828 14.477C117.17 13.1322 117.537 11.8734 118.072 10.7055C119.468 10.8732 120.848 11.0177 122.189 11.1551C121.716 14.9421 120.717 18.7164 119.085 21.237ZM110.728 11.7787C109.965 13.3133 109.188 14.9268 108.147 16.3098C107.868 16.1582 107.55 15.9996 107.255 15.8247C108.37 13.8028 109.343 11.776 110.2 9.83024C110.658 9.89155 111.155 9.95992 111.636 10.005C111.309 10.5784 111.015 11.1983 110.728 11.7787ZM106.531 15.4306C104.437 14.2622 102.279 13.0007 100.092 11.551C100.625 11.0757 101.087 10.5467 101.476 9.96419C101.83 9.57912 102.144 9.18699 102.426 8.74833C104.589 9.07327 106.917 9.38691 109.347 9.69842C108.498 11.6047 107.569 13.4968 106.531 15.4306ZM100.843 9.40289C100.819 9.41911 100.796 9.43533 100.812 9.4586C100.423 10.0411 99.9385 10.5863 99.3822 11.0779C98.5444 10.5208 97.7298 9.94755 96.899 9.35101C97.3947 8.97086 97.8418 8.5209 98.2261 8.08011C99.2529 8.26339 100.342 8.4375 101.511 8.6257C101.297 8.91344 101.089 9.16168 100.843 9.40289ZM96.1959 8.83836C95.4603 8.27919 94.7015 7.73624 93.9729 7.13758C94.8672 7.37869 96.0054 7.62261 97.2621 7.88767C96.9384 8.21703 96.5753 8.53933 96.1959 8.83836ZM89.5895 8.63718C89.1586 9.11041 88.7278 9.58363 88.297 10.0569L88.2575 10.0498C88.0438 9.99129 87.8858 9.96309 87.7349 9.89541C88.3794 9.4807 88.9844 9.05894 89.5895 8.63718ZM89.113 11.0786C88.6137 12.049 88.0468 13.1704 87.4263 14.3636C87.0617 14.2374 86.6506 14.1437 86.279 14.0569C86.121 14.0287 85.963 14.0006 85.8283 13.9561C86.776 12.9843 87.7075 11.9892 88.6228 10.9708C88.7808 10.999 88.9388 11.0272 89.113 11.0786ZM86.1147 14.863C86.4469 14.9427 86.7628 14.9991 87.0322 15.0879C86.3207 16.4483 85.5486 17.9201 84.7462 19.4477C83.6454 19.1085 82.5586 18.6904 81.6115 18.175C82.799 17.0015 83.9865 15.8279 85.1577 14.6311C85.4666 14.727 85.7988 14.8066 86.1147 14.863ZM78.757 20.9255C79.7846 21.9036 81.0752 22.6637 82.7494 23.3293C82.1056 24.5388 81.4548 25.7877 80.7807 27.0529C79.2609 25.8648 77.8786 24.477 76.5802 22.9616C77.2903 22.2937 78.0237 21.6096 78.757 20.9255ZM80.3633 27.7934C79.5235 29.4162 78.6372 31.0714 77.7579 32.6871C75.2036 31.7014 72.7712 30.1466 70.4883 28.2109C72.3062 26.7017 74.115 25.1296 75.9075 23.5343C77.3011 25.0871 78.7716 26.5517 80.3633 27.7934ZM77.38 33.4346C76.4937 35.0898 75.6306 36.7287 74.7746 38.3282C71.429 36.753 67.8993 34.2689 65.3561 32.3072C66.8433 31.1667 68.3609 29.9706 69.8389 28.7674C72.0498 30.6494 74.5633 32.3206 77.38 33.4346ZM64.6672 32.8566C67.266 34.8486 70.9164 37.4562 74.3897 39.1153C73.5033 40.7705 72.6473 42.3699 71.8217 43.9137C68.3286 41.6806 64.7114 38.7733 61.2415 35.3829C62.3888 34.5486 63.5361 33.7142 64.6672 32.8566ZM75.2049 39.3423C76.908 39.5036 78.6273 39.6883 80.2838 39.8821C84.4566 40.362 88.4946 40.7975 92.5686 40.6893C92.5771 41.0983 92.5694 41.4841 92.6011 41.8769C85.3411 43.1687 78.7701 43.911 72.7067 44.092C73.4858 42.5807 74.3186 40.9975 75.2049 39.3423ZM93.4099 40.6561C96.7194 40.493 100.06 39.9278 103.448 38.6378C103.839 38.5037 104.276 38.3373 104.713 38.1708C106.174 37.6368 107.806 37.0521 108.842 36.5034C109.191 37.0548 109.486 37.5759 109.819 38.1041C103.988 39.6102 98.5361 40.8172 93.4171 41.7576C93.4248 41.3719 93.4092 41.0024 93.4099 40.6561ZM123.627 22.8424C123.934 21.695 124.362 20.3248 124.797 18.915C125.513 16.6181 126.28 14.147 126.866 11.6639C128.229 11.7851 129.507 11.9317 130.713 12.0247C129.664 14.9345 128.201 17.9945 126.275 21.1349C125.842 21.8521 125.392 22.5461 124.919 23.2563C124.491 23.1392 124.071 22.9827 123.627 22.8424ZM127.037 10.8184C127.489 8.73938 127.793 6.69495 127.802 4.82193C129.426 4.62293 130.949 4.42606 132.409 4.23837C132.265 6.41324 131.786 8.75245 130.98 11.2165C129.758 11.1002 128.433 10.9861 127.037 10.8184ZM126.193 10.7493C125.192 10.6521 124.191 10.5548 123.134 10.4273C123.325 8.66847 123.391 6.928 123.374 5.3152C124.599 5.18746 125.784 5.05268 126.946 4.93412C126.929 6.74439 126.632 8.74931 126.193 10.7493ZM122.274 10.3349C120.973 10.2046 119.655 10.051 118.315 9.91354C118.475 8.55671 118.511 7.21823 118.402 5.77256C119.808 5.6568 121.175 5.53398 122.525 5.38791C122.55 6.96122 122.475 8.63891 122.274 10.3349ZM117.495 9.82828C115.996 9.66267 114.481 9.47378 112.983 9.30817C113.582 8.23339 113.986 7.22562 114.23 6.0874C115.362 6.02455 116.477 5.93843 117.577 5.82903C117.669 7.25143 117.641 8.55043 117.495 9.82828ZM109.693 8.90434C107.302 8.59987 105.014 8.29327 102.89 7.97539C103.133 7.52968 103.336 7.07693 103.562 6.60795C106 6.53372 108.399 6.45243 110.765 6.32461C110.412 7.15819 110.052 8.03126 109.693 8.90434ZM101.998 7.83654C100.869 7.65538 99.7796 7.48128 98.7923 7.30505C98.9298 7.10547 99.0511 6.88261 99.1724 6.65976C100.313 6.65967 101.461 6.62009 102.603 6.62C102.407 7.03327 102.21 7.44654 101.998 7.83654ZM97.884 7.14292C97.0152 6.98784 96.2324 6.80737 95.5053 6.65722C96.4023 6.65433 97.3156 6.67471 98.1731 6.66477C98.1217 6.83896 97.9912 6.99905 97.884 7.14292ZM86.969 9.39195C86.9133 9.36163 86.8413 9.30804 86.7856 9.27772C86.5628 9.15645 86.3632 9.01895 86.1636 8.88144C87.2891 8.51183 88.3984 8.11894 89.4286 7.71196C88.6537 8.28676 87.823 8.83125 86.969 9.39195ZM86.974 10.3912C87.206 10.5753 87.4522 10.6803 87.6426 10.7551C86.7343 11.734 85.8261 12.7129 84.9249 13.6523C84.8692 13.6219 84.774 13.5846 84.7183 13.5543L84.6788 13.5472C84.1866 13.3371 83.7246 13.0713 83.3001 12.7102C84.5588 11.9365 85.7943 11.179 86.974 10.3912ZM82.53 13.1433C83.0752 13.6277 83.681 14.0007 84.3241 14.2785C83.1994 15.4429 82.0585 16.584 80.9246 17.6856C80.0987 16.9474 79.3194 16.1766 78.6099 15.3572C79.9336 14.6766 81.2318 13.9099 82.53 13.1433ZM80.3076 18.2886C79.7907 18.7873 79.2505 19.3021 78.7337 19.8007C77.6617 18.9574 76.6504 18.0026 75.6764 16.9526C76.4161 16.5753 77.1164 16.1909 77.8399 15.7903C78.598 16.6795 79.426 17.52 80.3076 18.2886ZM78.1004 20.3805C77.4136 21.0321 76.7106 21.6605 76.0238 22.3122C74.9898 21.0274 74.0257 19.6939 73.0757 18.2814C73.6828 17.9619 74.283 17.6819 74.8901 17.3624C75.9127 18.4822 76.996 19.4906 78.1004 20.3805ZM73.1724 19.9083C73.8862 20.9322 74.6232 21.9399 75.4138 22.8757C73.591 24.5267 71.759 26.115 69.8945 27.6567C68.106 26.0335 66.4155 24.2036 64.8392 22.1903C67.3651 21.0519 69.8749 19.8903 72.336 18.6588C72.6047 19.0939 72.8804 19.4895 73.1724 19.9083ZM64.313 21.4852C62.8482 19.5325 61.53 17.4431 60.3444 15.2958C63.2991 14.723 66.261 14.1107 69.1438 13.4842C70.017 14.9848 70.9296 16.4925 71.8726 17.9444C69.4115 19.1759 66.8785 20.3538 64.313 21.4852ZM62.667 20.6616C62.7481 20.7779 62.8454 20.9176 62.9266 21.0339C63.105 21.2899 63.2997 21.5691 63.5176 21.8322C61.8801 22.5587 60.2265 23.2619 58.5799 23.9256C56.9789 21.4801 55.5803 18.928 54.3791 16.4112C56.0645 16.1008 57.7732 15.7742 59.4586 15.4638C60.4404 17.269 61.5315 19.0327 62.667 20.6616ZM64.0205 22.5536C65.4437 24.3969 67.1688 26.3755 69.2056 28.2061C67.7043 29.4255 66.21 30.6054 64.6996 31.7621C62.5845 29.5712 60.6929 27.1553 59.02 24.6562C60.6899 23.9762 62.3668 23.2568 64.0205 22.5536ZM58.9707 26.0736C60.4793 28.2378 62.1833 30.335 64.0177 32.272C62.8866 33.1296 61.7625 33.9478 60.6385 34.7659C58.1637 32.307 55.787 29.6415 53.5569 26.8392C55.1104 26.2404 56.6872 25.6253 58.2478 24.987C58.4911 25.336 58.7112 25.7013 58.9707 26.0736ZM59.9404 35.2525C58.0322 36.5827 56.1311 37.8734 54.2278 39.0618C50.7312 36.2779 47.286 33.3198 44.0341 30.1925C46.871 29.2522 49.7778 28.2633 52.729 27.1397C54.9845 30.028 57.4332 32.7471 59.9404 35.2525ZM60.5666 35.8533C64.1804 39.3509 67.902 42.3583 71.4508 44.6217C70.4361 46.5393 69.4892 48.3059 68.6402 49.8659L68.5521 49.789C64.1894 46.606 59.5157 43.2249 54.9309 39.5744C56.8039 38.4417 58.6585 37.1835 60.5666 35.8533ZM72.2286 44.944C78.4337 44.7679 85.186 44.0375 92.6111 42.7344C92.6762 46.2506 92.7258 49.3972 92.7669 52.1348C86.8418 52.911 80.5414 51.9087 74.4223 50.9183C72.7009 50.6314 71.0351 50.3749 69.4251 50.1486C70.2741 48.5886 71.221 46.822 72.2286 44.944ZM111.062 38.4482C115.827 35.6108 121.068 30.3319 125.277 24.2167C126.069 24.46 126.805 24.6729 127.47 24.8322C122.974 30.3868 117.93 35.7009 112.405 40.6236C111.991 39.9791 111.551 39.2485 111.062 38.4482ZM125.75 23.5065C126.17 22.8683 126.589 22.2301 126.969 21.5848C128.956 18.3329 130.479 15.1615 131.55 12.1332C132.732 12.2424 133.836 12.3376 134.798 12.4278C132.954 16.4793 130.88 20.4491 128.222 23.9274C128.168 23.9993 128.091 24.0874 128.038 24.1594C127.357 23.9768 126.605 23.7406 125.75 23.5065ZM131.839 11.3088C132.653 8.80526 133.146 6.38708 133.264 4.12617C135.249 3.84888 137.03 3.57582 138.629 3.2908C138.412 3.82254 138.172 4.37052 137.971 4.92553C137.065 7.1477 136.135 9.3861 135.167 11.6174C134.188 11.504 133.061 11.4251 131.839 11.3088ZM103.256 5.12703C103.174 5.35694 103.076 5.56357 102.995 5.79348C101.87 5.81684 100.745 5.84018 99.6039 5.84027C99.6413 5.74507 99.7019 5.63364 99.7231 5.51516C100.853 5.35006 102.045 5.17579 103.301 4.99234C103.294 5.03183 103.286 5.07131 103.256 5.12703ZM85.4421 8.24328C85.141 7.76165 84.8821 7.04307 84.9138 6.29484C86.6148 6.35395 88.3785 6.40388 90.3234 6.46579C88.7861 7.0879 87.1536 7.67264 85.4421 8.24328ZM80.0179 10.7796C80.0341 10.8029 80.0503 10.8262 80.0665 10.8494C80.6301 11.4594 81.2098 12.0926 81.8572 12.5749C80.6055 13.3092 79.3143 14.0363 78.0231 14.7635C77.272 13.8348 76.5675 12.8736 75.9722 11.8709C77.3417 11.5041 78.6879 11.1535 80.0179 10.7796ZM76.1268 13.6304C76.4836 14.1423 76.88 14.6613 77.2834 15.1408C76.5599 15.5414 75.8202 15.9188 75.0804 16.2961C74.1297 15.2299 73.2002 14.0452 72.3151 12.7259C73.2706 12.5093 74.2099 12.2695 75.126 12.0458C75.4525 12.6135 75.7699 13.1184 76.1268 13.6304ZM71.8116 13.4918C72.6227 14.6553 73.4711 15.7236 74.3174 16.6897C73.7568 16.9767 73.1962 17.2638 72.6123 17.5671C71.7018 16.1617 70.8378 14.7238 69.9971 13.2698C70.483 13.1731 70.9759 13.037 71.4618 12.9403C71.5683 13.1427 71.698 13.3289 71.8116 13.4918ZM53.5329 16.5862C54.7432 19.1657 56.1743 21.7643 57.7844 24.2726C56.2006 24.9272 54.6238 25.5422 53.0308 26.134C52.8848 25.9246 52.6993 25.7081 52.5533 25.4987C50.5715 22.9037 48.8012 20.2649 47.2841 17.6917C49.3461 17.3263 51.4081 16.9608 53.5329 16.5862ZM49.7506 23.1647C50.5293 24.2816 51.3312 25.3824 52.1796 26.4507C49.1889 27.5673 46.2123 28.6049 43.3591 29.5219C42.6842 28.8513 42.0092 28.1807 41.3343 27.5101C40.8195 26.9699 40.3209 26.453 39.8222 25.9362C38.504 23.8467 37.2557 21.7086 36.0538 19.5381C36.3049 19.5014 36.5164 19.4577 36.7675 19.421C39.8499 18.932 43.0649 18.3853 46.3427 17.8293C47.3872 19.6254 48.534 21.4194 49.7506 23.1647ZM42.357 29.7709C42.3733 29.7942 42.3895 29.8174 42.429 29.8245C42.429 29.8245 42.429 29.8245 42.4057 29.8407C42.4128 29.8012 42.3733 29.7942 42.357 29.7709ZM42.9318 30.5459C42.9946 30.5367 43.0644 30.488 43.1272 30.4789C46.4278 33.676 49.9287 36.6644 53.4739 39.5181C52.7667 39.942 52.0989 40.3729 51.3916 40.7968C48.4485 37.7654 45.6154 34.346 42.9318 30.5459ZM51.9946 41.4138C52.7251 40.9737 53.4324 40.5498 54.17 40.0702C58.843 43.7976 63.6048 47.2556 68.0627 50.4759L68.2461 50.5902C67.8216 51.3702 67.4507 52.0782 67.0869 52.7468C61.9027 50.171 56.8256 46.3104 51.9946 41.4138ZM67.881 53.0923C68.2215 52.4399 68.6157 51.7156 69.0169 50.9519C70.7291 51.176 72.4506 51.4629 74.3138 51.7547C80.4329 52.745 86.7728 53.7544 92.7769 52.9923C92.8108 54.6284 92.8173 56.0762 92.8287 57.3823C84.3352 57.2517 75.9487 55.8363 67.881 53.0923ZM99.939 53.0482C97.724 54.3847 95.6021 55.6564 93.6636 57.0423C93.6452 55.7757 93.6155 54.3442 93.5907 52.7708C96.8634 51.2156 99.9535 49.1999 102.934 47.2258C105.868 45.2841 108.889 43.3171 112.075 41.7873C112.377 42.2689 112.662 42.7272 112.914 43.1391C109.708 47.1717 104.734 50.1551 99.939 53.0482ZM123.376 32.6998C122.668 33.4699 121.992 34.2866 121.324 35.0638C119.004 37.7875 116.607 40.5993 113.515 42.5128C113.311 42.1708 113.075 41.7822 112.838 41.3937C118.533 36.3179 123.73 30.8274 128.34 25.0895C129.274 25.3377 129.985 25.4646 130.452 25.5887C129.39 26.7439 128.256 27.8455 127.129 28.9076C125.872 30.1298 124.591 31.3683 123.376 32.6998ZM131.113 24.851C130.837 24.8016 130.11 24.6515 128.939 24.361C131.681 20.7551 133.816 16.6739 135.704 12.4876C137.447 12.656 138.652 12.749 139.094 12.7871C137.263 16.3111 134.962 19.9551 132.234 23.4821C131.866 23.9461 131.498 24.4102 131.113 24.851ZM139.495 12.0233C139.439 11.993 139.384 11.9627 139.321 11.9718C139.242 11.9577 138.036 11.8647 136.049 11.6935C137.004 9.54117 137.88 7.37471 138.772 5.23152C139.057 4.54886 139.349 3.82671 139.64 3.10455C141.114 2.83787 142.423 2.58249 143.481 2.36379C142.543 5.33419 141.203 8.61985 139.495 12.0233ZM143.745 1.45335C142.727 1.67909 141.481 1.92531 140.007 2.19199C140.764 0.350636 141.56 -1.48367 142.388 -3.27143C142.395 -3.31092 142.426 -3.36664 142.433 -3.40613C143.3 -3.69956 144.151 -4.01626 144.956 -4.30052C144.755 -2.60448 144.347 -0.660201 143.745 1.45335ZM70.531 5.25575L72.0691 5.42841C72.2665 5.46365 72.4478 5.47564 72.629 5.48761C72.9366 7.41703 73.6624 9.40072 74.6859 11.3153C73.7465 11.5551 72.7677 11.7879 71.8122 12.0045C70.4475 9.9475 69.1553 7.59785 67.8963 4.94848C68.7955 5.04785 69.6551 5.14016 70.531 5.25575ZM40.0587 1.32442L40.0517 1.36391C40.8341 6.45474 42.9523 11.8247 45.9096 17.0593C42.7574 17.5969 39.6284 18.1183 36.632 18.5818C36.2949 18.6439 35.9579 18.706 35.6278 18.7286C32.1732 12.2846 29.3886 5.51205 27.4332 -1.11252C31.6236 -0.160807 35.826 0.609659 40.0587 1.32442Z" fill="#0A0A0A"/>
</g>
</svg>
