<svg width="46" height="46" viewBox="0 0 46 46" fill="none" xmlns="http://www.w3.org/2000/svg">
<g clip-path="url(#clip0_373_25)">
<path d="M44.2302 17.1975H1.85706V44.2279H44.2302V17.1975Z" fill="#CFECFF" stroke="#6A4D9F" stroke-width="2.79" stroke-linecap="round" stroke-linejoin="round"/>
<path d="M23.0409 43.9168H1.85706L12.4517 36.0454L20.6982 29.9183C22.0883 28.8851 23.9934 28.8851 25.3891 29.9183L33.6355 36.0454L44.2302 43.9168H23.0409Z" fill="#CFECFF" stroke="#6A4D9F" stroke-width="2.79" stroke-linecap="round" stroke-linejoin="round"/>
<path d="M44.2301 16.892L33.5635 8.97061L25.2561 2.79906C23.8549 1.75473 21.9387 1.75473 20.5375 2.79906L12.2301 8.97061L1.56348 16.892V17.3586L12.2301 25.2799L22.1547 32.6514C22.5977 32.9791 23.1959 32.9791 23.6389 32.6514L33.5635 25.2799L44.2301 17.3586V16.892Z" fill="#CFECFF" stroke="#6A4D9F" stroke-width="2.79" stroke-linecap="round" stroke-linejoin="round"/>
</g>
<defs>
<clipPath id="clip0_373_25">
<rect width="46" height="46" fill="white"/>
</clipPath>
</defs>
</svg>
