<svg width="46" height="46" viewBox="0 0 46 46" fill="none" xmlns="http://www.w3.org/2000/svg">
<circle cx="23" cy="23" r="21.605" fill="#CFECFF" stroke="#6A4D9F" stroke-width="2.79"/>
<path d="M22.5566 2.38837C17.4542 2.3773 12.4518 13.7566 12.4796 23.5079C12.5074 33.1817 17.4987 44.4724 22.5566 44.4614C27.6867 44.4503 32.7446 32.8384 32.5669 22.849C32.4059 13.4742 27.5867 2.39391 22.5566 2.38837Z" fill="#CFECFF" stroke="#6A4D9F" stroke-width="2.79" stroke-linecap="round" stroke-linejoin="round"/>
<path d="M22.5564 2.3884V44.4614" stroke="#6A4D9F" stroke-width="2.79" stroke-linecap="round" stroke-linejoin="round"/>
<path d="M6.42773 9.86383C8.86508 11.3257 14.7669 14.4322 22.8951 14.3989C30.6791 14.3657 36.3644 11.4697 38.8239 10.03" stroke="#6A4D9F" stroke-width="2.79" stroke-linecap="round" stroke-linejoin="round"/>
<path d="M6.52783 37.0967C8.72089 35.6736 14.4728 32.3456 22.5566 32.3179C30.6681 32.2902 36.4589 35.6016 38.6575 37.0136" stroke="#6A4D9F" stroke-width="2.79" stroke-linecap="round" stroke-linejoin="round"/>
</svg>
