<?xml version="1.0" encoding="utf-8"?>
<!-- Generator: Adobe Illustrator 28.1.0, SVG Export Plug-In . SVG Version: 6.00 Build 0)  -->
<svg version="1.1" id="Layer_1" xmlns="http://www.w3.org/2000/svg" xmlns:xlink="http://www.w3.org/1999/xlink" x="0px" y="0px"
	 viewBox="0 0 97.4 32.7" style="enable-background:new 0 0 97.4 32.7;" xml:space="preserve">
<style type="text/css">
	.st0{fill:#CDCDCD;}
</style>
<path class="st0" d="M63.3,22.4c0.1-0.1,2,2.5,2.2,2.7c0.5,0.6,1.1,1.1,1.7,1.6c1.5,1.2,3.2,1.9,5.2,1.9c4,0,7.8-2.1,10.8-4.6
	c6.7-5.4,10.2-13.5,13-21.4c0.1-0.2,0.2-1.5-0.4-1.3c-1.3,0.6-2.4,1.3-3.5,2.3C92,4,92.2,5.5,92.6,5.2c1.6-1.2,3.1-2.4,4.7-3.6
	l-0.4-1.1C96.5,2,96.3,3.5,96,5.1c-0.1,0.5,0.4,1.8,0.6,0.8c0.3-1.6,0.5-3.1,0.8-4.7c0-0.2,0-1.5-0.4-1.1c-1.6,1.2-3.1,2.4-4.7,3.6
	l0.2,1.5c1.1-1,2.2-1.7,3.5-2.3l-0.4-1.3c-2.5,7.1-5.6,14.3-11.1,19.6c-2.4,2.3-5.2,4.1-8.3,5.2c-1.8,0.7-3.7,1.3-5.7,1
	c-1.7-0.2-3.2-1.1-4.5-2.2c-0.7-0.6-1.4-1.4-2-2.2c-0.3-0.4-0.5-0.7-0.6-1.1c0-0.1,0-0.4-0.1-0.4C62.8,21.1,63.2,22.4,63.3,22.4
	L63.3,22.4L63.3,22.4z"/>
<g>
	<path class="st0" d="M6.4,16.2v0.3c0,0.1,0,0.2,0,0.3s0,0.2-0.1,0.4c0,0,0,0,0,0.1c0,0.2,0,0.3-0.1,0.5c0,0.2-0.1,0.3-0.1,0.5
		c-0.1,0.4-0.1,0.6-0.2,0.9c-0.1,0.3-0.1,0.6-0.2,0.9c0,0,0,0.1,0,0.1c0,0.3,0,0.5-0.1,0.9c-0.1,0.4-0.3,0.6-0.6,0.7h0
		c-0.2,0-0.5-0.2-0.7-0.5c-0.1-0.1-0.1-0.2-0.1-0.3c0,0,0-0.1,0-0.1c0-0.1,0.1-0.1,0.1-0.2c0,0,0-0.1,0-0.1c0-0.2,0.1-0.5,0.1-0.7
		c0.1-0.2,0.1-0.4,0.1-0.6c0-0.1,0-0.3,0.1-0.4c0-0.1,0-0.2,0.1-0.4c0,0,0-0.1,0-0.1v-0.1c0,0,0,0,0-0.1c0,0-0.1,0-0.1,0.1
		c-0.2,0.2-0.4,0.4-0.6,0.5c-0.1,0.1-0.2,0.2-0.3,0.3c0,0.1,0,0.2-0.1,0.2c-0.2,0.1-0.3,0.1-0.5,0.2c-0.1,0-0.1,0-0.2,0
		c-0.1,0-0.2,0-0.3,0c0,0-0.1,0-0.1,0c-0.1,0-0.2-0.2-0.2-0.2c0,0,0-0.1-0.1-0.1c-0.3-0.2-0.5-0.2-0.8-0.4c-0.2-0.1-0.3-0.3-0.5-0.5
		c-0.1-0.1-0.2-0.2-0.2-0.4c-0.1-0.2-0.2-0.3-0.2-0.5c-0.1-0.2-0.1-0.3-0.1-0.4c0-0.1,0-0.1,0-0.2c0,0,0-0.1,0-0.1
		C0,16.1,0,15.9,0,15.6c0-0.3,0-0.6,0-0.9c0-0.2,0-0.4,0.1-0.5c0-0.2,0-0.3,0.1-0.5c0.1-0.5,0.4-1,0.6-1.4c0.1-0.2,0.2-0.3,0.3-0.4
		c0.3-0.3,0.5-0.6,0.9-0.9c0.2-0.1,0.3-0.2,0.5-0.2c0,0,0,0,0,0c0,0,0.1,0,0.1,0.1c0.2,0.2,0.4,0.3,0.5,0.6c0,0,0,0,0,0.1
		c0,0.1-0.1,0.2-0.2,0.4c-0.1,0.2-0.2,0.3-0.3,0.4c0,0.1,0,0.2-0.1,0.3c0,0.1-0.1,0.2-0.1,0.2C2.3,13,2.2,13.3,2,13.6
		c-0.2,0.4-0.4,0.9-0.5,1.3c0,0.2,0,0.4-0.1,0.5c0,0.1,0,0.2,0,0.2V16c0,0,0,0.1,0,0.1c0,0.3,0,0.4,0.1,0.7c0,0.2,0,0.3,0.1,0.5
		c0,0.2,0,0.3,0.2,0.5C2,17.9,2.2,17.9,2.4,18h0.1c0.1,0,0.2,0,0.3-0.1c0,0,0.1,0,0.1-0.1c0.3-0.3,0.6-0.6,0.9-0.9
		c0.2-0.2,0.3-0.4,0.5-0.5c0-0.1,0.1-0.1,0.1-0.2c0-0.1,0.1-0.1,0.1-0.2c0,0,0,0,0-0.1c0-0.1,0-0.2,0-0.2c0,0,0-0.1,0-0.1l0,0
		c-0.1,0-0.2,0-0.2,0s-0.1,0-0.1,0c-0.1,0-0.2-0.1-0.2-0.1c-0.1,0-0.1,0-0.2,0H3.4c-0.1,0-0.2,0-0.3,0c0,0-0.1-0.1-0.1-0.1
		c-0.1-0.1-0.1-0.1-0.1-0.2v-0.4c0-0.1,0.1-0.2,0.2-0.3c0,0,0.1,0,0.1-0.1c0.1,0,0.2,0,0.2,0c0.1,0,0.2,0,0.3-0.1
		c0.2-0.1,0.4-0.1,0.6-0.1c0.1,0,0.1,0,0.2,0s0.1,0,0.2,0c0.2,0,0.3,0,0.4,0c0.1,0,0.2,0,0.3,0.1c0.2,0.1,0.4,0.2,0.6,0.4
		c0.1,0.1,0.1,0.2,0.1,0.4c0,0.1,0.1,0.2,0.1,0.4c0,0.1,0.1,0.2,0.1,0.4C6.4,16,6.4,16.1,6.4,16.2L6.4,16.2z"/>
	<path class="st0" d="M13.2,13.1v0.9c0,0.2,0,0.3-0.1,0.5c0,0.1,0,0.2,0,0.3V15c0,0.1,0,0.2-0.1,0.3c0,0,0,0.1,0,0.1
		c0,0.3-0.1,0.5-0.1,0.8c0,0.2-0.1,0.3-0.1,0.5v0c-0.1,0.2-0.1,0.5-0.2,0.8c0,0.2-0.1,0.4-0.1,0.6c-0.1,0.2-0.1,0.4-0.2,0.6
		c0,0.3-0.1,0.5-0.2,0.8S12.1,20,12,20.2c0,0-0.1,0.1-0.1,0.1c0,0-0.1,0-0.1,0h-0.2c-0.1,0.1-0.2,0.1-0.2,0.1c0,0-0.1,0-0.1,0
		c-0.1-0.1-0.2-0.2-0.3-0.2h0c-0.1-0.1-0.2-0.2-0.2-0.3c0-0.1,0-0.1,0-0.2c0-0.1,0-0.2,0-0.3c0.1-0.3,0.1-0.5,0.2-0.8
		c0-0.2,0.1-0.3,0.1-0.5s0.1-0.3,0.1-0.5c0-0.1,0.1-0.2,0.1-0.3v0c0,0,0-0.1-0.1-0.1c-0.1,0-0.2,0-0.3,0c-0.1,0-0.2,0-0.2,0
		c-0.2,0-0.4,0-0.6,0H9.6c-0.1,0-0.1,0.1-0.2,0.2c-0.1,0.3-0.2,0.6-0.2,0.9c-0.1,0.3-0.1,0.6-0.2,0.9c0,0.2-0.1,0.4-0.1,0.6
		c0,0.1-0.1,0.1-0.1,0.2c-0.1,0.1-0.1,0.1-0.2,0.1h0c0,0-0.1,0-0.1,0c-0.1,0-0.2-0.1-0.3-0.3v-0.2c0-0.2,0-0.4,0.1-0.6
		c0,0,0-0.1,0-0.1c0-0.2,0-0.4,0.1-0.6c0-0.4,0.1-0.7,0.2-1c0,0,0-0.1,0-0.1c0,0-0.1-0.1-0.1-0.1c-0.1,0-0.1-0.1-0.2-0.1
		c-0.2,0-0.3-0.2-0.5-0.3c0,0-0.1-0.1-0.1-0.1c0-0.1,0-0.1,0-0.2s0-0.2,0.1-0.3c0-0.1,0.1-0.1,0.1-0.2l0,0c0,0,0.1,0,0.1,0
		c0.2,0,0.3,0,0.5,0.1c0.2,0,0.3,0,0.5,0c0.1,0,0.1-0.1,0.2-0.2c0.1-0.2,0.2-0.4,0.3-0.7c0-0.1,0.1-0.2,0.1-0.3
		c0.2-0.4,0.4-0.8,0.7-1.2c0.1-0.1,0.2-0.3,0.3-0.5c0.1-0.1,0.1-0.1,0.2-0.2c0.2-0.2,0.4-0.5,0.6-0.7c0.1-0.1,0.1-0.2,0.2-0.3
		c0.1-0.1,0.2-0.2,0.4-0.3c0.1-0.1,0.2-0.1,0.4-0.2c0,0,0.1,0,0.1,0c0,0,0.1,0,0.1,0c0.1,0.1,0.2,0.3,0.3,0.4
		c0.1,0.1,0.3,0.2,0.4,0.4C13.1,12.6,13.2,12.9,13.2,13.1L13.2,13.1z M11.8,13.8v-0.2c0,0,0-0.1,0-0.1c0,0-0.1,0-0.1,0
		c0,0-0.1,0.1-0.1,0.1c-0.1,0.2-0.2,0.3-0.4,0.5c-0.1,0.1-0.1,0.2-0.2,0.2l-0.2,0.2c-0.1,0.2-0.2,0.4-0.3,0.6
		c-0.1,0.2-0.2,0.4-0.3,0.6c0,0,0,0.1,0,0.1v0.1c0,0.1,0,0.1,0.1,0.1c0.1,0,0.2,0.1,0.3,0.1h0.7c0,0,0.1,0,0.1,0
		c0.1,0,0.1-0.1,0.2-0.2c0-0.1,0-0.3,0.1-0.4c0-0.1,0-0.2,0-0.3c0-0.2,0-0.5,0.1-0.7c0-0.2,0-0.3,0.1-0.5
		C11.8,13.9,11.8,13.9,11.8,13.8L11.8,13.8z"/>
	<path class="st0" d="M22.2,11.7C22.2,11.7,22.2,11.7,22.2,11.7c0,0.1,0,0.1,0,0.2c0,0.1,0,0.2,0,0.3c0,0.7,0,1.2,0,1.7V14
		c0,0.2,0,0.4,0,0.6c0,0.1,0,0.1,0,0.2c0,0.3,0,0.4,0,0.7c0,0.5,0,0.7,0,1.2c0,0.2,0,0.2,0,0.4c0,0.2,0,0.2,0,0.4c0,0.2,0,0.3,0,0.5
		c0,0.2,0,0.3-0.1,0.5c0,0.1,0,0.1,0,0.2c0,0,0,0,0,0.1c0,0.1,0,0.2,0,0.4c0,0.1,0,0.2-0.1,0.3c0,0.3,0,0.4-0.1,0.7
		c0,0.3-0.1,0.5-0.2,0.7c0,0.1-0.1,0.1-0.2,0.1c-0.2,0-0.2,0-0.4,0c-0.1,0-0.1,0-0.3,0c-0.1,0-0.1,0-0.2,0c0,0-0.1,0-0.1,0
		c-0.1-0.1-0.1-0.2-0.2-0.3c0,0,0,0,0,0l0,0c0-0.2,0-0.4,0-0.6c0-0.2,0.1-0.3,0.1-0.5c0-0.2,0-0.3,0.1-0.5c0-0.1,0-0.1,0-0.2
		c0-0.1,0-0.2,0-0.3c0-0.2,0-0.2,0-0.4c0-0.1,0-0.1,0-0.2c0-0.1,0-0.1,0-0.2c0-0.3,0-0.5,0.1-0.8c0-0.3,0-0.4,0.1-0.7
		c0-0.1,0-0.1,0-0.2c0-0.7,0-1.2,0-1.8c0-0.1,0-0.2-0.1-0.2c0,0-0.1,0.1-0.1,0.1c-0.1,0.2-0.3,0.4-0.3,0.7c0,0,0,0.1,0,0.1
		c-0.2,0.3-0.3,0.6-0.5,0.9c-0.1,0.2-0.2,0.4-0.4,0.6c-0.1,0.1-0.3,0.2-0.5,0.3c0,0-0.1,0-0.1,0c0,0-0.1,0-0.1,0
		c-0.2-0.1-0.4-0.1-0.5-0.2c-0.2-0.1-0.3-0.2-0.4-0.4c-0.1-0.1-0.2-0.2-0.3-0.4c-0.1-0.2-0.2-0.4-0.3-0.6c-0.1-0.2-0.3-0.5-0.4-0.8
		c0-0.1,0-0.1-0.1-0.1c0,0.1-0.1,0.3-0.1,0.4c0,0.1,0,0.1,0,0.2c0,0.1,0,0.3,0,0.4c0,0.2,0,0.3,0,0.4c0,0.1,0,0.2,0,0.3
		c0,0.3,0,0.6,0,1c0,0.2,0,0.3,0,0.4c0,0.2,0,0.3,0,0.5v0c0,0.1,0,0.2-0.1,0.3l0,0c0,0.1,0,0.1,0,0.2c0,0.1,0,0.2,0,0.3
		c0,0.1,0,0.2,0,0.2c0,0,0,0.1,0,0.2c0,0.1,0,0.1,0,0.2c0,0.1,0,0.2,0,0.3c0,0.3,0,0.4-0.1,0.9c-0.1,0.1-0.1,0.1-0.2,0.2
		c-0.1,0.1-0.1,0.2-0.2,0.2c-0.1,0-0.2,0-0.3,0c-0.1,0-0.1,0-0.2,0c0,0-0.1,0-0.1,0c0,0,0,0-0.1-0.1c-0.1-0.2-0.1-0.5-0.1-0.7
		c0-0.2,0-0.3-0.1-0.5c0-0.1,0-0.1,0-0.2v-1.8c0-0.2,0-0.3,0-0.4c0-0.1,0-0.1,0-0.2c0-0.4,0-0.5,0-0.9c0-0.2,0-0.3,0.1-0.5
		c0-0.1,0-0.2,0-0.3c0-0.2,0-0.3,0-0.5v-0.2c0-0.3,0.1-0.4,0.1-0.7c0-0.2,0-0.4,0-0.6v-0.2c0-0.3,0.1-0.4,0.1-0.7c0-0.1,0-0.1,0-0.2
		c0-0.1,0-0.1,0.1-0.2c0-0.1,0.1-0.3,0.1-0.4c0.1-0.1,0.1-0.1,0.2-0.2c0.1,0,0.2,0.1,0.2,0.1c0.1,0,0.2-0.1,0.3-0.1c0,0,0.1,0,0.1,0
		c0.3,0.1,0.5,0.4,0.7,0.6c0.1,0.1,0.1,0.2,0.2,0.3c0.2,0.4,0.4,0.7,0.5,1.1c0,0.2,0.1,0.3,0.2,0.5c0,0.1,0.1,0.3,0.2,0.4
		c0.1,0.2,0.1,0.3,0.2,0.4c0,0,0.1,0.1,0.1,0.1c0,0,0.1,0,0.1,0c0.1-0.2,0.2-0.3,0.3-0.5l0.3-0.7c0.1-0.3,0.3-0.6,0.5-0.8
		c0,0,0.1-0.1,0.1-0.1c0.1-0.1,0.1-0.2,0.2-0.3c0.3-0.4,0.6-0.7,1-1.1c0.1,0,0.1-0.1,0.2-0.1c0,0,0.1,0,0.2,0c0,0,0.1,0,0.1,0
		c0.2,0.1,0.4,0.2,0.6,0.3c0.1,0.1,0.1,0.1,0.2,0.2C22.2,11.6,22.2,11.7,22.2,11.7L22.2,11.7z"/>
	<path class="st0" d="M28.9,12.4C28.9,12.4,28.9,12.4,28.9,12.4c-0.2,0.1-0.2,0.1-0.4,0.1c-0.1,0-0.1,0.1-0.2,0.2
		c-0.2,0.1-0.4,0.1-0.5,0.1c-0.1,0-0.3,0-0.5,0c-0.1,0-0.2,0-0.4,0c-0.2,0-0.3,0-0.4,0c0,0-0.1,0.1-0.1,0.1c0,0.1,0,0.1,0,0.1v0.4
		c0,0.3,0,0.6,0,0.9c0,0.1,0,0.2,0,0.4c0,0,0,0.1,0,0.1c0,0.1,0,0.1,0.1,0.1c0,0,0,0,0.1,0c0.2,0,0.4,0,0.6,0h0c0.2,0,0.4,0,0.6,0
		h0.2c0.1,0,0.2,0,0.4,0.1c0,0,0.1,0,0.1,0.1c0.1,0.1,0.1,0.2,0.1,0.3c0,0.1,0,0.1,0,0.2s0,0.1,0,0.2c0,0,0,0.1-0.1,0.1
		c-0.2,0.1-0.3,0.1-0.4,0.1c-0.1,0-0.2,0.1-0.3,0.1c-0.1,0-0.2,0-0.4,0.1c-0.1,0-0.1,0-0.2,0h0c-0.1,0-0.2,0-0.4,0
		c-0.1,0-0.2,0-0.2,0c-0.1,0-0.2,0.1-0.2,0.2c0,0,0,0,0,0.1c0,0.2,0,0.3-0.1,0.5c0,0.1,0,0.1,0,0.2c0,0.1,0,0.2,0,0.3c0,0,0,0,0,0.1
		c0,0.2,0,0.3,0,0.5c0,0.2,0,0.3-0.1,0.4c0,0.3-0.2,0.3-0.2,0.6c0,0,0,0,0,0.1c0,0.1,0.1,0.1,0.1,0.1c0.1,0,0.1,0,0.2,0
		c0.3,0,0.5,0,0.9,0H27c0.2,0,0.3,0,0.4,0.1c0,0,0.1,0,0.1,0.1c0,0.1,0.1,0.1,0.1,0.2c0,0.1,0.1,0.3,0.1,0.4c0,0.1,0,0.1,0,0.2
		c0,0.1,0,0.1-0.1,0.2c-0.2,0.1-0.3,0.1-0.5,0.1c-0.4,0-0.8,0.1-1.1,0.1c-0.2,0-0.4,0-0.6-0.1c-0.2,0-0.5-0.1-0.9-0.2
		c-0.1,0-0.1-0.1-0.2-0.2c-0.1-0.1-0.1-0.2-0.2-0.3c-0.1-0.2-0.1-0.3-0.1-0.4c0-0.2,0-0.3,0.1-0.5c0-0.2,0-0.2,0.1-0.4
		c0-0.2,0.1-0.2,0.1-0.4c0,0,0,0,0-0.1c0-0.2,0-0.3,0.1-0.5c0-0.4,0.1-0.6,0.1-0.9c0-0.1,0-0.1,0-0.2c0,0,0-0.1-0.1-0.1
		c-0.1,0-0.2-0.1-0.3-0.1c-0.1,0-0.1-0.1-0.1-0.1C24,15.7,24,15.6,24,15.4c0,0,0-0.1,0-0.1s0-0.1,0-0.1c0,0,0-0.1,0-0.1
		c0.3-0.1,0.5,0,0.8-0.1c0,0,0-0.1,0-0.1c0-0.2,0.1-0.3,0.1-0.5s0-0.3,0.1-0.5v-0.1l0,0c0-0.3,0-0.6,0-0.9v-0.2
		c0-0.1-0.1-0.1-0.2-0.2c-0.1-0.1-0.1-0.2-0.1-0.3c0-0.1-0.1-0.1-0.1-0.2c0,0,0,0,0-0.1l0,0c0-0.1,0.1-0.3,0.2-0.3
		c0.3-0.1,0.4-0.1,0.6-0.1s0.4,0,0.7,0c0.2,0,0.4,0,0.5-0.1c0,0,0.1,0,0.1,0h0.6c0.1,0,0.2,0,0.3,0c0.3,0,0.4,0,0.5,0h0.1
		c0.1,0,0.3,0.1,0.3,0.1c0.1,0.1,0.2,0.2,0.2,0.3C28.9,12.1,28.9,12.2,28.9,12.4L28.9,12.4z"/>
	<path class="st0" d="M41.9,15.1L41.9,15.1c0,0.1-0.1,0.1-0.2,0.2c-0.1,0.1-0.1,0.1-0.2,0.2c-0.3,0.1-0.5,0.1-0.8,0.2c0,0,0,0,0,0
		c-0.3,0.1-0.5,0.2-0.8,0.2c-0.1,0-0.2,0.1-0.2,0.1c-0.1,0.1,0,0.2-0.1,0.3s-0.1,0.2-0.1,0.3c0,0.1-0.1,0.2-0.1,0.3
		c0,0.1,0,0.1,0,0.2c-0.1,0.1-0.1,0.3-0.2,0.4c0,0.1-0.1,0.3-0.1,0.4v0l0.1,0.2c0.3,0.4,0.5,0.6,0.8,1v0c0,0,0,0.1,0,0.1
		s0,0.1,0,0.1c0,0,0,0,0,0c-0.1,0.1-0.2,0.1-0.3,0.2h0c0,0,0,0-0.1,0c-0.1-0.1-0.2-0.2-0.3-0.3c-0.1-0.1-0.3-0.2-0.4-0.4
		c0,0-0.1,0-0.1,0c0,0-0.1,0.1-0.1,0.1c-0.1,0.2-0.2,0.3-0.3,0.4c0,0-0.1,0.1-0.1,0.1c-0.1,0.1-0.2,0.1-0.3,0.2s-0.2,0.2-0.3,0.3
		c0,0-0.1,0.1-0.1,0.1c0,0,0,0-0.1,0c-0.2,0.1-0.3,0.1-0.6,0.2c-0.1,0-0.2,0.1-0.3,0.1c0,0-0.1,0-0.1,0c-0.2,0-0.2-0.2-0.4-0.2
		c-0.1,0-0.2-0.1-0.2-0.1c-0.1-0.1-0.3-0.1-0.4-0.3c-0.1-0.1-0.1-0.2-0.2-0.4C35.1,19.1,35,19,35,18.8c-0.1-0.2-0.1-0.3-0.1-0.5
		c0-0.1,0-0.1,0-0.2c0-0.1,0-0.2,0-0.4c0,0,0-0.1,0-0.2c0-0.1,0-0.1,0-0.2c0-0.1,0-0.2,0-0.3c0.1-0.2,0.1-0.4,0.2-0.6
		c0,0,0-0.1,0-0.1c0.2-0.3,0.3-0.6,0.5-0.8c0-0.1,0-0.1,0-0.2c0-0.1,0-0.2-0.1-0.3c-0.1-0.2-0.1-0.4-0.2-0.6c0-0.1,0-0.3,0-0.4
		c0-0.1,0-0.3,0-0.4c0.1-0.2,0.1-0.5,0.2-0.7c0.1-0.3,0.3-0.6,0.5-0.8c0-0.1,0.1-0.1,0.1-0.1c0.1-0.1,0.3-0.2,0.4-0.3
		c0.1-0.1,0.1-0.1,0.2-0.1c0.3-0.2,0.4-0.2,0.7-0.3c0.2-0.1,0.3-0.1,0.5-0.1h0.3c0.1,0,0.2,0,0.3,0h0c0.1,0,0.2,0.1,0.4,0.1h0.1
		c0,0,0,0,0.1,0c0,0,0.1,0.1,0.1,0.1c0.1,0.2,0,0.3,0.1,0.5c0,0.1,0.1,0.1,0.2,0.2c0,0.1,0,0.1,0,0.1c0,0.1,0,0.1,0,0.2
		c0,0.1,0,0.1,0,0.1c-0.1,0.2-0.2,0.3-0.3,0.5c-0.1,0.2-0.2,0.3-0.3,0.4c0,0.1-0.2,0.2-0.3,0.4c-0.2,0.2-0.5,0.5-0.8,0.7
		c0,0-0.1,0.1-0.1,0.1c0,0.1-0.1,0.1-0.1,0.1c-0.3,0.3-0.5,0.6-0.7,0.9c0,0,0,0.1,0,0.1c0,0.1,0,0.1,0,0.2c0.2,0.2,0.3,0.4,0.5,0.5
		c0.1,0.1,0.2,0.1,0.3,0.2h0c0,0,0,0,0.1,0c0,0,0.1-0.1,0.1-0.1c0-0.1,0.1-0.2,0.1-0.4c0-0.2,0.1-0.4,0.1-0.6v0c0-0.2,0-0.3,0.1-0.5
		c0-0.1,0.1-0.2,0.1-0.2c0.1-0.1,0.3-0.1,0.4-0.2c0.1-0.1,0.3,0,0.4-0.1c0.1,0,0.1,0,0.2,0c0.2,0,0.4-0.1,0.7-0.1
		c0.1,0,0.2,0,0.3-0.1c0.1,0,0.1,0,0.2-0.1c0.1,0,0.2,0,0.3,0c0,0,0.1,0,0.1,0c0.1,0,0.1,0.1,0.1,0.1c0.1,0.1,0,0.2,0.1,0.3
		c0.1,0.1,0.2,0.1,0.2,0.2C41.9,14.9,41.9,15,41.9,15.1L41.9,15.1z M37.7,17.5c0,0,0-0.1,0-0.1c-0.1-0.1-0.1-0.1-0.2-0.2
		c-0.1,0-0.1-0.1-0.2-0.2c-0.1-0.1-0.2-0.2-0.3-0.4c0,0-0.1,0-0.1,0c0,0-0.1,0-0.1,0.1c-0.1,0.1-0.2,0.2-0.2,0.3
		c0,0.1-0.1,0.2-0.1,0.4c0,0,0,0.1,0,0.1c0,0.2,0,0.4,0,0.5c0,0.1,0,0.2,0.1,0.4c0,0.2,0.1,0.2,0.2,0.2c0,0,0.1,0,0.1,0
		c0,0,0,0,0.1,0c0.2-0.2,0.4-0.4,0.6-0.6C37.5,17.9,37.6,17.8,37.7,17.5L37.7,17.5z M36.5,13.9c0,0.1,0,0.1,0.1,0.2
		c0.1,0,0.1-0.1,0.2-0.1c0.2-0.2,0.3-0.4,0.5-0.6c0-0.1,0.1-0.1,0.2-0.2c0.2-0.2,0.4-0.4,0.6-0.6c0.1-0.1,0.1-0.2,0.2-0.2
		c0-0.1,0-0.2,0-0.3c0,0,0-0.1-0.1-0.1h-0.2c-0.2,0.1-0.5,0.1-0.7,0.3c-0.1,0.1-0.2,0.2-0.3,0.2c-0.1,0.1-0.2,0.3-0.3,0.4
		c0,0,0,0.1,0,0.2C36.6,13.3,36.6,13.6,36.5,13.9C36.5,13.8,36.5,13.8,36.5,13.9L36.5,13.9z"/>
	<path class="st0" d="M52.4,19.6c0,0.2-0.1,0.2-0.2,0.4C52.1,20,52,20,52,20h-0.1c-0.1,0-0.1,0-0.2,0c0,0-0.1,0-0.1,0
		c-0.1,0,0,0-0.1-0.1c-0.1,0-0.1-0.1-0.1-0.1c-0.1-0.2-0.2-0.3-0.3-0.5c-0.1-0.1,0-0.2-0.1-0.4c0-0.1,0-0.2,0-0.3
		c0-0.2-0.1-0.3-0.1-0.5c0-0.2-0.1-0.4-0.1-0.6c0-0.1,0-0.2-0.1-0.3c-0.3,0.1-1.4,0.1-1.5,0.3c0,0.1,0,0.3-0.1,0.5
		c0,0.1,0,0.2,0,0.3c0,0.2,0,0.4-0.1,0.6c0,0,0,0,0,0.1v0.2c0,0.1,0,0.1,0,0.2c0,0.1,0,0.2,0,0.3c-0.1,0.4-0.3,0.6-0.5,0.6
		c0,0-0.1,0-0.1,0c-0.2,0-0.3-0.1-0.5-0.2c-0.1-0.1-0.1-0.2-0.2-0.4v-0.1c0-0.1,0-0.1,0-0.2c0-0.2,0-0.4,0.1-0.6c0-0.1,0-0.2,0-0.4
		c0-0.2,0-0.3,0-0.5c0-0.3,0-0.4,0-0.7c0-0.2,0.1-0.3,0.1-0.5c0-0.1,0-0.1,0-0.2v-0.2c0-0.1,0-0.1,0-0.2c0-0.2,0-0.4,0.1-0.6
		c0-0.1,0-0.1,0-0.1c0-0.2,0-0.4,0.1-0.6c0-0.1,0-0.1,0-0.1c0-0.3,0-0.5,0.1-0.8c0.1-0.4,0.2-0.9,0.2-1.4c0-0.1,0-0.1,0-0.2
		c0-0.2,0-0.3,0.1-0.5c0.2-0.2,0.3-0.4,0.5-0.5c0.2-0.1,0.2-0.1,0.3-0.1c0.1,0,0.1,0,0.3,0.1c0.3,0.1,0.4,0.4,0.7,0.6
		c0.1,0.1,0.1,0.2,0.1,0.3c0.2,0.5,0.3,0.9,0.5,1.4c0.1,0.3,0.2,0.4,0.2,0.7c0.1,0.2,0.1,0.4,0.2,0.6c0,0.2,0.1,0.3,0.1,0.4
		c0.1,0.4,0.2,0.6,0.2,0.9c0.1,0.3,0.2,0.6,0.2,1c0,0.2,0.1,0.3,0.1,0.5c0.1,0.3,0.1,0.4,0.2,0.7c0,0.1,0,0.1,0,0.2
		c0,0.2,0.1,0.2,0.1,0.4c0,0.1,0,0.1,0,0.2v0.2C52.4,19.5,52.4,19.6,52.4,19.6L52.4,19.6z M50.2,15.5c-0.1-0.2-0.2-0.7-0.3-1.1
		c-0.1-0.4-0.2-0.8-0.3-0.8c0,0-0.1,0.2-0.1,0.3c0,0.4-0.2,1.5-0.2,1.9c0,0.1,0,0.1,0,0.2c0,0,0,0.1,0.1,0.1c0.1,0,0.7,0,1,0.1
		C50.4,16,50.3,15.7,50.2,15.5L50.2,15.5z"/>
	<path class="st0" d="M57.5,17.2c-0.1,0-0.2-0.1-0.4-0.1c-0.2,0-1.2-0.5-1.5-0.7c-0.1,0-0.3-0.2-0.4-0.2c0,0,0,0,0,0
		c0,0.1,0,0.1,0,0.2v0c0,0,0,0,0,0.1c0,0.1,0,0.2,0,0.2s0,0.2,0,0.3c0,0.1,0,0.2,0,0.3c0.1,0.4,0,0.9,0.1,1.4l0,0
		c0,0.1,0,0.2-0.1,0.2c-0.1,0.1-0.2,0.1-0.3,0.1c-0.1,0-0.1,0-0.2,0c0,0-0.2,0-0.2,0c-0.3-0.1-0.2-0.1-0.4-0.2s-0.1-0.3-0.2-0.5
		c0-0.1,0-0.2,0-0.3v-0.1c0-0.1,0-0.1,0-0.2c0-0.2,0-0.3,0-0.5c0-0.2,0-0.3,0-0.5c0-0.4,0-0.8,0-1.2c0-0.1,0-0.2,0-0.3
		c0-0.2,0-0.3,0-0.4c0-0.1,0-0.3,0-0.4c0-0.1,0-0.1,0-0.2c0-0.1,0-0.4,0-0.5c0-0.1,0.1-0.1,0.1-0.1c0.1-0.1,1.3-0.2,1.6-0.3
		c0.1,0,0.2,0,0.3,0c0.2,0,0.3,0,0.5,0h0.2c0.1,0,0.1,0,0.2,0c0.2,0,0.3,0.1,0.5,0.1c0,0,0.1,0,0.1,0c0,0,0.1,0,0.2,0
		c0.1,0,0.1,0,0.2,0c0.3,0.1,0.5,0.2,0.7,0.4c0.2,0.2,0.4,0.6,0.4,0.9v0c0,0.3-0.2,0.4-0.3,0.6c-0.2,0.3-0.7,0.5-1,0.7
		c0,0,0,0.1,0,0.1c0,0,0,0.1,0,0.1c0.2,0.1,1.1,0.6,1.3,0.7c0.3,0.1,0.4,0.2,0.4,0.3c0,0,0,0.1,0,0.2s0,0.2-0.1,0.2
		c-0.1,0.1-0.4,0.4-0.6,0.4c-0.1,0-0.1,0-0.2,0C58.2,17.6,57.8,17.3,57.5,17.2L57.5,17.2z M57.3,14.5C57.3,14.5,57.3,14.5,57.3,14.5
		c-0.1-0.1-0.4-0.2-0.4-0.2c-0.2,0-0.4,0-0.6,0c-0.1,0-0.2,0-0.3,0c0,0-0.1,0-0.1,0h-0.2c-0.2,0-0.3,0-0.5,0.1c0,0-0.1,0.1-0.1,0.2
		c0,0.1,0,0.1,0,0.1v0.2c0,0.1,0.1,0.2,0.2,0.2c0,0,0.1,0,0.1,0c0.1,0,0.2,0,0.3-0.1c0.2,0,0.2-0.1,0.4-0.1c0.4-0.2,0.7-0.3,1-0.4
		c0,0,0,0,0.1,0C57.2,14.6,57.3,14.6,57.3,14.5C57.3,14.6,57.3,14.6,57.3,14.5L57.3,14.5L57.3,14.5z"/>
	<path class="st0" d="M66.2,14.1c-0.1,0.1-0.2,0.1-0.4,0.1c-0.1,0-0.2,0-0.4,0.1c-0.1,0-0.1,0-0.2,0c-0.1,0-0.2,0-0.4,0
		c-0.1,0-0.2,0-0.3,0.1c0,0-0.1,0-0.1,0c-0.1,0-0.1,0-0.2,0c-0.1,0-0.2,0.1-0.3,0.1c-0.1,0.1-0.1,0.1-0.1,0.2c0,0.2,0,0.3,0,0.5
		c0,0.1,0,0.1,0,0.2c0,0.6,0,0.9,0,1.5v0.2c0,0.3,0,0.6,0,0.9c0,0.1,0,0.1,0,0.2c0,0.2-0.1,0.4-0.1,0.6c0,0,0,0.1,0,0.1
		c0,0,0,0-0.1,0h0c-0.1,0-0.2,0-0.4-0.1c-0.1-0.1-0.2-0.1-0.3-0.2c-0.1-0.1-0.3-0.1-0.3-0.3c0-0.1,0-0.2,0-0.3c0-0.2,0-0.4,0-0.6
		v-2.6c0-0.1,0-0.1-0.1-0.1c-0.1,0.1-0.2,0-0.3,0.1C62,14.9,61.9,15,61.7,15c-0.1,0-0.2,0-0.3,0c0,0-0.1,0-0.1,0
		c-0.3-0.1-0.5-0.2-0.8-0.4c-0.1-0.1-0.1-0.3-0.2-0.4c0,0,0-0.1,0-0.1c0,0,0-0.1,0-0.1c0.1-0.1,0.2-0.1,0.3-0.2c0,0,0.1,0,0.1,0
		c0.3-0.1,0.5-0.2,0.9-0.2c0.2-0.1,0.3-0.1,0.5-0.1c0.2,0,0.3-0.1,0.4-0.1c0.2,0,0.3-0.1,0.5-0.1c0.2-0.1,0.3-0.1,0.5-0.1
		s0.3-0.1,0.5-0.1c0.2,0,0.2-0.1,0.4-0.1c0.2,0,0.2-0.1,0.4-0.1c0.3,0,0.4-0.1,0.7-0.1c0.1,0,0.1,0,0.2,0c0.2,0,0.3,0.1,0.4,0.2
		c0.1,0.1,0.1,0.1,0,0c0.1,0.1,0.1,0.2,0.2,0.3c0,0,0,0.1,0,0.2c0,0.1,0,0.3,0,0.4C66.2,13.9,66.2,14.1,66.2,14.1L66.2,14.1z"/>
	<path class="st0" d="M11.5,24.2v0.2c-0.1,0.2-0.2,0.3-0.3,0.5l-0.4,0.4c0,0-0.1,0.1-0.1,0.1c-0.2,0.1-0.3,0.2-0.5,0.4
		c-0.4,0.3-0.6,0.4-0.9,0.7c-0.1,0.1-0.2,0.1-0.3,0.2c-0.1,0.1-0.1,0.2-0.2,0.2c0,0-0.1,0-0.1,0H8.6c-0.1,0-0.1,0-0.2,0.1
		c-0.1,0-0.1,0-0.1,0c0,0-0.1,0-0.1,0.1c0,0.1,0,0.1,0,0.2v0.2c0,0.3-0.1,0.5-0.1,0.8c0,0.1,0,0.1,0,0.2c0,0.2,0,0.3-0.1,0.4
		c0,0.1,0,0.1,0,0.2c0,0.2,0,0.3,0,0.4c0,0.1,0,0.2-0.1,0.4c0,0.1,0,0.2,0,0.3c0,0.2,0,0.3-0.1,0.5c0,0.1,0,0.2,0,0.3
		c0,0.2-0.1,0.3-0.1,0.5c0,0.1,0,0.1,0,0.2s0,0.1,0,0.2s0,0.1,0,0.2c-0.1,0.7-0.6,0.8-1,0.8c-0.3,0-0.4-0.4-0.4-0.8
		c0-0.2,0-0.4,0-0.5c0-0.2,0-0.2,0.1-0.4c0,0,0-0.1,0-0.1c0-0.2,0-0.3,0.1-0.5c0-0.1,0-0.2,0.1-0.4c0-0.2,0-0.4,0.1-0.6
		c0,0,0-0.1,0-0.1c0-0.3,0.1-0.4,0.1-0.7c0-0.1,0-0.1,0-0.2c0-0.1,0-0.2,0.1-0.4c0-0.1,0-0.2,0.1-0.4c0-0.1,0-0.1,0-0.2
		c0-0.3,0-0.5,0-0.8c0-0.6,0-0.9,0-1.4c0-0.1,0-0.2,0-0.4c0-0.1,0-0.2,0-0.3v-1c0-0.1,0-0.1,0-0.2c0.1-0.1,0.2-0.3,0.3-0.4
		c0.1,0,0.3,0,0.4,0c0.1,0,0.2,0,0.3-0.1c0.2,0,0.4,0,0.7-0.1c0.1,0,0.1,0,0.1,0c0.2,0,0.3,0,0.5,0h0.1c0.3,0,0.4,0,0.7,0.1
		c0.1,0,0.6,0.1,0.6,0.2c0.1,0.1,0.3,0.2,0.4,0.3c0,0,0,0,0,0c0,0,0.1,0.1,0.1,0.1c0.1,0.1,0.1,0.3,0.2,0.4
		C11.4,24,11.5,24.1,11.5,24.2L11.5,24.2z M10.2,24.2c-0.1-0.2-0.3-0.2-0.5-0.3c-0.3,0-0.5,0-0.8,0c-0.2,0-0.4,0-0.5,0
		c-0.1,0-0.2,0.1-0.2,0.1c0,0-0.1,0.1-0.1,0.2c0,0.1,0.1,0.1,0.1,0.2v1.2c0,0,0,0.1,0,0.1s0,0,0.1,0c0,0,0,0,0,0s0,0,0.1,0
		c0.2-0.1,0.4-0.3,0.6-0.4C9,25.2,9.1,25.1,9.2,25c0.3-0.2,0.6-0.5,0.9-0.7C10.1,24.3,10.2,24.3,10.2,24.2
		C10.2,24.2,10.2,24.2,10.2,24.2L10.2,24.2z"/>
	<path class="st0" d="M17.1,27.6c0,0.1,0,0.3,0,0.4c0,0.2,0,0.4-0.1,0.6c-0.1,0.5-0.1,0.7-0.4,1.2c0,0.1,0,0.1,0,0.2
		c0,0.1-0.1,0.2-0.1,0.3c0,0,0,0.1-0.1,0.2c-0.3,0.3-0.4,0.6-0.8,1c-0.2,0.2-0.3,0.2-0.5,0.3C15,32,14.9,32,14.7,32
		c-0.1,0-0.2,0-0.3,0.1c-0.1,0-0.1,0-0.2,0c-0.1,0-0.2,0-0.3,0c-0.1,0-0.1,0-0.2,0c-0.4-0.2-0.7-0.4-1-0.6c-0.2-0.1-0.3-0.3-0.4-0.5
		c-0.1-0.1-0.1-0.2-0.1-0.4c0-0.2-0.1-0.4-0.1-0.6c-0.1-0.1-0.1-0.2-0.1-0.3c0-0.2,0-0.4,0-0.5c0-0.3,0-0.6,0-0.9c0-0.1,0-0.3,0-0.4
		c0-0.2,0.1-0.4,0.1-0.7c0.1-0.4,0.2-0.8,0.3-1.1c0.1-0.3,0.2-0.5,0.3-0.7c0.1-0.1,0.2-0.3,0.2-0.4c0,0,0.1-0.1,0.1-0.1
		c0.3-0.3,0.5-0.6,0.9-0.8c0,0,0.1,0,0.1,0c0.1,0,0.2,0,0.3,0h0.1c0.2,0,0.3,0,0.4,0h0c0.2,0,0.4,0.1,0.6,0.3
		c0.2,0.2,0.3,0.4,0.4,0.6c0.1,0.2,0.2,0.4,0.4,0.6c0.1,0.1,0.2,0.3,0.2,0.4c0,0.1,0.1,0.1,0.1,0.2c0,0.1,0.1,0.2,0.1,0.3
		c0,0.2,0.1,0.4,0.1,0.6C17.1,27.2,17.1,27.4,17.1,27.6L17.1,27.6z M15.8,27.3L15.8,27.3c0-0.3,0-0.5-0.1-0.7
		c-0.1-0.2-0.1-0.4-0.2-0.6c-0.1-0.2-0.2-0.4-0.3-0.5c-0.1-0.2-0.2-0.4-0.4-0.5c0,0-0.1,0-0.1,0c-0.2,0.2-0.3,0.4-0.4,0.7
		c-0.2,0.3-0.3,0.6-0.4,1c0,0.2,0,0.3-0.1,0.5c-0.1,0.2-0.1,0.3-0.2,0.5c-0.1,0.2,0,0.4-0.1,0.5c0,0.3,0,0.7,0,1c0,0.2,0,0.4,0,0.6
		c0,0.1,0,0.1,0,0.2c0.1,0.2,0,0.5,0.2,0.7c0.1,0.1,0.2,0.2,0.4,0.2h0.1c0.2,0,0.2-0.1,0.3-0.2c0.2-0.2,0.2-0.3,0.4-0.5
		c0.1-0.2,0.2-0.3,0.3-0.5c0.1-0.2,0.1-0.3,0.2-0.5c0.1-0.2,0.2-0.3,0.2-0.5c0,0,0-0.1,0.1-0.1c0-0.2,0.1-0.3,0.1-0.5
		c0-0.1,0-0.1,0-0.2C15.7,27.6,15.8,27.5,15.8,27.3L15.8,27.3z"/>
	<path class="st0" d="M22.5,29.2c-0.1,0-0.2-0.1-0.4-0.1c-0.2,0-1.2-0.5-1.5-0.7c-0.1,0-0.3-0.2-0.4-0.2c0,0,0,0,0,0
		c0,0.1,0,0.1,0,0.2v0c0,0,0,0,0,0.1c0,0.1,0,0.2,0,0.2s0,0.2,0,0.3c0,0.1,0,0.2,0,0.3c0.1,0.4,0,0.9,0.1,1.4l0,0
		c0,0.1,0,0.2-0.1,0.2s-0.2,0.1-0.3,0.1c-0.1,0-0.1,0-0.2,0c0,0-0.2,0-0.2,0c-0.3-0.1-0.2-0.1-0.4-0.2s-0.1-0.3-0.2-0.5
		c0-0.1,0-0.2,0-0.3v-0.1c0-0.1,0-0.1,0-0.2c0-0.2,0-0.3,0-0.5c0-0.2,0-0.3,0-0.5c0-0.4,0-0.8,0-1.2c0-0.1,0-0.2,0-0.3
		c0-0.2,0-0.3,0-0.5c0-0.1,0-0.3,0-0.4c0-0.1,0-0.1,0-0.2c0-0.1,0-0.4,0-0.5c0-0.1,0.1-0.1,0.1-0.1c0.1-0.1,1.3-0.2,1.6-0.3
		c0.1,0,0.2,0,0.3,0c0.2,0,0.3,0,0.5,0h0.2c0.1,0,0.1,0,0.2,0c0.2,0,0.3,0,0.5,0.1c0,0,0.1,0,0.1,0c0,0,0.1,0,0.2,0s0.1,0,0.2,0
		c0.3,0.1,0.5,0.2,0.7,0.4c0.2,0.2,0.4,0.6,0.4,0.9v0c0,0.3-0.2,0.4-0.3,0.6c-0.2,0.3-0.7,0.5-1,0.7c0,0,0,0,0,0.1c0,0,0,0.1,0,0.1
		c0.2,0.1,1.1,0.6,1.3,0.7c0.3,0.1,0.4,0.2,0.4,0.3c0,0,0,0.1,0,0.2s0,0.2-0.1,0.2c-0.1,0.1-0.4,0.4-0.6,0.4c-0.1,0-0.1,0-0.2,0
		C23.2,29.6,22.8,29.3,22.5,29.2L22.5,29.2z M22.4,26.5C22.4,26.5,22.4,26.5,22.4,26.5c-0.1-0.1-0.4-0.2-0.4-0.2c-0.2,0-0.4,0-0.6,0
		c-0.1,0-0.2,0-0.3,0c0,0-0.1,0-0.1,0h-0.2c-0.2,0-0.4,0-0.5,0.1c0,0-0.1,0.1-0.1,0.2c0,0,0,0.1,0,0.1v0.2c0,0.1,0.1,0.2,0.2,0.2
		c0,0,0.1,0,0.1,0c0.1,0,0.2,0,0.3,0c0.2,0,0.2-0.1,0.4-0.1c0.4-0.2,0.7-0.3,1-0.4c0,0,0,0,0.1,0C22.3,26.6,22.3,26.6,22.4,26.5
		C22.4,26.6,22.4,26.6,22.4,26.5L22.4,26.5L22.4,26.5z"/>
	<path class="st0" d="M31.2,26.1c-0.1,0.1-0.2,0.1-0.4,0.1c-0.1,0-0.2,0-0.4,0c-0.1,0-0.1,0-0.2,0c-0.1,0-0.2,0-0.4,0
		c-0.1,0-0.2,0-0.4,0.1c0,0-0.1,0-0.1,0c-0.1,0-0.1,0-0.2,0c-0.1,0-0.2,0.1-0.3,0.1c-0.1,0-0.1,0.1-0.1,0.2c0,0.2,0,0.3,0,0.5
		c0,0.1,0,0.1,0,0.2c0,0.6,0,0.9,0,1.5v0.2c0,0.3,0,0.6,0,0.9c0,0.1,0,0.1,0,0.2c0,0.2-0.1,0.4-0.1,0.6c0,0,0,0.1,0,0.1
		c0,0,0,0-0.1,0h0c-0.1,0-0.2,0-0.4-0.1c-0.1-0.1-0.2-0.1-0.3-0.2c-0.1-0.1-0.3-0.1-0.3-0.3c0-0.1,0-0.2,0-0.3c0-0.2,0-0.4,0-0.6
		v-2.6c0-0.1,0-0.1-0.1-0.1c-0.1,0-0.2,0-0.3,0.1c-0.1,0-0.3,0.1-0.4,0.1c-0.1,0-0.2,0-0.3,0c0,0-0.1,0-0.1,0
		c-0.3-0.1-0.5-0.2-0.8-0.4c-0.1-0.1-0.1-0.3-0.2-0.5c0,0,0-0.1,0-0.1c0,0,0-0.1,0-0.1c0.1-0.1,0.2-0.1,0.3-0.2c0,0,0.1,0,0.1,0
		c0.4-0.1,0.5-0.2,0.9-0.2c0.2,0,0.3-0.1,0.5-0.1c0.2,0,0.3-0.1,0.4-0.1c0.2,0,0.3-0.1,0.5-0.1c0.2,0,0.3-0.1,0.5-0.1s0.3,0,0.5-0.1
		c0.2,0,0.2,0,0.4-0.1c0.2,0,0.2-0.1,0.4-0.1c0.3,0,0.4-0.1,0.7-0.1c0,0,0.1,0,0.2,0c0.2,0,0.3,0.1,0.4,0.2c0.1,0.1,0.1,0.1,0,0
		c0.1,0.1,0.1,0.2,0.2,0.3c0,0,0,0.1,0,0.2c0,0.1,0,0.3,0,0.4C31.3,25.9,31.2,26.1,31.2,26.1L31.2,26.1z"/>
	<path class="st0" d="M37.7,24.4c0,0,0,0.1-0.1,0.2c-0.1,0.1-0.2,0.2-0.4,0.3c-0.1,0-0.2,0-0.2,0c-0.5,0-1,0-1.5,0
		c-0.2,0-0.4,0-0.6,0.1c0,0,0,0,0,0.1c0,0.2-0.1,0.4-0.1,0.5c0,0.2-0.1,0.3-0.1,0.5v0c-0.1,0.2-0.1,0.4-0.1,0.6c0,0,0,0.1,0,0.2
		s0,0.1,0,0.1c0,0,0.1,0,0.1,0c0.1,0,0.2,0,0.2,0H36c0.4,0.1,0.5,0.1,0.8,0.5c0,0.1,0,0.2,0,0.3s0,0.1,0,0.2
		c-0.1,0.1-0.2,0.1-0.2,0.1c-0.1,0-0.2,0.1-0.2,0.1c-0.3,0-0.6,0-0.9,0c-0.1,0-0.3,0-0.4,0.1c0,0-0.1,0-0.1,0c0,0-0.1,0-0.1,0
		c-0.1,0-0.1,0-0.2,0c0,0-0.1,0-0.1,0.1c0,0,0,0.1,0,0.1c0,0.7,0,1.4,0,2.2c0,0.1,0,0.1,0,0.2c0,0,0,0.1,0,0.2c0,0.2,0,0.4,0.1,0.6
		v0.1c0,0.1-0.1,0.1-0.2,0.2c0,0.1-0.1,0.1-0.1,0.2c-0.1,0-0.2,0.1-0.2,0.1c-0.1,0-0.2-0.1-0.2-0.1c0,0-0.1,0-0.1,0c0,0-0.1,0-0.2,0
		c-0.1,0-0.2-0.1-0.2-0.1c-0.1-0.1-0.2-0.2-0.2-0.4c0-0.1-0.1-0.3-0.1-0.4c0-0.2,0-0.3,0-0.5c0-0.1,0-0.2,0-0.3c0,0,0-0.1,0-0.1
		c0-0.3-0.1-0.5-0.1-0.8c0-0.2,0-0.3,0-0.5c0-0.1,0-0.2,0-0.3s0-0.2,0-0.4v-0.2c0-0.1,0-0.2,0-0.3c0,0,0-0.1,0-0.1v-0.1
		c0-0.2,0-0.4,0-0.6c0-0.1,0-0.2,0-0.3c0,0,0,0,0-0.1v0c0-0.2,0.1-0.5,0.1-0.7c0.1-0.2,0-0.4,0.1-0.6c0-0.2,0.1-0.4,0.1-0.7
		c0-0.1,0-0.3,0-0.4c0-0.1,0-0.1,0-0.2c0.1-0.2,0.3-0.3,0.4-0.3c0.2,0,0.4,0,0.6,0c0.1,0,0.3,0,0.4,0c0.1,0,0.1,0,0.2,0
		c0.6,0,1.2,0,1.8,0c0.1,0,0.1,0,0.2,0c0.2,0.1,0.3,0.1,0.4,0.3c0,0.1,0.1,0.1,0.2,0.1C37.6,24.2,37.6,24.3,37.7,24.4L37.7,24.4z"/>
	<path class="st0" d="M43.7,27.6c0,0.1,0,0.3,0,0.4c0,0.2,0,0.4-0.1,0.6c-0.1,0.5-0.1,0.7-0.4,1.2c0,0.1,0,0.1,0,0.2
		c0,0.1-0.1,0.2-0.1,0.3c0,0,0,0.1-0.1,0.2c-0.3,0.3-0.4,0.6-0.8,1c-0.2,0.2-0.3,0.2-0.5,0.3c-0.1,0.1-0.2,0-0.3,0.1
		c-0.1,0-0.2,0-0.3,0.1c-0.1,0-0.1,0-0.2,0c-0.1,0-0.2,0-0.3,0c0,0-0.1,0-0.2,0c-0.4-0.2-0.7-0.4-1-0.6c-0.2-0.1-0.3-0.3-0.4-0.5
		c-0.1-0.1-0.1-0.2-0.1-0.4c0-0.2-0.1-0.4-0.1-0.6c0-0.1-0.1-0.2-0.1-0.3c0-0.2,0-0.4,0-0.5c0-0.3,0-0.6,0-0.9c0-0.1,0-0.3,0-0.4
		c0-0.2,0.1-0.4,0.1-0.7c0.1-0.4,0.2-0.8,0.3-1.1c0.1-0.3,0.2-0.5,0.3-0.7c0.1-0.1,0.2-0.3,0.2-0.4c0,0,0.1-0.1,0.1-0.1
		c0.3-0.3,0.5-0.6,0.9-0.8c0,0,0.1,0,0.1,0c0.1,0,0.2,0,0.3,0h0.1c0.2,0,0.3,0,0.4,0h0c0.2,0,0.4,0.1,0.7,0.3
		c0.2,0.2,0.3,0.4,0.4,0.6c0.1,0.2,0.2,0.4,0.3,0.6c0.1,0.1,0.2,0.3,0.2,0.4c0,0.1,0.1,0.1,0.1,0.2c0,0.1,0.1,0.2,0.1,0.3
		c0,0.2,0.1,0.4,0.1,0.6C43.7,27.2,43.7,27.4,43.7,27.6L43.7,27.6z M42.4,27.3L42.4,27.3c0-0.3,0-0.5-0.1-0.7
		c-0.1-0.2-0.1-0.4-0.2-0.6c-0.1-0.2-0.2-0.4-0.3-0.5c-0.1-0.2-0.2-0.4-0.4-0.5c0,0-0.1,0-0.1,0c-0.2,0.2-0.3,0.4-0.4,0.7
		c-0.2,0.3-0.3,0.6-0.4,1c0,0.2,0,0.3-0.1,0.5c0,0.2-0.1,0.3-0.2,0.5s0,0.4-0.1,0.5c0,0.3,0,0.7,0,1c0,0.2,0,0.4,0,0.6
		c0,0.1,0,0.1,0,0.2c0.1,0.2,0,0.5,0.2,0.7c0.1,0.1,0.2,0.2,0.4,0.2h0.1c0.2,0,0.2-0.1,0.3-0.2c0.2-0.2,0.2-0.3,0.3-0.5
		c0.1-0.2,0.2-0.3,0.3-0.5c0.1-0.2,0.1-0.3,0.2-0.5c0.1-0.2,0.2-0.3,0.2-0.5c0,0,0-0.1,0-0.1c0-0.2,0.1-0.3,0.1-0.5
		c0-0.1,0-0.1,0-0.2C42.4,27.6,42.4,27.5,42.4,27.3L42.4,27.3z"/>
	<path class="st0" d="M49.3,31.7c0,0.1,0,0.3,0,0.5c0,0.1-0.1,0.2-0.2,0.2c-0.1,0-0.1,0-0.2,0c-0.1,0-0.2,0-0.3,0
		c-0.2,0-0.4,0.1-0.6,0.1c-0.1,0-0.3,0.1-0.4,0.1c-0.1,0-0.3,0-0.4,0c0,0,0,0,0,0c0,0,0,0,0,0c-0.1,0-0.2,0-0.2,0h-0.2
		c-0.1,0-0.1,0-0.2,0c-0.1-0.1-0.3-0.1-0.4-0.2c-0.1-0.1-0.2-0.2-0.2-0.3c-0.1-0.1-0.1-0.2-0.1-0.3c0-0.1,0-0.2,0-0.2
		c0-0.4,0-0.7,0-1.1v-0.2c0.1-0.3,0-0.6,0.1-0.8c0-0.1,0-0.3,0-0.4c0-0.2,0-0.4,0.1-0.6c0-0.1,0-0.3,0-0.4c0-0.1,0-0.2,0-0.4
		c0-0.1,0-0.2,0-0.3v-0.2c0-0.1,0-0.2,0-0.2c0.1-0.3,0.1-0.6,0.1-0.9c0-0.1,0-0.3,0-0.4c0,0,0,0,0-0.1v-0.1c0-0.2,0-0.4,0.1-0.6
		c0,0,0-0.1,0-0.2c0-0.2,0-0.4,0-0.6c0-0.1,0-0.3,0-0.4c0.1-0.2,0.2-0.2,0.4-0.4c0.1,0,0.1,0,0.2,0h0.1c0.2,0.1,0.3,0.2,0.4,0.3
		c0.1,0.1,0.1,0.3,0.2,0.4v0.4c0,0.3,0,0.5,0,0.8c0,0.1,0,0.1,0,0.2c-0.1,0.3-0.1,0.7-0.1,1c0,0.1,0,0.3,0,0.4c0,0.1,0,0.2,0,0.3
		c0,0.2,0,0.4-0.1,0.6c0,0.1,0,0.3,0,0.4v0.2c0,0.1,0,0.2-0.1,0.4c0,0.1,0,0.2,0,0.4c0,0.2,0,0.4-0.1,0.5c0,0,0,0.1,0,0.1v0.1
		c0,0.3,0,0.6,0,0.9c0,0.1,0,0.2,0,0.4c0,0,0,0,0,0.1c0,0,0,0.1,0,0.2c0,0,0.1,0.1,0.1,0.1s0.1,0,0.1,0l0.2,0c0.1,0,0.3-0.1,0.4-0.1
		c0.1,0,0.2,0,0.2,0c0.1,0,0.2,0,0.4,0h0.3C48.9,31.3,49.1,31.4,49.3,31.7L49.3,31.7z"/>
	<path class="st0" d="M52.7,27.2c0.1,0.1,0.1,0.2,0.1,0.3v0c0,0.2,0,0.2-0.1,0.4c-0.1,0.3-0.2,0.4-0.2,0.6c0,0.2,0,0.3-0.1,0.4
		c0,0,0,0.1,0,0.1c0,0.2,0,0.4-0.1,0.6c0,0.2,0,0.3-0.1,0.5c0,0.1,0,0.1,0,0.2v0c0,0.1,0,0.2,0,0.2c0,0,0,0.1,0,0.1
		c0,0.1,0,0.2-0.1,0.3c-0.1,0.1-0.1,0.2-0.3,0.2h0c-0.1,0-0.1-0.1-0.2-0.2c-0.1-0.1-0.3,0-0.4-0.1C51,31,51,30.9,50.9,30.8
		c0-0.1-0.1-0.1-0.1-0.2c0-0.1,0-0.1,0-0.2c0-0.1,0-0.2,0-0.3V30c0-0.3,0-0.4,0.1-0.7c0-0.1,0-0.2,0.1-0.4c0-0.1,0-0.2,0-0.3
		c0.1-0.4,0.2-0.6,0.2-1.1c0,0,0-0.1,0-0.1c0.1-0.2,0.1-0.3,0.2-0.4c0.1-0.1,0.2-0.2,0.4-0.2c0.1,0,0.2,0,0.3,0c0.1,0,0.1,0,0.2,0
		C52.5,26.9,52.6,27,52.7,27.2L52.7,27.2z M53.2,25.4c0,0,0,0.1,0,0.2c0,0.1,0,0.3-0.2,0.3h-0.1c-0.2,0-0.4-0.1-0.7-0.2
		c-0.2-0.1-0.2-0.2-0.3-0.3c0,0,0-0.1,0-0.1s0-0.1,0-0.1c0-0.1,0.1-0.2,0.2-0.3c0,0,0,0,0.1,0c0.1,0,0.2,0,0.3,0c0,0,0.1,0,0.1,0
		c0.2,0.1,0.3,0.3,0.5,0.5C53.2,25.3,53.2,25.3,53.2,25.4L53.2,25.4z"/>
	<path class="st0" d="M59.7,27.6c0,0.1,0,0.3,0,0.4c0,0.2,0,0.4-0.1,0.6c-0.1,0.5-0.1,0.7-0.4,1.2c0,0.1,0,0.1,0,0.2
		c0,0.1-0.1,0.2-0.1,0.3c0,0,0,0.1-0.1,0.2c-0.3,0.3-0.4,0.6-0.8,1c-0.2,0.2-0.3,0.2-0.5,0.3c-0.1,0.1-0.2,0-0.3,0.1
		c-0.1,0-0.2,0-0.3,0.1c-0.1,0-0.1,0-0.2,0c-0.1,0-0.2,0-0.3,0c0,0-0.1,0-0.2,0c-0.4-0.2-0.7-0.4-1-0.6c-0.2-0.1-0.3-0.3-0.4-0.5
		c-0.1-0.1-0.1-0.2-0.1-0.4c0-0.2-0.1-0.4-0.1-0.6c0-0.1-0.1-0.2-0.1-0.3c0-0.2,0-0.4,0-0.5c0-0.3,0-0.6,0-0.9c0-0.1,0-0.3,0-0.4
		c0-0.2,0.1-0.4,0.1-0.7c0.1-0.4,0.2-0.8,0.3-1.1c0.1-0.3,0.2-0.5,0.3-0.7c0.1-0.1,0.2-0.3,0.2-0.4c0,0,0.1-0.1,0.1-0.1
		c0.3-0.3,0.5-0.6,0.9-0.8c0,0,0.1,0,0.1,0c0.1,0,0.2,0,0.3,0h0.1c0.2,0,0.3,0,0.4,0h0c0.2,0,0.4,0.1,0.7,0.3
		c0.2,0.2,0.3,0.4,0.4,0.6c0.1,0.2,0.2,0.4,0.3,0.6c0.1,0.1,0.2,0.3,0.2,0.4c0,0.1,0.1,0.1,0.1,0.2c0,0.1,0.1,0.2,0.1,0.3
		c0,0.2,0.1,0.4,0.1,0.6C59.7,27.2,59.7,27.4,59.7,27.6L59.7,27.6z M58.4,27.3L58.4,27.3c0-0.3,0-0.5-0.1-0.7
		c-0.1-0.2-0.1-0.4-0.2-0.6c-0.1-0.2-0.2-0.4-0.3-0.5c-0.1-0.2-0.2-0.4-0.4-0.5c0,0-0.1,0-0.1,0c-0.2,0.2-0.3,0.4-0.4,0.7
		c-0.2,0.3-0.3,0.6-0.4,1c0,0.2,0,0.3-0.1,0.5c0,0.2-0.1,0.3-0.2,0.5s0,0.4-0.1,0.5c0,0.3,0,0.7,0,1c0,0.2,0,0.4,0,0.6
		c0,0.1,0,0.1,0,0.2c0.1,0.2,0,0.5,0.2,0.7c0.1,0.1,0.2,0.2,0.4,0.2h0.1c0.2,0,0.2-0.1,0.3-0.2c0.2-0.2,0.2-0.3,0.3-0.5
		c0.1-0.2,0.2-0.3,0.3-0.5c0.1-0.2,0.1-0.3,0.2-0.5c0.1-0.2,0.2-0.3,0.2-0.5c0,0,0-0.1,0-0.1c0-0.2,0.1-0.3,0.1-0.5
		c0-0.1,0-0.1,0-0.2C58.3,27.6,58.4,27.5,58.4,27.3L58.4,27.3z"/>
</g>
</svg>
