<?xml version="1.0" encoding="UTF-8"?>
<svg id="Layer_1" data-name="Layer 1" xmlns="http://www.w3.org/2000/svg" viewBox="0 0 97.4 32.72">
  <defs>
    <style>
      .cls-1 {
        fill: #303438;
        stroke-width: 0px;
      }
    </style>
  </defs>
  <path class="cls-1" d="m63.27,22.4c.12-.1,2,2.49,2.21,2.73.52.59,1.08,1.14,1.7,1.63,1.49,1.17,3.24,1.87,5.15,1.88,3.96.02,7.83-2.15,10.83-4.58,6.68-5.41,10.2-13.49,13.04-21.38.08-.23.17-1.53-.36-1.3-1.3.58-2.45,1.33-3.5,2.29-.33.3-.16,1.8.22,1.5,1.55-1.21,3.11-2.42,4.66-3.63l-.41-1.14c-.27,1.57-.53,3.14-.8,4.71-.08.49.44,1.76.61.77.27-1.57.53-3.14.8-4.71.03-.16,0-1.46-.41-1.14-1.55,1.21-3.11,2.42-4.66,3.63l.22,1.5c1.05-.96,2.2-1.72,3.5-2.29l-.36-1.3c-2.54,7.07-5.58,14.29-11.13,19.56-2.4,2.27-5.19,4.12-8.3,5.25-1.83.67-3.73,1.3-5.71,1.05-1.68-.22-3.2-1.07-4.46-2.17-.74-.64-1.39-1.38-1.98-2.16-.28-.37-.49-.7-.62-1.15-.03-.09.03-.35-.07-.42-.68-.47-.19.91-.13.86h0Z"/>
  <g>
    <path class="cls-1" d="m6.4,16.18v.3c0,.12,0,.18-.01.31-.01.13-.04.21-.05.35-.01.03-.01.05-.01.09-.03.18-.04.29-.08.48-.04.18-.06.29-.1.48-.08.35-.14.61-.21.91-.07.31-.14.61-.22.91-.01.03-.03.06-.03.09,0,.3-.04.53-.12.87-.1.44-.31.65-.55.66h-.01c-.25,0-.51-.19-.74-.53-.08-.12-.07-.19-.1-.31,0-.04,0-.09.01-.13.03-.08.05-.14.05-.22-.01-.05-.01-.09-.01-.13,0-.25.09-.48.14-.7.09-.18.08-.38.14-.56.04-.13.04-.26.09-.39.04-.12.03-.23.08-.35.01-.03.01-.06.01-.09v-.09s-.01-.05-.03-.08c-.04.01-.08.04-.12.06-.18.17-.36.35-.57.49-.12.09-.23.2-.31.31-.03.08-.01.16-.08.21-.18.12-.32.14-.53.22-.09.03-.13.04-.22.05-.12.01-.19.04-.29.04-.04,0-.08,0-.12-.01-.13-.05-.16-.16-.25-.25-.04-.05-.03-.1-.08-.13-.31-.2-.53-.21-.84-.43-.2-.14-.33-.31-.51-.52-.12-.14-.17-.22-.25-.36-.12-.21-.17-.31-.25-.52-.06-.17-.08-.27-.12-.44-.03-.09-.01-.14-.03-.22-.01-.05-.01-.09-.01-.13-.04-.34-.08-.56-.09-.85,0-.3,0-.6.01-.9,0-.18,0-.36.05-.53.05-.16.05-.33.13-.47.13-.52.39-.98.65-1.43.08-.16.2-.3.31-.43.26-.31.48-.57.86-.86.17-.14.31-.17.53-.21.01-.01.03-.01.04-.01.05,0,.09.03.13.07.23.21.44.3.55.61,0,.01.01.04.01.06,0,.13-.14.22-.22.36-.1.17-.2.3-.31.43-.03.09-.05.18-.09.26-.03.08-.08.16-.13.23-.17.26-.34.52-.48.81-.22.43-.35.88-.48,1.34-.04.17-.05.35-.09.53-.01.08-.01.16-.01.25v.29s0,.08.01.13c.03.27.04.43.08.72.03.19.04.31.1.52.05.18.05.33.19.46.17.14.35.14.55.18h.06c.09,0,.18-.04.27-.08.04-.03.08-.05.1-.08.3-.3.61-.57.88-.9.16-.18.31-.36.47-.55.04-.07.08-.13.12-.2.03-.06.05-.13.09-.19-.01-.01-.01-.04-.01-.06,0-.06.03-.18.03-.25,0-.03-.01-.05-.03-.05h0c-.08.03-.17.03-.23.03s-.12,0-.14-.01c-.1-.04-.18-.05-.25-.05-.08,0-.14.01-.22.01h-.06c-.1-.01-.22-.03-.34-.04-.05-.04-.1-.06-.14-.1-.06-.05-.1-.12-.1-.19v-.4c0-.13.08-.22.2-.27.04-.03.08-.04.14-.06.06-.01.16-.01.25-.01.12-.01.23-.03.35-.07.18-.05.38-.06.57-.1.06-.01.14-.03.22-.03s.14.01.22.01c.16,0,.29-.04.43-.04.09,0,.17.01.27.05.25.08.39.18.56.39.1.12.08.25.13.42.04.13.05.21.08.35.03.13.06.21.08.35.01.13.01.22.01.33Z"/>
    <path class="cls-1" d="m13.21,13.15v.94c-.01.17-.03.33-.06.49-.03.09-.03.18-.03.26v.18c-.01.1-.01.21-.05.31-.01.03-.03.05-.03.08,0,.26-.06.51-.1.75-.01.17-.09.33-.09.49v.04c-.09.25-.06.53-.16.78,0,.2-.08.39-.12.57-.05.18-.06.38-.16.56-.04.27-.13.55-.2.82s-.13.56-.23.83c-.04.03-.08.08-.12.12-.03.01-.05.03-.09.05h-.21c-.12.06-.16.08-.23.08-.03,0-.08,0-.14-.01-.1-.06-.18-.17-.3-.17h-.04c-.08-.12-.16-.22-.22-.31-.03-.08-.04-.14-.04-.22,0-.09.01-.18.04-.26.06-.26.12-.52.19-.78.04-.17.09-.32.13-.48.04-.16.06-.31.1-.47.03-.09.05-.18.08-.26v-.03c0-.05-.03-.1-.08-.14-.09,0-.2-.01-.3-.01-.08-.01-.16-.01-.22-.03-.18-.05-.38-.05-.56-.05h-.35c-.1.05-.13.12-.16.18-.08.29-.21.56-.23.86-.09.3-.09.62-.23.91-.04.22-.12.43-.12.65-.04.08-.06.14-.1.21-.05.09-.13.14-.22.14h-.04s-.05,0-.09-.01c-.1-.05-.18-.13-.26-.26v-.21c0-.21.01-.42.06-.62,0-.04.01-.08.03-.13.01-.21.03-.42.09-.61.01-.35.12-.68.22-1,.01-.04.03-.09.04-.13-.03-.04-.05-.08-.09-.1-.06-.05-.14-.1-.23-.12-.19-.05-.34-.18-.47-.34-.03-.03-.05-.06-.08-.1-.01-.08-.03-.14-.03-.22s.01-.17.05-.26c.04-.06.05-.14.06-.21l.04-.04s.08-.03.13-.03c.17.03.35,0,.52.08.17.01.32.01.47.01.1-.04.14-.09.17-.17.09-.22.18-.44.27-.66.04-.1.09-.22.14-.33.23-.4.44-.82.72-1.2.1-.14.18-.3.27-.46.05-.08.1-.14.16-.22.18-.23.38-.47.57-.68.08-.08.13-.17.19-.26.1-.13.22-.23.38-.31.12-.05.23-.13.35-.19.04,0,.09-.01.13-.01.03,0,.05.03.08.03.13.14.22.29.3.44.12.12.26.21.35.36q.13.47.13.87Zm-1.44.65v-.18s-.01-.05-.03-.08c-.03-.01-.05-.01-.09-.03-.04.04-.09.08-.13.12-.13.17-.25.34-.38.51-.05.08-.12.17-.18.25l-.22.22c-.09.19-.21.36-.27.56-.06.21-.21.36-.29.56-.01.03-.01.05-.03.09v.06c0,.05.01.09.06.13.1.03.22.06.33.09h.69s.05-.01.08-.03c.09-.04.13-.12.17-.22.03-.13.03-.29.06-.43.03-.09.04-.19.04-.3.03-.22,0-.46.09-.66.01-.17.03-.32.08-.48.01-.06.01-.12.01-.18Z"/>
    <path class="cls-1" d="m22.22,11.71s.01.01.01.03c0,.06-.04.1-.05.18-.01.1-.01.16-.03.26-.01.68-.01,1.16-.01,1.72v.08c-.01.21,0,.39-.01.64,0,.06,0,.1-.01.17-.01.26-.04.42-.05.68-.01.47,0,.74-.03,1.21,0,.16-.03.25-.04.4-.01.16-.01.23-.03.39,0,.18,0,.27-.03.46-.01.21-.04.31-.08.52-.01.09-.03.13-.05.22,0,.04,0,.05-.01.09-.01.14,0,.22-.03.35-.01.13-.05.19-.08.31-.04.27-.04.43-.1.7-.05.3-.1.46-.21.74-.04.12-.13.09-.18.1-.17.05-.23.03-.39.03-.12.01-.13.03-.29.03-.06,0-.1-.04-.16-.04-.04,0-.08,0-.13-.03-.12-.06-.14-.16-.22-.26,0-.01-.01-.03-.01-.05h0c.01-.25.01-.39.05-.62.04-.21.09-.31.13-.52.04-.18.05-.3.08-.48.01-.06.03-.12.04-.18.03-.12.04-.19.05-.31.03-.16.04-.23.05-.39.01-.06.03-.12.03-.18.01-.06.01-.1.01-.17.04-.3.05-.46.08-.75.04-.27.05-.44.06-.72.01-.09.01-.13.01-.22.01-.7.01-1.2.03-1.79,0-.08,0-.16-.06-.22-.03.03-.08.05-.09.09-.1.23-.26.44-.32.69,0,.03-.01.05-.04.08-.18.27-.26.55-.47.87-.13.23-.21.38-.4.56-.14.14-.26.21-.47.29-.03.01-.07.03-.09.03-.04,0-.08-.01-.12-.03-.18-.08-.38-.12-.55-.21-.17-.09-.32-.22-.43-.38-.09-.13-.2-.23-.27-.36-.12-.21-.22-.42-.33-.64-.13-.25-.26-.51-.35-.78-.03-.05-.05-.09-.13-.1-.04.13-.06.26-.09.39-.01.05-.01.12-.01.18-.01.14-.01.3-.03.44,0,.16,0,.3-.04.44-.03.09-.03.18-.03.27-.01.33,0,.6-.03.99,0,.17-.04.27-.04.44,0,.19.04.31.04.51v.04c0,.1-.05.16-.06.26h0c0,.09.05.13.05.21.01.1.01.16.01.26.01.09.01.16.01.23,0,.05,0,.1-.01.17,0,.09-.01.13-.03.22-.01.12-.01.19-.04.31-.04.32,0,.4-.13.85-.06.08-.13.14-.2.23-.06.06-.06.17-.16.22-.13.03-.2.04-.27.04-.05,0-.12-.01-.25-.03-.03-.01-.05-.03-.08-.05-.03-.01-.04-.04-.06-.07-.09-.22-.13-.46-.13-.69,0-.17,0-.34-.05-.49-.01-.07-.01-.14-.01-.22v-1.76c.01-.17.03-.27.04-.44.01-.09.03-.13.03-.22.03-.35.01-.55.03-.9.01-.21.04-.33.05-.53.01-.1.01-.17.01-.27.01-.21.03-.33.03-.53v-.18c.03-.26.05-.4.06-.66.03-.23.03-.35.03-.58v-.17c.03-.27.05-.44.08-.71.01-.09.03-.13.04-.22.03-.09.04-.14.05-.22,0-.14.05-.26.12-.38.05-.08.12-.14.21-.18.08.03.16.06.25.09.1-.03.2-.09.33-.09.04,0,.08.01.12.03.27.12.52.35.74.62.06.08.13.17.17.26.18.35.39.7.52,1.09.05.16.13.3.17.46.05.14.13.27.17.42.06.16.14.3.22.44.01.04.06.05.09.09.04-.01.06-.03.09-.03.12-.16.21-.32.27-.51l.31-.74c.13-.31.31-.58.52-.83.04-.04.08-.1.1-.14.08-.12.14-.23.23-.34.33-.35.6-.74.98-1.07.06-.04.14-.06.22-.1,0,0,.08-.01.16-.01.04,0,.08,0,.1.01.23.09.36.17.56.31.09.06.12.12.17.21.05.06.08.1.08.18Z"/>
    <path class="cls-1" d="m28.9,12.35s-.04.06-.08.08c-.09.04-.17.01-.27.05-.09.04-.12.13-.22.16-.25.08-.38.09-.53.09-.13,0-.29-.01-.55-.01-.14,0-.25.03-.4.04-.17.01-.26,0-.43.04-.05.01-.09.07-.12.09-.01.05-.04.08-.04.1v.44c-.01.33-.01.64-.03.95,0,.12-.01.23-.05.35-.01.04-.01.09-.01.13.03.06.05.1.12.14.03,0,.05.01.08.01.22.01.36.01.57.01h.04c.23,0,.38-.01.6-.01h.16c.14,0,.22.01.36.05.05.01.08.03.12.06.06.09.09.16.12.26.01.06.01.13.01.18s0,.12-.01.18c-.01.04-.04.05-.08.06-.17.05-.26.06-.43.1-.13.04-.22.09-.34.09-.13,0-.25.03-.35.06-.08.01-.14.01-.23.01h-.05c-.14,0-.25-.01-.36-.01-.08,0-.16,0-.25.03-.12.03-.18.1-.22.21-.01,0-.03.04-.03.06-.03.17-.05.31-.09.52-.01.06,0,.12-.01.18-.01.12-.03.19-.05.31,0,.03-.03.05-.03.08-.01.18-.01.27-.04.45-.01.17-.03.26-.06.43-.05.27-.18.34-.18.62,0,.03.01.05.01.06.03.08.06.13.13.13.08.01.14.01.21.01.31,0,.53-.05.88-.05h.22c.17.03.27.04.44.09.04.03.07.05.09.09.04.08.08.12.13.18.05.08.1.31.13.4.01.07.03.12.03.18,0,.08-.03.14-.09.21-.16.13-.3.1-.49.12-.43.03-.78.06-1.12.06-.21,0-.42-.01-.64-.06-.23-.05-.53-.08-.88-.22-.08-.03-.14-.14-.2-.21-.09-.1-.13-.17-.17-.29-.06-.16-.09-.29-.09-.43.01-.18.04-.33.08-.53.03-.16.03-.23.06-.39.03-.16.06-.23.1-.39,0-.04,0-.05.01-.09.03-.21.05-.32.09-.53.05-.36.12-.61.12-.92,0-.06.03-.12.04-.18-.03-.03-.05-.08-.09-.09-.1-.05-.22-.06-.34-.13-.07-.04-.12-.05-.14-.12-.08-.16-.08-.26-.1-.43-.01-.04-.01-.06-.01-.09s0-.05.01-.09c0-.03.01-.05.05-.06.29-.06.52.01.75-.12.01-.03.05-.05.05-.08.05-.17.08-.31.12-.52.04-.21.05-.31.08-.52v-.08h0c0-.34.03-.6.03-.86v-.17c-.05-.12-.14-.14-.22-.25-.06-.09-.09-.16-.14-.26-.04-.08-.06-.12-.1-.2-.01-.03-.04-.04-.04-.06h0c.05-.14.06-.29.21-.32.26-.06.42-.08.6-.08s.39.01.74.01c.18,0,.36,0,.53-.06.04-.01.08-.01.13-.01h.6c.1,0,.2,0,.3-.01.3-.03.36-.04.47-.04h.14c.14.01.27.07.34.13.12.12.17.18.23.32.06.12.09.18.09.31Z"/>
    <path class="cls-1" d="m41.94,15.06v.04c-.03.1-.13.09-.21.16-.08.05-.09.13-.17.16-.3.09-.48.09-.78.16-.03,0-.03.01-.04.01-.33.08-.55.16-.82.19-.09.03-.17.08-.23.13-.06.08-.04.17-.08.26-.04.09-.07.19-.09.29-.03.09-.06.17-.08.26,0,.06-.03.12-.05.17-.06.14-.14.26-.18.4-.03.08-.08.29-.08.39v.03l.14.16c.26.35.51.61.79,1.04v.04s-.03.06-.03.12.04.09.04.13c0,.01-.01.03-.01.04-.09.1-.18.12-.31.16h-.03s-.05-.01-.06-.03c-.14-.09-.25-.16-.35-.27-.13-.13-.26-.25-.39-.36-.03-.03-.08-.04-.13-.05-.04.05-.09.09-.12.13-.1.16-.23.29-.35.42-.04.03-.07.06-.1.09-.1.08-.21.13-.33.23s-.17.18-.27.3c-.05.05-.08.08-.13.12-.03.03-.05.03-.08.04-.23.09-.35.14-.58.21-.13.04-.22.06-.34.06-.04,0-.08,0-.12-.01-.17-.03-.23-.16-.38-.19-.09-.01-.17-.06-.23-.13-.13-.1-.26-.14-.38-.27-.12-.13-.13-.22-.19-.38-.09-.19-.14-.3-.21-.49-.06-.18-.06-.3-.1-.48-.01-.07-.04-.1-.04-.17-.01-.14-.03-.25-.03-.36,0-.05,0-.1.01-.17,0-.09.03-.13.05-.22.01-.12,0-.19.04-.31.06-.23.12-.36.21-.58.01-.05.03-.08.05-.12.18-.32.3-.58.49-.82.01-.08.03-.14.03-.21,0-.12-.03-.21-.08-.3-.1-.2-.1-.4-.18-.6-.01-.13-.03-.27-.03-.4.01-.13,0-.27.04-.4.08-.22.12-.46.22-.68.14-.3.33-.57.52-.83.03-.05.08-.09.12-.13.14-.09.26-.21.38-.31.06-.05.13-.09.19-.12.27-.16.4-.21.74-.29.17-.06.35-.08.53-.08h.27c.09,0,.18.01.26.01h.04c.13,0,.23.05.39.06h.13s.04,0,.08.01c.05.03.06.06.09.12.06.18.05.3.14.47.04.09.13.1.17.19.01.05.01.09.01.13,0,.05-.01.12-.01.2-.01.05-.03.08-.04.12-.1.2-.17.31-.29.51-.1.17-.2.26-.26.42-.05.14-.16.25-.26.36-.23.25-.48.48-.75.7-.04.04-.09.08-.12.13-.04.05-.08.09-.12.14-.26.26-.47.57-.66.88-.01.03-.01.05-.01.06,0,.06.01.1.05.16.16.18.31.36.47.53.08.08.16.14.26.17h.03s.04,0,.07-.01c.03-.03.07-.06.08-.1.04-.13.09-.25.12-.39.03-.18.12-.36.12-.57v-.04c.04-.16.05-.31.14-.47.04-.06.08-.16.12-.23.12-.1.26-.14.4-.21.13-.05.29-.01.43-.08.06-.03.14-.03.22-.04.23-.01.43-.08.7-.13.09-.01.16-.03.26-.05.08-.01.13-.04.22-.05.12-.01.21-.04.31-.04.04,0,.08.01.13.01.07.01.1.05.14.1.06.1.04.18.1.29.07.12.16.13.23.25.05.09.12.16.12.25Zm-4.26,2.46s-.03-.08-.05-.1c-.06-.06-.13-.13-.21-.18-.08-.05-.14-.1-.2-.18-.08-.14-.21-.25-.31-.35-.04-.01-.07-.03-.1-.03-.05,0-.09.03-.12.06-.08.1-.17.21-.25.31-.04.12-.08.23-.12.36-.01.05-.01.09-.01.12,0,.18,0,.36.01.53.01.12.05.23.08.35.03.16.1.25.25.25.03,0,.06,0,.1-.01.01,0,.03-.01.06-.01.17-.18.39-.35.56-.56.08-.19.26-.33.3-.56Zm-1.17-3.65c0,.08.04.14.12.2.08-.03.13-.09.18-.14.17-.18.35-.36.53-.55.05-.06.13-.13.2-.17.25-.16.44-.36.64-.56.08-.08.13-.17.21-.25,0-.09.01-.18.01-.27-.01-.04-.04-.08-.06-.12h-.22c-.25.05-.49.13-.69.3-.1.08-.22.16-.31.23-.1.14-.21.27-.31.42-.01.04-.03.1-.05.16-.12.21-.16.46-.22.68-.01.03-.01.05-.01.08Z"/>
    <path class="cls-1" d="m52.41,19.6c-.01.16-.08.25-.23.36-.07.06-.14.08-.22.08h-.07c-.08,0-.1-.01-.16-.01-.01,0-.08.01-.09,0-.07-.01-.05-.05-.12-.06-.06-.01-.09-.07-.13-.12-.14-.21-.2-.29-.27-.51-.07-.13-.04-.23-.08-.38-.01-.1-.03-.16-.05-.26-.04-.18-.06-.3-.1-.48-.04-.25-.09-.43-.12-.65-.01-.1-.04-.21-.06-.3-.35.06-1.42.06-1.47.26-.04.14-.05.29-.08.47-.01.12,0,.19-.01.31-.01.22-.04.35-.08.57,0,.04-.01.05-.01.09v.19c0,.08.01.13,0,.21,0,.12,0,.18-.03.29-.08.38-.29.58-.53.58-.04,0-.08,0-.12-.01-.22-.05-.35-.06-.55-.25-.09-.08-.13-.25-.16-.36v-.09c.01-.09.03-.13.03-.22.04-.22.05-.35.08-.57.03-.14.03-.21.04-.35.03-.21.04-.33.05-.53.03-.26,0-.42.03-.68.03-.2.07-.3.09-.49.01-.09.01-.13.01-.22v-.21c.01-.09.01-.13.01-.22.03-.22.05-.35.06-.57.01-.05.01-.09.01-.14.04-.22.05-.35.08-.57.01-.05.01-.08.01-.13.03-.33.03-.51.06-.82.07-.39.17-.94.21-1.39.01-.06.01-.1.01-.17.03-.18-.01-.3.08-.46.16-.23.26-.4.52-.49.18-.06.25-.1.33-.1.07,0,.14.04.29.09.34.13.44.35.68.62.08.08.07.18.1.26.23.46.35.86.55,1.42.1.26.16.4.22.68.08.25.1.4.16.65.05.17.08.26.12.43.1.36.17.64.25.95.09.32.16.64.25.96.04.17.07.31.1.52.07.27.1.42.16.69.03.06.01.12.03.18.04.16.08.23.09.39.01.08.01.14.03.2v.21c.01.06.01.13.01.17Zm-2.17-4.06c-.08-.22-.17-.71-.27-1.07-.12-.36-.2-.77-.29-.77-.05,0-.08.21-.09.26-.04.36-.2,1.53-.2,1.91,0,.06.01.12.01.17.03.03.05.06.08.06.13.03.66.05.96.1-.06-.23-.13-.46-.21-.68Z"/>
    <path class="cls-1" d="m57.47,17.16c-.14-.05-.25-.08-.38-.1-.25-.05-1.24-.53-1.52-.73-.08-.05-.27-.17-.36-.22-.01,0-.01.01-.01.03,0,.06.03.12.03.22v.03s-.03.05-.03.09c-.01.09-.01.16-.01.23s0,.16.01.26c0,.1,0,.16.03.26.09.42.05.86.08,1.36h0c0,.09,0,.18-.06.25-.07.06-.16.06-.26.09-.07.03-.14.03-.16.03-.04-.01-.17-.04-.21-.05-.26-.09-.25-.08-.42-.22-.17-.14-.14-.27-.18-.49-.03-.1-.03-.21-.03-.3v-.12c0-.06-.01-.12-.01-.18-.03-.19-.01-.3-.03-.49-.01-.18-.01-.32-.01-.48-.01-.42-.01-.82-.01-1.22,0-.1,0-.21.01-.31.01-.16.01-.3.01-.45,0-.14,0-.3-.01-.44,0-.06-.01-.14-.01-.22,0-.1.01-.4.03-.52.04-.06.06-.1.09-.14.09-.12,1.34-.19,1.6-.27.1-.03.17-.03.29-.04.18-.01.31-.01.47-.01h.19c.08,0,.13.01.22.03.19.03.31.05.52.08.03,0,.07.01.09.01.05,0,.1-.01.16-.01.07,0,.13.01.21.04.29.13.46.22.68.44.21.22.38.56.39.86v.03c0,.26-.17.42-.34.6-.25.26-.7.49-.99.68-.01.03-.01.05-.01.08,0,.04.01.06.05.09.18.1,1.12.62,1.31.69.29.09.38.2.38.31,0,.05.01.14.01.22s-.01.17-.07.23c-.08.13-.36.39-.56.39-.07,0-.13-.01-.22-.05-.27-.13-.66-.42-.95-.52Zm-.14-2.64s0-.03-.01-.04c-.09-.04-.35-.12-.42-.12-.21,0-.38-.04-.61-.04-.12,0-.18.03-.29.04-.05,0-.08.01-.12.01h-.22c-.2.04-.35.01-.49.1-.05.04-.06.14-.06.25,0,.05.01.12.01.14v.22c.03.09.07.16.16.18.05.01.1.03.14.03.1,0,.18-.03.31-.05.16-.03.25-.06.4-.13.39-.16.66-.31,1.01-.43.03-.01.05-.03.08-.04.03-.03.05-.04.08-.05.01-.01.01-.03.03-.04v-.04Z"/>
    <path class="cls-1" d="m66.17,14.1c-.13.08-.22.09-.36.13-.13.04-.22.04-.36.05-.07.01-.12.01-.17.01-.12.01-.25.01-.36.01-.12.01-.23.01-.35.06-.04.01-.08.01-.13.03-.06.01-.14.01-.22.03-.09.03-.2.06-.29.1-.06.05-.08.13-.12.21,0,.17.03.31.04.52.01.06.01.12.01.18.01.6.03.92.03,1.52v.16c0,.32,0,.56-.01.92,0,.09,0,.13-.01.22-.04.25-.08.38-.14.61-.01.05,0,.09-.04.14-.01.03-.04.04-.08.04h-.01c-.14-.01-.25,0-.38-.08-.1-.06-.23-.13-.33-.22-.1-.13-.26-.13-.31-.3-.03-.1-.04-.21-.04-.29,0-.18.04-.35.04-.57v-2.64c-.03-.06-.05-.12-.13-.13-.14.05-.17.01-.33.08-.13.05-.26.07-.43.09-.1.01-.18.04-.27.04-.04,0-.07,0-.12-.01-.33-.09-.49-.18-.78-.36-.09-.06-.12-.34-.16-.45-.01-.04-.01-.08-.01-.1,0-.04.01-.09.04-.13.08-.1.17-.13.27-.19.04-.01.06-.01.09-.03.35-.09.55-.16.9-.25.2-.05.3-.06.48-.12.17-.04.26-.06.43-.1.18-.04.29-.08.47-.12.21-.05.32-.08.53-.12s.33-.05.52-.09c.16-.03.25-.05.39-.08.16-.04.25-.06.4-.09.26-.04.44-.08.66-.08.05,0,.12.01.18.01.17.01.27.06.4.18t.01.03c.09.08.14.2.17.33,0,.04.01.12.01.19,0,.14-.01.31-.03.4-.03.09-.08.22-.12.25Z"/>
    <path class="cls-1" d="m11.5,24.23v.25c-.06.18-.16.32-.3.45l-.38.38s-.06.06-.1.09c-.21.09-.32.23-.53.39-.36.27-.56.43-.92.7-.1.08-.16.12-.26.2-.09.08-.13.16-.23.21-.03.01-.05.01-.08.01h-.14c-.06.03-.13.05-.19.08-.05-.01-.09-.03-.14-.04-.03.03-.06.05-.09.08-.01.06-.03.13-.03.18v.18c-.01.27-.05.48-.08.79-.01.09,0,.13-.01.22-.03.17-.04.27-.06.44-.01.06-.01.12-.01.18-.01.17,0,.27-.01.44-.01.14-.03.22-.05.36-.01.1-.03.16-.04.26-.03.18-.04.3-.06.48-.01.1-.01.17-.03.27-.03.21-.06.31-.08.52,0,.06-.01.12-.01.17s.01.1.01.16-.01.1-.01.17c-.06.69-.55.82-1.04.82-.32,0-.4-.36-.4-.78,0-.18.01-.36.03-.53.01-.16.03-.23.05-.39.01-.05.01-.08.03-.13.03-.21.04-.33.06-.53.01-.14.04-.21.05-.35.03-.22.04-.35.06-.57,0-.05,0-.09.01-.14.04-.27.05-.43.09-.7.01-.06.01-.12.03-.18.03-.14.03-.21.05-.35.03-.14.04-.21.05-.35.01-.09.03-.13.03-.22.01-.3.01-.46.01-.75.01-.56,0-.88.01-1.44,0-.14.03-.21.04-.35.01-.1.01-.17.01-.27v-1.03c0-.06,0-.12.01-.17q.13-.21.35-.36c.12-.01.26,0,.39-.04.1-.03.23-.04.34-.08.22-.05.4-.05.66-.09.05-.01.08-.03.13-.03.18-.01.3-.03.47-.03h.12c.26.01.44.05.66.08.13,0,.55.1.64.17.14.09.27.18.42.27.01.01.01.03.03.03.03.04.06.08.09.1.08.13.08.3.17.42.09.1.16.22.21.36Zm-1.26-.05c-.09-.18-.27-.25-.47-.32-.26,0-.53-.03-.82-.03-.17,0-.35.01-.52.04-.06.05-.16.06-.23.14-.03.05-.05.12-.09.18.03.08.05.14.06.21v1.17s0,.06.01.09c.01.03.03.05.05.05.01,0,.03.01.04.01s.04-.01.05-.03c.18-.14.36-.3.56-.43.12-.07.23-.13.35-.21.3-.21.58-.46.87-.69.04-.03.06-.06.09-.09.01-.03.03-.06.04-.1Z"/>
    <path class="cls-1" d="m17.06,27.65c0,.13,0,.26-.01.42-.01.23-.03.38-.08.61-.12.49-.12.69-.36,1.25,0,.06-.01.14-.03.22-.04.09-.09.18-.14.27-.03.05-.05.1-.09.16-.26.32-.42.65-.75,1-.16.17-.29.23-.51.34-.13.06-.21.04-.35.08-.12.03-.18.05-.3.08-.06.01-.1.03-.17.03-.1,0-.18.03-.27.03-.05,0-.1-.01-.17-.04-.4-.17-.68-.36-.96-.57-.18-.13-.34-.3-.44-.51-.06-.12-.12-.23-.13-.38-.01-.19-.1-.38-.12-.56-.05-.1-.06-.21-.06-.31-.01-.18-.01-.35-.01-.53,0-.29.01-.57.03-.86,0-.14.01-.27.04-.4.04-.23.09-.44.14-.69.1-.44.18-.75.3-1.12.09-.26.21-.51.34-.74.08-.14.17-.27.25-.42.04-.05.08-.1.12-.14.26-.31.52-.58.94-.83.04-.03.08-.04.12-.04.09,0,.17.04.26.04h.06c.17-.03.31-.05.44-.05h.01c.21,0,.4.06.65.27.21.17.29.36.4.57.12.19.25.38.35.57.09.14.16.29.22.44.04.07.06.13.09.21.03.09.09.18.1.29.03.2.09.38.09.57,0,.26.01.49.01.75Zm-1.29-.34v-.09c-.01-.25-.03-.39-.09-.62-.06-.23-.14-.38-.23-.57-.08-.2-.17-.39-.3-.55-.14-.16-.22-.36-.42-.47-.04.01-.09.03-.12.05-.17.21-.31.43-.44.66-.17.3-.31.61-.38.96-.03.16-.04.29-.09.47-.05.21-.1.31-.16.52-.05.21-.04.35-.09.53-.01.34-.03.68-.03,1.03,0,.21,0,.42.01.62,0,.06,0,.13.03.18.08.22.04.46.21.68.12.14.25.19.42.19h.06c.16-.01.19-.13.3-.25.16-.17.23-.33.35-.47.12-.16.21-.34.3-.51.08-.16.13-.3.21-.49.09-.21.16-.31.25-.52.03-.05.04-.08.05-.13.04-.19.06-.31.09-.52.01-.09.03-.13.03-.22.01-.2.04-.33.04-.49Z"/>
    <path class="cls-1" d="m22.52,29.16c-.14-.05-.25-.08-.38-.1-.25-.05-1.24-.53-1.52-.73-.08-.05-.27-.17-.36-.22-.01,0-.01.01-.01.03,0,.06.03.12.03.22v.03s-.03.05-.03.09c-.01.09-.01.16-.01.23s0,.16.01.26c0,.1,0,.16.03.26.09.42.05.86.08,1.36h0c0,.09,0,.18-.06.25s-.16.06-.26.09c-.07.03-.14.03-.16.03-.04-.01-.17-.04-.21-.05-.26-.09-.25-.08-.42-.22-.17-.14-.14-.27-.18-.49-.03-.1-.03-.21-.03-.3v-.12c0-.06-.01-.12-.01-.18-.03-.19-.01-.3-.03-.49-.01-.18-.01-.32-.01-.48-.01-.42-.01-.82-.01-1.22,0-.1,0-.21.01-.31.01-.16.01-.3.01-.45,0-.14,0-.3-.01-.44,0-.06-.01-.14-.01-.22,0-.1.01-.4.03-.52.04-.06.06-.1.09-.14.09-.12,1.34-.19,1.6-.27.1-.03.17-.03.29-.04.18-.01.31-.01.47-.01h.19c.08,0,.13.01.22.03.19.03.31.05.52.08.03,0,.06.01.09.01.05,0,.1-.01.16-.01.06,0,.13.01.21.04.29.13.45.22.68.44.21.22.38.56.39.86v.03c0,.26-.17.42-.34.6-.25.26-.7.49-.99.68-.01.03-.01.05-.01.08,0,.04.01.06.05.09.18.1,1.12.62,1.31.69.29.09.38.2.38.31,0,.05.01.14.01.22s-.01.17-.06.23c-.08.13-.36.39-.56.39-.06,0-.13-.01-.22-.05-.27-.13-.66-.42-.95-.52Zm-.14-2.64s0-.03-.01-.04c-.09-.04-.35-.12-.42-.12-.21,0-.38-.04-.61-.04-.12,0-.18.03-.29.04-.05,0-.08.01-.12.01h-.22c-.2.04-.35.01-.49.1-.05.04-.06.14-.06.25,0,.05.01.12.01.14v.22c.03.09.07.16.16.18.05.01.1.03.14.03.1,0,.18-.03.31-.05.16-.03.25-.06.4-.13.39-.16.66-.31,1.01-.43.03-.01.05-.03.08-.04.03-.03.05-.04.08-.05.01-.01.01-.03.03-.04v-.04Z"/>
    <path class="cls-1" d="m31.22,26.1c-.13.08-.22.09-.36.13-.13.04-.22.04-.36.05-.06.01-.12.01-.17.01-.12.01-.25.01-.36.01-.12.01-.23.01-.35.06-.04.01-.08.01-.13.03-.06.01-.14.01-.22.03-.09.03-.19.06-.29.1-.06.05-.08.13-.12.21,0,.17.03.31.04.52.01.06.01.12.01.18.01.6.03.92.03,1.52v.16c0,.32,0,.56-.01.92,0,.09,0,.13-.01.22-.04.25-.08.38-.14.61-.01.05,0,.09-.04.14-.01.03-.04.04-.08.04h-.01c-.14-.01-.25,0-.38-.08-.1-.06-.23-.13-.33-.22-.1-.13-.26-.13-.31-.3-.03-.1-.04-.21-.04-.29,0-.18.04-.35.04-.57v-2.64c-.03-.06-.05-.12-.13-.13-.14.05-.17.01-.33.08-.13.05-.26.07-.43.09-.1.01-.18.04-.27.04-.04,0-.06,0-.12-.01-.32-.09-.49-.18-.78-.36-.09-.06-.12-.34-.16-.45-.01-.04-.01-.08-.01-.1,0-.04.01-.09.04-.13.08-.1.17-.13.27-.19.04-.01.07-.01.09-.03.35-.09.55-.16.9-.25.19-.05.3-.06.48-.12.17-.04.26-.06.43-.1.18-.04.29-.08.47-.12.21-.05.33-.08.53-.12s.33-.05.52-.09c.16-.03.25-.05.39-.08.16-.04.25-.06.4-.09.26-.04.44-.08.66-.08.05,0,.12.01.18.01.17.01.27.06.4.18t.01.03c.09.08.14.2.17.33,0,.04.01.12.01.19,0,.14-.01.31-.03.4-.03.09-.08.22-.12.25Z"/>
    <path class="cls-1" d="m37.67,24.44c-.03.05-.05.12-.08.17-.1.13-.23.21-.4.27-.06,0-.16,0-.25.01-.49,0-.99,0-1.47.03-.2,0-.39.05-.57.08-.03.03-.05.05-.05.08-.04.17-.08.35-.1.52-.03.17-.1.31-.1.49v.04c-.09.21-.06.44-.14.65-.03.05-.03.12-.03.17s.01.09.01.14c.04.01.08.05.12.05.08.01.16.01.23.01h1.12c.43.1.48.1.83.48.03.13.04.21.04.27s-.01.12-.04.25c-.06.08-.17.07-.25.1-.08.04-.16.08-.25.12-.3.01-.62.01-.94.01-.13.01-.26,0-.39.06-.04.01-.08.03-.12.03-.05,0-.1-.01-.14-.03-.06-.01-.12-.03-.17-.04-.05.04-.08.05-.13.09,0,.04-.03.08-.03.12,0,.71.01,1.44.03,2.16,0,.06.01.14.03.22,0,.05.03.12.03.17,0,.2.01.39.09.57v.1c-.05.06-.1.13-.16.21-.04.06-.06.13-.13.18-.08.03-.16.06-.22.09-.13,0-.16-.1-.25-.14-.03-.03-.06-.03-.1-.03-.05,0-.12.01-.18.01-.06-.04-.17-.08-.25-.1-.12-.1-.19-.22-.21-.35-.01-.14-.08-.26-.09-.39-.01-.16-.01-.3-.03-.46,0-.09.01-.18.01-.27,0-.04,0-.09-.01-.13-.05-.27-.06-.55-.06-.82,0-.17.01-.34.01-.49,0-.12-.01-.22-.01-.34s0-.23.01-.35v-.17c0-.12,0-.22.04-.32.01-.04.01-.09.01-.13v-.14c.01-.19.01-.38.03-.57,0-.09,0-.18.04-.27.01-.03.03-.05.03-.08v-.04c0-.25.1-.47.12-.71.08-.21.05-.44.14-.65,0-.22.1-.43.1-.66,0-.14.03-.27.03-.42,0-.08-.01-.14-.03-.22.13-.16.26-.26.44-.34.17,0,.36-.01.56-.01.13-.01.26,0,.39-.05.06-.01.12-.01.18-.01.61-.01,1.22-.01,1.83-.03.07,0,.13.01.17.01.17.08.31.14.43.27.05.06.14.1.21.14.03.13.04.25.06.38Z"/>
    <path class="cls-1" d="m43.7,27.65c0,.13,0,.26-.01.42-.01.23-.03.38-.08.61-.12.49-.12.69-.36,1.25,0,.06-.01.14-.03.22-.04.09-.09.18-.14.27-.03.05-.05.1-.09.16-.26.32-.42.65-.75,1-.16.17-.29.23-.51.34-.13.06-.21.04-.35.08-.12.03-.18.05-.3.08-.06.01-.1.03-.17.03-.1,0-.18.03-.27.03-.05,0-.1-.01-.17-.04-.4-.17-.68-.36-.96-.57-.18-.13-.34-.3-.44-.51-.07-.12-.12-.23-.13-.38-.01-.19-.1-.38-.12-.56-.05-.1-.07-.21-.07-.31-.01-.18-.01-.35-.01-.53,0-.29.01-.57.03-.86,0-.14.01-.27.04-.4.04-.23.09-.44.14-.69.1-.44.18-.75.3-1.12.09-.26.21-.51.34-.74.08-.14.17-.27.25-.42.04-.05.08-.1.12-.14.26-.31.52-.58.94-.83.04-.03.08-.04.12-.04.09,0,.17.04.26.04h.06c.17-.03.31-.05.44-.05h.01c.21,0,.4.06.65.27.21.17.29.36.4.57.12.19.25.38.35.57.09.14.16.29.22.44.04.07.07.13.09.21.03.09.09.18.1.29.03.2.09.38.09.57,0,.26.01.49.01.75Zm-1.29-.34v-.09c-.01-.25-.03-.39-.09-.62-.06-.23-.14-.38-.23-.57-.08-.2-.17-.39-.3-.55-.14-.16-.22-.36-.42-.47-.04.01-.09.03-.12.05-.17.21-.31.43-.44.66-.17.3-.31.61-.38.96-.03.16-.04.29-.09.47-.05.21-.1.31-.16.52s-.04.35-.09.53c-.01.34-.03.68-.03,1.03,0,.21,0,.42.01.62,0,.06,0,.13.03.18.08.22.04.46.21.68.12.14.25.19.42.19h.07c.16-.01.19-.13.3-.25.16-.17.23-.33.35-.47.12-.16.21-.34.3-.51.08-.16.13-.3.21-.49.09-.21.16-.31.25-.52.03-.05.04-.08.05-.13.04-.19.06-.31.09-.52.01-.09.03-.13.03-.22.01-.2.04-.33.04-.49Z"/>
    <path class="cls-1" d="m49.27,31.68c-.01.14-.01.31-.03.46-.03.1-.09.17-.19.25-.07.01-.13.01-.18.03-.13,0-.25,0-.35.05-.21.01-.42.06-.62.12-.14.03-.29.06-.43.08-.14.03-.3,0-.44.05-.01,0-.03.01-.04.01-.03,0-.04-.01-.05-.01-.08-.03-.16-.03-.23-.03h-.22c-.07,0-.12,0-.18-.01-.12-.06-.26-.13-.42-.19-.06-.08-.17-.18-.25-.27-.06-.09-.12-.18-.13-.29-.01-.08-.01-.16-.01-.22,0-.36.01-.73.03-1.08v-.18c.13-.26.04-.56.14-.83.01-.14.01-.3.03-.44.01-.21,0-.42.06-.62.03-.13.03-.27.03-.4.01-.12.01-.23.05-.35.03-.1.03-.21.03-.31v-.25c0-.09.01-.17.03-.25.07-.29.07-.59.08-.88,0-.14,0-.27.05-.4.01-.03.01-.05.01-.09v-.08c.01-.21,0-.43.08-.62.01-.05.01-.12.01-.18.01-.21.03-.42.03-.61,0-.13-.01-.26-.03-.39.14-.21.17-.23.42-.44.07-.01.12-.03.18-.03h.13q.23.1.42.27c.07.14.14.29.22.44v.39c0,.26-.01.51-.01.77,0,.06,0,.12-.01.18-.09.34-.06.68-.08,1.01-.01.14-.01.27-.05.4-.03.09-.03.21-.03.31-.01.21,0,.42-.08.62,0,.13-.01.26-.03.4v.22c0,.12-.01.23-.07.35,0,.12,0,.23-.01.35-.03.18,0,.36-.07.53-.01.03-.01.06-.01.1v.12c-.01.31-.03.62-.03.94,0,.13-.01.25-.05.36-.01.03-.01.04-.01.07,0,.05.01.1.01.16.03.03.07.06.1.08s.08.01.13.01l.22-.04c.13-.05.26-.07.39-.07.08-.01.16,0,.22-.03.13-.05.25-.05.38-.05h.26c.21.14.47.25.61.52Z"/>
    <path class="cls-1" d="m52.68,27.19c.08.09.09.17.09.29v.05c0,.16-.01.25-.07.4-.06.26-.17.39-.25.65-.05.17-.05.27-.09.44,0,.05-.01.08-.03.13-.03.25-.04.38-.07.62-.01.21-.04.33-.07.53,0,.09-.01.13-.01.22v.03c0,.09.01.17.01.25,0,.04,0,.08-.01.13-.01.12-.05.18-.13.26-.08.09-.14.17-.26.17h-.01c-.12,0-.13-.14-.25-.2-.14-.08-.26-.04-.4-.13-.13-.08-.18-.16-.27-.27-.05-.08-.09-.13-.1-.23,0-.06-.01-.12-.01-.16,0-.1.01-.19.01-.31v-.09c.04-.26.05-.4.09-.66.03-.14.05-.21.06-.35.03-.12,0-.19.03-.31.08-.38.16-.65.25-1.07.01-.04,0-.06.01-.09.09-.17.1-.29.23-.43.12-.12.21-.18.36-.22.12-.03.21-.05.3-.05.06,0,.13.01.2.04.19.08.26.19.38.36Zm.56-1.83c0,.05-.01.12-.03.18-.04.14-.04.32-.19.34h-.09c-.25,0-.42-.1-.65-.23-.17-.09-.23-.18-.33-.34-.03-.04-.04-.07-.04-.1,0-.03.01-.06.04-.1.05-.14.12-.22.23-.34.01-.04.05-.04.09-.04.1,0,.18-.04.27-.04.04,0,.09.01.14.04.25.13.35.26.51.48.03.05.04.1.04.16Z"/>
    <path class="cls-1" d="m59.66,27.65c0,.13,0,.26-.01.42-.01.23-.03.38-.08.61-.12.49-.12.69-.36,1.25,0,.06-.01.14-.03.22-.04.09-.09.18-.14.27-.03.05-.05.1-.09.16-.26.32-.42.65-.75,1-.16.17-.29.23-.51.34-.13.06-.21.04-.35.08-.12.03-.18.05-.3.08-.06.01-.1.03-.17.03-.1,0-.18.03-.27.03-.05,0-.1-.01-.17-.04-.4-.17-.68-.36-.96-.57-.18-.13-.34-.3-.44-.51-.07-.12-.12-.23-.13-.38-.01-.19-.1-.38-.12-.56-.05-.1-.07-.21-.07-.31-.01-.18-.01-.35-.01-.53,0-.29.01-.57.03-.86,0-.14.01-.27.04-.4.04-.23.09-.44.14-.69.1-.44.18-.75.3-1.12.09-.26.21-.51.34-.74.08-.14.17-.27.25-.42.04-.05.08-.1.12-.14.26-.31.52-.58.94-.83.04-.03.08-.04.12-.04.09,0,.17.04.26.04h.06c.17-.03.31-.05.44-.05h.01c.21,0,.4.06.65.27.21.17.29.36.4.57.12.19.25.38.35.57.09.14.16.29.22.44.04.07.07.13.09.21.03.09.09.18.1.29.03.2.09.38.09.57,0,.26.01.49.01.75Zm-1.29-.34v-.09c-.01-.25-.03-.39-.09-.62-.06-.23-.14-.38-.23-.57-.08-.2-.17-.39-.3-.55-.14-.16-.22-.36-.42-.47-.04.01-.09.03-.12.05-.17.21-.31.43-.44.66-.17.3-.31.61-.38.96-.03.16-.04.29-.09.47-.05.21-.1.31-.16.52s-.04.35-.09.53c-.01.34-.03.68-.03,1.03,0,.21,0,.42.01.62,0,.06,0,.13.03.18.08.22.04.46.21.68.12.14.25.19.42.19h.07c.16-.01.19-.13.3-.25.16-.17.23-.33.35-.47.12-.16.21-.34.3-.51.08-.16.13-.3.21-.49.09-.21.16-.31.25-.52.03-.05.04-.08.05-.13.04-.19.06-.31.09-.52.01-.09.03-.13.03-.22.01-.2.04-.33.04-.49Z"/>
  </g>
</svg>