<svg width="429" height="340" viewBox="0 0 429 340" fill="none" xmlns="http://www.w3.org/2000/svg">
<path d="M381.447 238.261H203.628V254.466L206.256 258.297H386.265L381.447 238.261Z" fill="#181818"/>
<path d="M206.256 431.737H220.276L269.802 134.838L256.211 132.27L206.256 431.737Z" fill="#181818"/>
<path d="M358.673 134.838L408.194 431.737H422.214L372.258 132.27L358.673 134.838Z" fill="#181818"/>
<path d="M298.232 134.838L347.753 431.737H361.773L311.817 132.27L298.232 134.838Z" fill="#181818"/>
<path d="M365.449 134.948L414.971 431.847H428.991L379.035 132.38L365.449 134.948Z" fill="#333333"/>
<path d="M201 431.847H215.02L264.546 134.948L250.956 132.38L201 431.847Z" fill="#333333"/>
<path d="M303.391 134.948L352.918 431.847H366.938L316.982 132.38L303.391 134.948Z" fill="#333333"/>
<path d="M203.628 235.633L380.539 235.195L403.489 7.44564L398.091 0H229.907L203.628 235.633Z" fill="#E8E8E8"/>
<path d="M203.628 235.633L372.25 235.195L398.02 0H229.887L203.628 235.633Z" fill="white"/>
<path d="M380.133 235.195H203.628V254.568H384.513L380.133 235.195Z" fill="#333333"/>
<path d="M99.5133 365.584C99.2581 359.487 99.8349 350.922 103.726 342.186C105.77 337.591 108.227 334.001 109.7 331.962C112.394 328.242 114.553 325.25 118.189 322.4C118.719 321.992 120.148 320.888 121.998 319.219C126.051 315.571 126.407 314.175 126.525 313.625C126.88 311.977 126.588 309.852 125.38 308.401C124.411 307.239 123.736 307.562 123.31 306.672C122.339 304.647 125.684 302.511 124.962 299.534C124.743 298.608 124.224 298.038 123.403 297.124C121.675 295.19 120.096 294.911 118.337 293.886C113.717 291.19 114.521 287.197 110.415 285.914C108.85 285.424 107.407 285.586 106.72 285.666C102.939 286.106 101.97 288.414 99.7265 287.917C97.7952 287.493 97.7864 285.621 95.5249 285.025C93.6498 284.529 91.9305 285.359 91.1745 285.713C85.9071 288.23 84.6537 295.8 84.3496 297.609C84.0918 299.171 84.1203 301.927 84.1881 307.431C84.2476 312.479 84.4098 312.147 84.3221 314.193C84.1956 317.126 83.7937 319.031 82.3038 325.838C81.5862 329.124 80.9166 332.415 80.1331 335.683C78.905 340.803 77.1529 349.124 74.9618 362.883" fill="#4B4146"/>
<path d="M99.5133 365.584C99.2581 359.487 99.8349 350.922 103.726 342.186C105.77 337.591 108.227 334.001 109.7 331.962C112.394 328.242 114.553 325.25 118.189 322.4C118.719 321.992 120.148 320.888 121.998 319.219C126.051 315.571 126.407 314.175 126.525 313.625C126.88 311.977 126.588 309.852 125.38 308.401C124.411 307.239 123.736 307.562 123.31 306.672C122.339 304.647 125.684 302.511 124.962 299.534C124.743 298.608 124.224 298.038 123.403 297.124C121.675 295.19 120.096 294.911 118.337 293.886C113.717 291.19 114.521 287.197 110.415 285.914C108.85 285.424 107.407 285.586 106.72 285.666C102.939 286.106 101.97 288.414 99.7265 287.917C97.7952 287.493 97.7864 285.621 95.5249 285.025C93.6498 284.529 91.9305 285.359 91.1745 285.713C85.9071 288.23 84.6537 295.8 84.3496 297.609C84.0918 299.171 84.1203 301.927 84.1881 307.431C84.2476 312.479 84.4098 312.147 84.3221 314.193C84.1956 317.126 83.7937 319.031 82.3038 325.838C81.5862 329.124 80.9166 332.415 80.1331 335.683C78.905 340.803 77.1529 349.124 74.9618 362.883" stroke="black" stroke-width="0.9" stroke-miterlimit="10"/>
<path d="M111.553 313.047C111.439 311.774 113.001 310.791 113.921 310.446C114.285 310.311 116.138 309.67 117.299 310.757C117.959 311.372 118.059 312.236 118.074 312.538C118.087 312.685 118.124 313.678 117.457 314.458C116.456 315.638 114.542 315.497 113.342 314.949C113.001 314.785 111.654 314.163 111.553 313.047Z" fill="url(#paint0_radial_623_915)"/>
<path d="M116.724 301.824C116.662 301.507 116.447 300.271 115.545 299.921C114.83 299.639 114.082 300.091 113.502 300.434C113.273 300.574 111.309 301.785 111.08 304.057C111.016 304.642 110.929 305.534 111.503 306.13C112.234 306.898 113.596 306.678 114.324 306.399C116.096 305.71 117.031 303.534 116.724 301.824Z" fill="url(#paint1_radial_623_915)"/>
<path d="M108.401 296.009C108.748 294.961 109.103 292.606 107.641 291.525C106.914 290.99 105.852 290.855 105.001 291.198C103.855 291.654 103.449 292.802 103.07 293.876C102.759 294.773 101.972 297.004 103.174 298.424C103.242 298.509 104.018 299.399 105.097 299.371C106.39 299.338 107.281 298.01 107.733 297.332C107.918 297.062 108.197 296.636 108.391 296.018L108.401 296.009Z" fill="url(#paint2_radial_623_915)"/>
<path d="M96.7228 293.852C95.5823 293.465 94.3091 293.85 93.5742 294.632C93.1355 295.098 92.9959 295.577 92.7887 296.321C92.5392 297.185 92.2538 298.201 92.6347 299.328C92.7075 299.55 93.3472 301.326 94.8494 301.596C96.6932 301.933 98.0725 299.69 98.1903 299.499C98.8651 298.38 99.1971 296.672 98.3878 295.294C98.233 295.025 97.7409 294.205 96.7313 293.862L96.7228 293.852Z" fill="url(#paint3_radial_623_915)"/>
<path d="M109.419 314.559C109.306 312.404 109.915 311.889 109.744 310.348C109.668 309.71 109.604 309.141 109.177 308.609C108.665 307.972 108.16 308.072 107.605 307.381C107.342 307.042 107.434 306.994 106.939 305.757C106.307 304.176 105.993 303.86 105.824 303.716C105.4 303.34 104.95 303.203 104.659 303.113C103.684 302.813 103.027 303.052 102.021 303.126C100.564 303.238 100.528 302.856 99.0724 302.872C98.403 302.876 96.7322 302.907 95.1366 303.848C94.991 303.938 92.2218 305.594 92.5748 307.155C92.783 308.089 94.0312 308.555 95.3911 309.062C97.4689 309.832 97.9298 309.339 99.4742 310.021C99.8811 310.202 102.182 311.238 102.663 313.22C102.984 314.544 102.181 314.97 102.543 316.27C102.892 317.52 104.115 318.836 105.617 318.932C107.734 319.076 109.429 316.78 109.454 315.038C109.453 314.873 109.436 314.939 109.419 314.559Z" fill="url(#paint4_radial_623_915)"/>
<path d="M125.61 176.255C125.216 174.534 124.026 169.548 120.947 164.006C118.978 160.465 117.431 158.833 115.36 158.267C113.61 157.785 111.994 158.2 110.087 158.709C106.84 159.586 105.557 160.774 103.685 161.49C98.8389 163.346 96.5961 160.803 91.7953 161.355C88.0458 161.779 84.577 164.958 77.797 171.294C74.7533 174.132 70.7008 178.129 66.1884 183.23C62.7843 186.261 61.2691 189.217 60.5214 191.181C58.8206 195.658 59.6884 201.56 61.4906 213.196C62.0777 216.963 62.3728 218.876 62.8677 220.559C64.9188 227.607 68.1541 230.472 68.4602 239.918C68.6202 244.666 68.2482 248.339 66.4074 254.72C62.7678 267.274 59.1559 279.841 55.5632 292.41C49.2902 314.341 43.0736 336.289 36.9231 358.253C53.6668 360.101 70.401 361.948 87.1458 363.787C88.8233 348.605 90.2786 332.972 91.4799 316.913C93.4233 290.864 94.5226 265.798 94.9513 241.813C98.4895 237.643 102.147 233.002 105.811 227.857C109.349 222.892 112.452 218.093 115.159 213.541C115.659 211.715 116.36 211.152 116.904 210.969C117.527 210.766 117.859 211.102 118.736 210.878C119.603 210.663 120.147 210.121 120.724 209.544C120.92 209.343 121.542 208.713 122.403 207.13C122.973 206.087 123.304 205.27 123.46 204.909C123.8 204.102 125.043 201.243 127.065 198.613C127.755 197.71 128.617 196.747 128.998 195.121C129.109 194.639 129.154 194.227 129.173 193.958C128.006 187.073 126.756 181.12 125.63 176.247L125.61 176.255Z" fill="#E5B793"/>
<path d="M102.878 161.955C103.313 162.235 104.169 162.832 105.13 163.703C109.313 167.475 110.556 171.983 112.782 180.457C113.615 183.65 113.697 184.59 113.143 185.14C111.688 186.561 106.972 184.301 104.185 182.126C102.54 180.851 98.9881 177.603 97.2845 170.922" stroke="#E5946D" stroke-width="2.41" stroke-linecap="round" stroke-linejoin="round"/>
<path d="M36.5338 357.736C42.5063 336.159 48.5629 314.611 54.6951 293.081C58.1196 281.075 61.5623 269.081 65.0337 257.091C65.0337 257.091 70.4332 240.938 65.7459 231.042C65.5888 230.705 65.2865 230.1 64.8515 229.112C61.8505 222.328 60.6849 213.651 60.6849 213.651C60.1226 209.479 57.9642 193.47 61.3785 189.636C61.6652 189.318 63.748 187.113 65.9766 183.75C70.8707 177.905 74.796 174.185 77.5852 171.814C78.8368 170.739 82.4613 167.732 86.8064 163.098C87.5743 162.28 88.2019 161.592 88.6225 161.115C89.5716 161.034 91.1039 160.94 92.9867 161.01C98.9733 161.228 100.173 162.755 103.473 162.01C106.147 161.41 105.97 160.276 109.875 159.229C111.893 158.683 113.488 158.276 115.148 158.787C117.259 159.434 118.305 161.216 120.142 164.46C123.318 170.081 124.551 175.567 125.06 177.833C125.145 178.21 125.318 179.024 125.747 180.952C126.51 184.351 126.887 186.049 126.967 186.378C126.967 186.378 128.791 193.557 128.234 195.367C128.204 195.471 128.163 195.573 128.163 195.573C127.881 196.385 127.464 196.922 127.316 197.119C126.873 197.71 126.593 198.416 126.231 199.065C125.291 200.746 124.452 202.39 123.313 204.476C120.749 209.227 119.998 210.153 118.766 210.872C118.29 211.149 116.954 211.934 116.07 211.411C115.433 211.031 115.303 210.183 115.136 208.876C114.972 207.617 115.066 206.58 115.169 205.903" stroke="#E5946D" stroke-width="2.41" stroke-linecap="round" stroke-linejoin="round"/>
<path d="M93.5927 219.281C91.8723 212.132 89.6849 206.775 87.9593 203.135C86.3588 199.771 85.3226 198.252 85.5755 195.759C86.0694 190.704 91.0449 189.706 91.7209 184.671C92.2373 180.83 90.0353 176.228 87.3374 175.632C86.3058 175.403 85.7213 175.873 76.5694 185.198C75.555 186.231 73.8481 188.012 73.2063 190.783C72.8631 192.238 72.96 193.392 73.0038 194.056C73.2505 197.389 73.4967 201.526 73.7894 206.658" stroke="#E5946D" stroke-width="2.41" stroke-linecap="round" stroke-linejoin="round"/>
<path d="M100.253 187.503C100.513 188.317 100.948 189.566 101.579 191.07C102.447 193.152 102.691 193.314 102.613 193.849C102.328 195.66 99.3003 195.426 96.6299 198.13C95.5177 199.259 94.9931 200.423 93.9418 202.77C92.6976 205.553 91.3358 208.613 92.3273 209.564C93.3113 210.496 96.1532 208.974 99.0971 207.405C103.453 205.069 103.145 204.251 107.877 201.394C111.355 199.292 113.055 198.809 113.749 196.81C114.145 195.67 114.051 194.487 113.915 192.621C113.777 190.696 113.415 189.125 113.108 188.034" stroke="#E5946D" stroke-width="2.41" stroke-linecap="round" stroke-linejoin="round"/>
<path d="M101.605 208.406C101.379 208.876 100.814 210.239 101.23 211.845C101.271 211.995 101.891 214.312 103.263 214.53C104.434 214.726 105.552 213.277 106.249 212.394C109.498 208.299 113.5 204.858 116.874 200.855C117.811 199.735 119.302 197.979 121.196 195.811C121.255 193.675 121.06 191.996 120.867 190.84C120.784 190.356 120.781 189.58 120.606 188.437C120.36 186.868 119.954 185.612 119.651 184.755" stroke="#E5946D" stroke-width="2.41" stroke-linecap="round" stroke-linejoin="round"/>
<path d="M86.7468 363.268C88.9728 341.466 90.8054 318.74 92.1192 295.171C93.1293 277.046 93.7763 259.406 94.1252 242.275C98.9484 236.636 103.896 230.216 108.711 222.967C110.729 219.931 112.597 216.936 114.333 214.004" stroke="#E5946D" stroke-width="2.41" stroke-linecap="round" stroke-linejoin="round"/>
<path d="M74.7757 186.088C76.2485 183.786 78.5081 182.181 80.4841 180.332C59.6461 189.787 47.7053 195.356 40.862 199.164C24.4708 208.29 14.9623 212.448 15.3578 213.354C15.7607 214.28 25.6168 209.869 42.557 204.681C42.557 204.681 55.8671 200.6 72.9299 194.378C73.032 191.491 73.1522 188.615 74.7661 186.087L74.7757 186.088Z" fill="url(#paint5_linear_623_915)"/>
<path d="M112.725 177.688C113.356 177.146 113.877 176.466 114.026 175.629C114.213 174.535 113.708 173.481 112.936 171.855C112.201 170.331 111.752 169.38 110.922 168.814C110.624 168.607 110.3 168.475 109.96 168.389C111.512 170.42 111.806 172.789 111.938 175.217C112.258 176.018 112.537 176.833 112.736 177.679L112.725 177.688Z" fill="url(#paint6_linear_623_915)"/>
<path d="M103.375 182.26C101.837 180.9 100.773 179.01 99.8132 177.237C99.6445 176.918 99.6003 176.613 99.6583 176.348C98.8548 175.184 97.9779 174.07 97.2063 172.881C97.1871 172.879 97.1775 172.878 97.1584 172.876C97.1009 172.87 97.0434 172.863 96.9859 172.857C94.5392 173.957 92.1829 175.027 89.9095 176.049C91.427 177.155 91.8501 179.761 92.0023 181.474C92.1754 183.528 91.8802 185.61 91.0408 187.437C95.1573 185.783 99.2928 184.044 103.365 182.259L103.375 182.26Z" fill="url(#paint7_linear_623_915)"/>
<path d="M114.383 176.357C114.355 175.278 114.182 173.494 113.323 171.5C112.433 169.445 111.207 168.07 110.417 167.315C122.063 161.869 130.849 158.379 133.424 157.7C133.424 157.7 133.424 157.7 136.677 156.941C139.8 156.215 140.149 156.128 140.663 156.31C142.364 156.883 143.628 159.513 143.14 161.495C142.68 163.403 140.76 164.027 136.497 166.043C127.695 170.21 127.683 171.392 119.898 174.409C117.6 175.302 115.669 175.945 114.383 176.357Z" fill="url(#paint8_linear_623_915)"/>
<path d="M142.868 162.212C144.062 162.73 146.068 163.444 148.589 163.535C156.585 163.817 160.27 157.414 167.337 157.681C169.258 157.756 172.159 158.354 175.667 161.121C174.382 158.771 171.246 153.843 165.169 150.814C162.769 149.621 160.508 149.016 158.691 148.701C160.68 148.869 162.669 149.028 164.657 149.197C163.059 148.208 159.531 146.34 154.795 146.385C152.835 146.403 148.39 146.451 144.684 149.759C142.064 152.091 141.076 154.92 140.692 156.303" fill="url(#paint9_radial_623_915)"/>
<path d="M177.073 164.222C176.959 164.2 176.472 165.552 176.254 167.099C176.108 168.178 176.227 168.327 176.076 169.619C175.943 170.836 175.874 171.468 175.588 172.222C174.927 174.021 173.894 174.422 173.951 175.766C173.972 176.369 174.2 176.676 174.294 176.792C174.663 177.23 175.209 177.29 175.63 177.345C176.003 177.386 176.864 177.5 177.456 176.954C177.553 176.867 177.739 176.674 177.864 176.329C178.299 175.184 177.454 174.316 177.054 172.295C176.865 171.363 176.855 170.567 176.837 169.577C176.825 168.625 176.87 167.767 176.883 167.468C176.914 167.006 176.949 166.506 177.022 165.486C177.1 164.332 177.092 164.224 177.063 164.221L177.073 164.222Z" fill="url(#paint10_linear_623_915)"/>
<path d="M165.739 158.108C166.084 158.058 166.463 158.4 166.651 158.721C167.496 160.132 165.544 162.469 166.218 163.046C166.368 163.179 166.671 163.241 166.873 163.263C167.227 163.302 167.52 163.198 167.612 163.15C168.472 162.73 167.253 160.135 168.448 158.695C168.605 158.499 169.007 158.097 169.606 157.852C170.225 157.599 170.764 157.639 170.765 157.629C170.767 157.61 170.031 157.598 167.073 157.614" fill="url(#paint11_linear_623_915)"/>
<path d="M164.598 157.634C164.7 157.771 164.833 157.97 164.95 158.235C165.426 159.286 165.234 160.341 164.915 161.663C164.278 164.298 163.417 165.784 163.984 166.719C164.058 166.843 164.297 167.228 164.644 167.246C164.972 167.263 165.23 166.942 165.319 166.835C166.08 165.901 165.547 163.681 165.569 162.064C165.583 160.96 165.865 159.44 167.064 157.603" fill="url(#paint12_linear_623_915)"/>
<path d="M164.668 157.797C165.033 158.448 166.64 157.76 168.708 157.909C170.169 158.02 171.231 158.504 172.025 158.872C173.991 159.775 175.34 161.095 176.176 162.137C175.157 159.835 173.951 158.103 173.001 156.943C172.36 156.155 170.349 153.803 167.02 151.791C166.611 151.543 164.772 150.451 162.163 149.574C161.77 149.444 159.199 148.582 159.069 148.878C158.94 149.174 161.225 150.713 162.752 151.015C162.923 151.053 163.565 151.21 164.407 151.487C164.613 151.558 164.854 151.652 165.129 151.798C166.083 152.3 166.994 153.097 166.864 153.403C166.698 153.763 165.237 153.206 165.06 153.584C164.861 153.989 166.116 155.454 167.799 156.026C168.546 156.282 169.132 156.511 169.11 156.624C169.06 156.9 165.346 155.942 164.704 157.113C164.606 157.296 164.556 157.581 164.678 157.789L164.668 157.797Z" fill="url(#paint13_linear_623_915)"/>
<path d="M289.467 110.35C289.756 105.833 291.466 87.8338 306.631 73.6502C323.927 57.4879 345.282 58.848 348.781 59.1327C347.033 58.0221 344.738 56.6891 341.95 55.3829C339.379 54.1791 335.576 52.6116 330.789 51.4114C329.068 50.9853 323.802 49.7345 317.264 49.5616C302.969 49.1887 291.848 54.2193 289.662 55.2321C286.358 56.7723 274.723 62.5561 265.375 75.6723C255.307 89.7983 254.018 103.871 253.765 107.595C252.967 119.424 255.818 128.782 257.789 133.891C259.042 137.122 260.813 140.886 263.323 144.829C264.808 147.155 267.08 150.39 270.302 153.837C272.671 156.373 274.905 158.351 276.69 159.789C279.949 162.421 282.714 164.118 283.828 164.777C287.3 166.839 290.172 168.05 292.105 168.869C294.312 169.794 295.415 170.262 296.034 170.388C298.412 170.875 300.59 170.578 302.551 172.261C302.593 172.297 302.615 172.31 302.636 172.333C303.028 172.703 303.89 174.03 302.846 179.588C301.772 185.278 300.08 188.536 301.398 190.484C301.562 190.728 302.119 191.534 302.858 191.532C303.552 191.529 304.075 190.832 304.257 190.585C305.705 188.622 304.323 184.914 304.277 180.378C304.247 177.096 304.914 172.423 306.579 172.084C306.736 172.094 306.903 172.104 307.06 172.102C307.645 172.237 308.24 172.776 308.59 173.3C310.544 176.225 306.634 181.412 308.121 182.574C308.453 182.829 309.107 182.946 309.542 182.972C310.301 183.005 310.909 182.761 311.106 182.65C312.968 181.629 310.059 175.334 312.422 173.045C312.683 172.791 312.985 172.608 313.318 172.471C313.885 172.336 314.867 172.204 315.907 172.601C317.714 173.278 318.47 175.069 318.686 175.586C320.669 180.303 316.068 185.618 317.951 187.285C318.366 187.656 319.115 187.868 319.694 187.913C320.608 187.979 321.555 187.676 322.003 187.3C324.109 185.566 319.708 179.508 321.949 175.677C323.331 173.319 325.996 174.058 335.222 170.415C337.032 169.705 338.492 169.064 339.424 168.637C335.76 168.309 315.861 166.173 301.602 148.676C288.617 132.743 289.185 114.945 289.477 110.373L289.467 110.35Z" fill="url(#paint14_linear_623_915)"/>
<defs>
<radialGradient id="paint0_radial_623_915" cx="0" cy="0" r="1" gradientUnits="userSpaceOnUse" gradientTransform="translate(106.734 314.023) rotate(6.23294) scale(10.2248 10.2248)">
<stop stop-color="#BB9F9B"/>
<stop offset="1" stop-color="#694B47"/>
</radialGradient>
<radialGradient id="paint1_radial_623_915" cx="0" cy="0" r="1" gradientUnits="userSpaceOnUse" gradientTransform="translate(109.13 308.866) rotate(6.23294) scale(9.79115 9.79117)">
<stop stop-color="#BB9F9B"/>
<stop offset="1" stop-color="#694B47"/>
</radialGradient>
<radialGradient id="paint2_radial_623_915" cx="0" cy="0" r="1" gradientUnits="userSpaceOnUse" gradientTransform="translate(106.147 302.539) rotate(6.23294) scale(9.10692 9.10693)">
<stop stop-color="#BB9F9B"/>
<stop offset="1" stop-color="#694B47"/>
</radialGradient>
<radialGradient id="paint3_radial_623_915" cx="0" cy="0" r="1" gradientUnits="userSpaceOnUse" gradientTransform="translate(96.7554 306.157) rotate(6.23294) scale(11.4391 11.439)">
<stop stop-color="#BB9F9B"/>
<stop offset="1" stop-color="#694B47"/>
</radialGradient>
<radialGradient id="paint4_radial_623_915" cx="0" cy="0" r="1" gradientUnits="userSpaceOnUse" gradientTransform="translate(95.045 323.148) rotate(6.23294) scale(22.3385 22.3385)">
<stop stop-color="#BB9F9B"/>
<stop offset="1" stop-color="#694B47"/>
</radialGradient>
<linearGradient id="paint5_linear_623_915" x1="50.3965" y1="203.201" x2="48.4278" y2="198.149" gradientUnits="userSpaceOnUse">
<stop stop-color="#6F5AB7"/>
<stop offset="1" stop-color="#805A96"/>
</linearGradient>
<linearGradient id="paint6_linear_623_915" x1="113.695" y1="176.621" x2="111.494" y2="171.921" gradientUnits="userSpaceOnUse">
<stop stop-color="#6F5A96"/>
<stop offset="1" stop-color="#805A96"/>
</linearGradient>
<linearGradient id="paint7_linear_623_915" x1="97.0716" y1="184.499" x2="94.6632" y2="178.236" gradientUnits="userSpaceOnUse">
<stop stop-color="#6C538F"/>
<stop offset="1" stop-color="#805A96"/>
</linearGradient>
<linearGradient id="paint8_linear_623_915" x1="123.756" y1="158.525" x2="138.995" y2="186.577" gradientUnits="userSpaceOnUse">
<stop stop-color="white"/>
<stop offset="0.35" stop-color="#DAD4D1"/>
</linearGradient>
<radialGradient id="paint9_radial_623_915" cx="0" cy="0" r="1" gradientUnits="userSpaceOnUse" gradientTransform="translate(145.491 159.231) rotate(6.23294) scale(11.4391 11.4391)">
<stop stop-color="#4D4D4D"/>
<stop offset="0.81" stop-color="#756561"/>
</radialGradient>
<linearGradient id="paint10_linear_623_915" x1="174.498" y1="170.581" x2="178.512" y2="171.02" gradientUnits="userSpaceOnUse">
<stop stop-color="#6F5AB7"/>
<stop offset="1" stop-color="#805A96"/>
</linearGradient>
<linearGradient id="paint11_linear_623_915" x1="165.524" y1="160.082" x2="170.438" y2="160.618" gradientUnits="userSpaceOnUse">
<stop stop-color="#6F5AB7"/>
<stop offset="1" stop-color="#805A96"/>
</linearGradient>
<linearGradient id="paint12_linear_623_915" x1="164.096" y1="162.233" x2="166.539" y2="162.5" gradientUnits="userSpaceOnUse">
<stop stop-color="#6F5AB7"/>
<stop offset="1" stop-color="#805A96"/>
</linearGradient>
<linearGradient id="paint13_linear_623_915" x1="158.45" y1="154.462" x2="176.795" y2="156.465" gradientUnits="userSpaceOnUse">
<stop stop-color="#6F5AB7"/>
<stop offset="1" stop-color="#805A96"/>
</linearGradient>
<linearGradient id="paint14_linear_623_915" x1="253.177" y1="117.187" x2="345.026" y2="122.603" gradientUnits="userSpaceOnUse">
<stop stop-color="#6F3BC6"/>
<stop offset="1" stop-color="#8496F5"/>
</linearGradient>
</defs>
</svg>
