<svg width="55" height="86" viewBox="0 0 55 86" fill="none" xmlns="http://www.w3.org/2000/svg">
<path d="M21.3971 37.2608C21.4105 34.5563 21.7978 23.7582 30.3454 14.7632C40.0951 4.51268 52.8832 4.57277 54.98 4.61952C53.8982 4.01851 52.4825 3.30398 50.773 2.62284C49.197 1.99513 46.8731 1.19379 43.9749 0.646202C42.9332 0.452544 39.7478 -0.108395 35.8413 0.0184843C27.3003 0.298954 20.8429 3.6913 19.5741 4.37244C17.6575 5.40751 10.9196 9.2673 5.80435 17.421C0.295131 26.2023 0.021338 34.6431 0.00130444 36.8735C-0.0587962 43.9587 1.97127 49.4412 3.32687 52.4195C4.18831 54.3027 5.37697 56.4864 7.01304 58.7501C7.98133 60.0857 9.45045 61.9355 11.4939 63.8787C12.9964 65.3078 14.3987 66.4096 15.5139 67.2043C17.5507 68.6601 19.2602 69.5749 19.948 69.9289C22.0916 71.0374 23.8479 71.6584 25.0299 72.0791C26.3788 72.5532 27.0533 72.7936 27.4272 72.8471C28.863 73.0541 30.1518 72.8003 31.3805 73.7352C31.4072 73.7553 31.4206 73.7619 31.4339 73.7753C31.681 73.9823 32.2419 74.7436 31.8146 78.0959C31.3738 81.5283 30.479 83.5316 31.3338 84.6468C31.4406 84.7871 31.8012 85.2478 32.2419 85.2211C32.656 85.1944 32.9431 84.7603 33.0433 84.6068C33.8379 83.3847 32.883 81.2211 32.696 78.5166C32.5625 76.56 32.7962 73.7486 33.7778 73.4881C33.8713 73.4881 33.9715 73.4881 34.065 73.4815C34.4189 73.5416 34.7929 73.8421 35.0199 74.1426C36.2887 75.8187 34.1385 79.0508 35.0667 79.6919C35.2737 79.8321 35.6677 79.8788 35.9281 79.8788C36.3822 79.8722 36.7361 79.7052 36.8497 79.6318C37.9248 78.9573 35.9682 75.3045 37.2971 73.8554C37.444 73.6952 37.6176 73.575 37.8113 73.4815C38.1452 73.3813 38.7261 73.2678 39.3605 73.4681C40.4624 73.8087 40.9766 74.8504 41.1235 75.1509C42.4724 77.8955 39.9148 81.2278 41.0968 82.156C41.3572 82.363 41.8113 82.4632 42.1585 82.4698C42.7061 82.4765 43.2604 82.2628 43.5141 82.0224C44.7095 80.9139 41.8714 77.4548 43.0734 75.0908C43.8146 73.6351 45.4307 73.9823 50.8063 71.4848C51.8614 70.9973 52.7095 70.5633 53.2504 70.2761C51.0534 70.2093 39.1068 69.635 29.9848 59.6984C21.6776 50.6499 21.3904 40.0121 21.4038 37.2742L21.3971 37.2608Z" fill="white"/>
</svg>
