<svg width="2357" height="552" viewBox="0 0 2357 552" fill="none" xmlns="http://www.w3.org/2000/svg">
<path d="M0 94H42.1046C57.332 94 70.9133 84.4221 76.0251 70.0785V70.0785C86.1305 41.7232 124.5 37.5458 140.47 63.0622L272.554 274.096C334.545 373.14 479.269 371.799 539.414 271.625L552.752 249.411C620.172 137.12 783.247 138.056 849.374 251.115L852.481 256.428C919.553 371.102 1084.62 373.007 1154.32 259.911L1163.57 244.907C1234.49 129.821 1400.44 125.973 1476.62 237.648L1543.86 336.202C1576.39 383.886 1638.32 401.55 1691.11 378.201V378.201C1699.67 374.413 1707.76 369.634 1715.21 363.96L1764.79 326.201C1787.08 309.224 1816.41 304.607 1842.84 313.918L1868.71 323.033C1885.74 329.033 1904.7 323.878 1916.35 310.085V310.085C1927.65 296.707 1945.87 291.417 1962.58 296.667L1987.5 304.5" stroke="white" stroke-width="3"/>
<path d="M-0.00012207 136H42.1046C57.3319 136 70.9133 126.422 76.0251 112.078V112.078C86.1305 83.7232 124.5 79.5458 140.47 105.062L272.554 316.096C334.545 415.14 479.269 413.799 539.414 313.625L552.752 291.411C620.172 179.12 783.247 180.056 849.374 293.115L852.481 298.428C919.553 413.102 1084.62 415.007 1154.32 301.911L1158.79 294.651C1229.91 179.255 1397.92 179.967 1468.06 295.962L1479.55 314.965C1537.93 411.513 1665.88 438.397 1758.17 373.508L1784.5 355L1790.48 350.689C1811.24 335.709 1838.39 332.876 1861.8 343.248L1883.5 352.865C1897.93 359.26 1914.82 356.019 1925.86 344.735V344.735C1928.6 341.929 1930.89 338.712 1932.65 335.201L1933.52 333.46C1941.01 318.485 1955.46 308.223 1972.07 306.093L1984.5 304.5" stroke="white" stroke-width="3" stroke-dasharray="6 6"/>
<g clip-path="url(#clip0_373_75)">
<path d="M2264.25 345.766C2271.14 345.766 2276.72 340.167 2276.72 333.26C2276.72 326.354 2271.14 320.755 2264.25 320.755C2257.36 320.755 2251.78 326.354 2251.78 333.26C2251.78 340.167 2257.36 345.766 2264.25 345.766Z" fill="#303030"/>
<path d="M2264.25 340.696C2268.34 340.696 2271.66 337.367 2271.66 333.26C2271.66 329.154 2268.34 325.825 2264.25 325.825C2260.15 325.825 2256.83 329.154 2256.83 333.26C2256.83 337.367 2260.15 340.696 2264.25 340.696Z" fill="white"/>
<path d="M2289.95 293.967C2280.58 304.221 2271.2 314.475 2261.83 324.723C2259.29 327.542 2256.75 330.354 2254.22 333.172C2256.69 330.469 2259.16 327.765 2261.63 325.061L2245.45 302.754" stroke="#6A4D9F" stroke-width="7" stroke-linecap="round" stroke-linejoin="round"/>
<path d="M2251.69 357C2258.58 357 2264.16 351.401 2264.16 344.495C2264.16 337.588 2258.58 331.989 2251.69 331.989C2244.8 331.989 2239.22 337.588 2239.22 344.495C2239.22 351.401 2244.8 357 2251.69 357Z" fill="#303030"/>
<path d="M2251.69 351.93C2255.78 351.93 2259.1 348.601 2259.1 344.495C2259.1 340.388 2255.78 337.059 2251.69 337.059C2247.59 337.059 2244.27 340.388 2244.27 344.495C2244.27 348.601 2247.59 351.93 2251.69 351.93Z" fill="white"/>
<path d="M2238.04 306.134C2242.53 318.754 2247.02 331.368 2251.52 343.988" stroke="#6A4D9F" stroke-width="7" stroke-linecap="round" stroke-linejoin="round"/>
<path d="M2237.93 294.67C2247.04 271.68 2256.15 248.691 2265.27 225.701" stroke="#B3AFD1" stroke-width="3.96" stroke-miterlimit="10"/>
<path d="M2279.83 291.101C2265.23 267.313 2250.62 243.526 2236.02 219.733" stroke="#B3AFD1" stroke-width="3.96" stroke-miterlimit="10"/>
<path d="M2235.91 219.009C2237.09 233.637 2238.25 248.258 2239.43 262.886C2241 262.886 2242.58 262.886 2244.16 262.886C2242.99 248.258 2241.82 233.637 2240.65 219.009C2239.07 219.009 2237.49 219.009 2235.91 219.009Z" fill="#E8F6F9"/>
<path d="M2264.11 220.321C2264.81 230.507 2265.51 240.694 2266.21 250.881C2267.77 251.043 2269.34 251.205 2270.91 251.368C2270.21 241.181 2269.51 230.994 2268.81 220.807C2267.25 220.645 2265.68 220.483 2264.11 220.321Z" fill="#E8F6F9"/>
<path d="M2089.06 286.531C2085.11 287.085 2078.65 287.491 2071.53 285.179C2055.61 280.015 2053.31 266.766 2034.45 258.141C2028.57 255.45 2020.13 251.584 2013.56 255.437C2005.6 260.101 2006.09 272.721 2006.14 273.688C2006.98 289.64 2023.9 298.158 2025.02 298.698C2035.04 299.638 2049.56 299.733 2066.14 295.319C2075.23 292.899 2082.9 289.668 2089.06 286.531Z" fill="white"/>
<path d="M2018.28 300.726C2018.61 291.824 2068.52 294.561 2119.39 277.068C2122.43 276.027 2138.67 270.186 2171.57 259.432C2174.41 258.506 2182.78 255.863 2186.13 259.493C2188.28 261.818 2186.34 264.522 2188.15 266.928C2191.2 270.97 2199.49 267.043 2219.84 264.224C2226.39 263.319 2232.82 261.622 2239.39 260.845C2244.49 260.236 2249.17 259.905 2250.85 256.789C2252.24 254.2 2250.16 252.267 2250.85 250.029C2252.07 246.027 2260.99 244.865 2300.73 246.649C2316.25 247.346 2328.62 248.224 2334.44 251.381C2335.85 252.152 2338.12 253.632 2341.18 253.409C2345.09 253.118 2347.72 250.218 2349.27 251.381C2349.86 251.827 2350.14 252.74 2349.94 253.409C2349.52 254.869 2347.06 254.335 2345.22 256.113C2343.84 257.451 2344.33 258.614 2343.2 260.845C2341.97 263.271 2340.07 264.481 2338.48 265.576C2337.32 266.374 2336.37 267.09 2335.54 267.76C2334.81 268.341 2334.19 268.848 2333.65 269.314C2331.44 271.193 2329.85 272.654 2329.24 273.194C2327.38 274.857 2325.88 275.844 2322.98 277.75C2317.44 281.407 2311.13 284.753 2308.83 285.862C2274.25 302.572 2211.75 308.169 2211.75 308.169C2162.65 312.326 2152.36 309.324 2105.92 312.224C2091.79 313.11 2077.6 312.353 2063.45 312.9C2063.45 312.9 2060.11 313.029 2041.2 311.548C2034.69 311.041 2028.52 310.453 2023 306.141C2020.18 303.93 2018.22 302.416 2018.28 300.733L2018.28 300.726Z" fill="#8C9ED0"/>
<path d="M2006.14 270.984C2010.11 278.778 2017.26 289.972 2029.74 298.022C2042.66 306.357 2052.71 305.782 2114.67 303.43C2114.67 303.43 2160.55 301.693 2196.97 299.192C2201.68 298.867 2209.62 298.3 2219.95 297.157C2233.04 295.717 2245.82 293.669 2248.15 293.291C2271.32 289.553 2282.91 287.68 2287.92 285.855C2301.28 280.995 2313.65 276.202 2321.51 272.599C2333.35 267.172 2336.82 265.34 2336.82 265.34C2340.16 263.582 2341.7 262.649 2341.85 262.872C2342.26 263.467 2331.92 272.201 2320.95 279.095C2317.44 281.306 2308.28 286.835 2292.64 292.615C2269.34 301.226 2249.67 303.748 2229.95 306.134C2219.24 307.432 2211.24 307.986 2198.94 308.838C2179.43 310.19 2163.74 310.622 2154.45 310.866C2140.86 311.224 2138.82 311.048 2118.05 311.542C2104.62 311.859 2101.01 312.042 2093.78 312.218C2051.97 313.225 2030.88 313.556 2021.65 305.458C2015.78 300.307 2006.8 288.681 2006.14 274.364C2006.07 272.958 2006.11 271.782 2006.14 270.984Z" fill="#6A4D9F"/>
<path d="M2345.74 254.146C2347 253.936 2346.38 249.515 2347.11 231.859C2347.5 222.376 2347.87 219.016 2345.65 217.576C2342.82 215.738 2337.01 217.786 2335 221.524C2333.53 224.241 2334.57 226.952 2338.12 236.287C2344.33 252.618 2344.95 254.281 2345.74 254.153V254.146Z" fill="white"/>
<path d="M2345.61 255.234C2344.35 255.444 2344.97 259.864 2344.24 277.52C2343.85 287.004 2343.48 290.364 2345.7 291.804C2348.53 293.642 2354.34 291.594 2356.35 287.856C2357.82 285.139 2356.78 282.428 2353.23 273.093C2347.02 256.762 2346.4 255.099 2345.61 255.227V255.234Z" fill="white"/>
<path d="M2099.51 207.106C2099.49 203.604 2109.19 201.002 2137.93 194.262C2179.7 184.468 2183.97 178.877 2196.24 181.757C2208.53 184.643 2218.5 192.221 2230.96 201.698C2235.1 204.848 2255.73 220.875 2264.67 219.273C2265.04 219.205 2268.45 218.563 2272.76 219.273C2273.27 219.361 2278.12 220.158 2278.15 221.301C2278.19 222.808 2269.84 224.491 2266.69 224.681C2241.82 226.168 2223.54 238.565 2189.16 235.496C2175.07 234.239 2183.04 232.4 2131.19 218.597C2110.34 213.047 2099.52 210.803 2099.51 207.106Z" fill="white"/>
<path d="M2115.01 322.695C2114.65 320.816 2125.14 317.389 2141.98 311.88C2156.08 307.263 2168.79 303.106 2186.47 300.388C2196.63 298.827 2206.73 298.448 2226.92 297.684C2245.57 296.981 2260.35 296.427 2260.62 298.36C2260.69 298.847 2259.97 300.395 2235.68 306.472C2216.28 311.325 2206.58 313.752 2188.49 316.611C2163.52 320.552 2115.76 326.629 2115.01 322.695Z" fill="white"/>
<path d="M2175.35 303.43C2187.03 271.883 2198.72 240.343 2210.4 208.796" stroke="#B3AFD1" stroke-width="4" stroke-miterlimit="10"/>
<path d="M2219.15 297.13C2202.75 270.842 2186.35 244.554 2169.95 218.259" stroke="#B3AFD1" stroke-width="4" stroke-miterlimit="10"/>
<path d="M2163.89 222.991C2166.13 251.158 2168.38 279.319 2170.63 307.486C2172.2 307.263 2173.77 307.033 2175.35 306.81C2173.1 278.643 2170.85 250.482 2168.6 222.315C2167.03 222.538 2165.46 222.768 2163.89 222.991Z" fill="white"/>
<path d="M2211.39 219.706C2213.64 247.873 2215.89 276.033 2218.13 304.201C2219.7 303.978 2221.28 303.748 2222.85 303.525C2220.61 275.357 2218.35 247.197 2216.11 219.03C2214.54 219.253 2212.96 219.482 2211.39 219.706Z" fill="white"/>
<path d="M2078.27 291.263C2057.02 293.406 2041.2 295.183 2035.66 295.913C2031.34 296.488 2025.72 297.265 2025.72 297.265C2024.18 297.475 2022.44 297.718 2020.29 298.022C2007.53 299.827 2007.21 300.003 2001.42 300.726L1996.7 301.402C1991.53 302.139 1989.63 302.382 1987.26 303.43C1985.29 304.302 1983.81 304.944 1983.89 305.458C1984.14 307.134 2001.13 304.613 2028.38 303.43C2028.38 303.43 2046.97 302.619 2069.5 296.67C2071.31 296.197 2073.85 295.292 2076.24 293.291C2077.21 292.48 2077.89 291.709 2078.27 291.263H2078.27Z" fill="#6A4D9F"/>
<path d="M2071.53 290.587C2058.18 290.343 2047.17 291.601 2035.8 293.291C2020.38 295.589 2009.88 297.867 2006.14 298.698C1996.39 300.868 1985.78 303.227 1985.92 304.106C1986.15 305.559 2015.76 302.085 2035.13 299.374C2037.62 299.023 2078.49 293.264 2078.27 291.263C2078.25 290.999 2077.48 290.695 2071.53 290.587Z" fill="#8C9ED1"/>
</g>
<defs>
<clipPath id="clip0_373_75">
<rect width="424" height="176" fill="white" transform="translate(1933 181)"/>
</clipPath>
</defs>
</svg>
