<svg width="100" height="50" viewBox="0 0 100 50" fill="none" xmlns="http://www.w3.org/2000/svg">
<g clip-path="url(#clip0_168_85)">
<path d="M20.2713 50C39.7778 49.9117 59.2826 49.8251 78.7891 49.7368C90.6595 47.8695 99.5597 37.6797 99.9828 25.7888C100.43 13.2459 91.3306 1.98919 78.7891 0C59.7907 0 40.7904 0 21.7919 0C8.76504 2.07575 -0.537404 13.7035 0.024384 26.317C0.527219 37.6003 8.83093 47.5056 20.2713 50.0018V50Z" fill="#303030"/>
<path opacity="0.05" d="M21.8212 24.5981C22.2547 26.499 27.4703 23.4057 33.995 24.7483C40.3047 26.0485 39.8331 29.8484 46.0683 30.6257C48.5322 30.9331 53.1808 31.5108 57.7358 28.3645C58.8195 27.6155 59.5945 26.8664 61.084 26.4053C61.8694 26.1615 65.3806 25.0769 68.6924 27.6102C69.9113 28.5429 70.2824 29.3379 71.2291 29.2672C72.7931 29.1524 74.4126 26.7887 74.1715 25.1988C73.9479 23.7272 72.1689 23.1919 70.8234 22.7873C69.3929 22.3581 68.6941 22.5506 67.2723 22.4853C63.8236 22.3298 63.6103 20.9995 61.2868 21.1285C60.5256 21.1709 60.1234 21.337 55.91 23.6901C50.2661 26.8417 50.3944 26.8735 49.8222 27.006C48.6743 27.2727 45.1337 27.8469 41.7057 25.3489C40.3117 24.3331 39.8141 23.4481 38.1547 22.7873C36.452 22.109 34.7562 22.1567 33.995 22.1849C32.8611 22.2256 32.9616 22.3793 31.6612 22.487C29.036 22.7025 26.6484 22.2379 26.3866 22.1849C24.4897 21.8051 23.8568 21.3652 23.0384 22.0348C22.3743 22.5789 21.6426 23.8102 21.8212 24.5963V24.5981Z" fill="white"/>
<path d="M32.9219 21.5331L32.5665 22.2662C32.5404 22.3192 32.4919 22.3563 32.4347 22.3651L31.6405 22.4835C31.4966 22.5047 31.4377 22.6849 31.5434 22.7891L32.1174 23.3597C32.159 23.4003 32.1781 23.4604 32.1677 23.5187L32.0324 24.3243C32.0081 24.4709 32.159 24.5822 32.2873 24.5133L32.9965 24.1335C33.0485 24.1052 33.1092 24.1052 33.1595 24.1335L33.8686 24.5133C33.9969 24.5822 34.1495 24.4709 34.1235 24.3243L33.9883 23.5187C33.9779 23.4604 33.9969 23.4003 34.0385 23.3597L34.6125 22.7891C34.7165 22.6849 34.6593 22.5047 34.5154 22.4835L33.7212 22.3651C33.664 22.3563 33.6137 22.3192 33.5895 22.2662L33.234 21.5331C33.1699 21.4006 32.9826 21.4006 32.9184 21.5331H32.9219Z" fill="white"/>
<path d="M26.9658 28.732L26.2132 30.283C26.1595 30.3943 26.0537 30.472 25.9323 30.4915L24.2522 30.7406C23.947 30.7865 23.8239 31.1681 24.0458 31.3889L25.2613 32.5973C25.3497 32.6838 25.3896 32.811 25.3688 32.9329L25.081 34.6377C25.029 34.9486 25.348 35.1836 25.622 35.0387L27.1253 34.2331C27.2345 34.1748 27.3628 34.1748 27.4721 34.2331L28.9754 35.0387C29.2493 35.1853 29.5684 34.9486 29.5163 34.6377L29.2285 32.9329C29.2077 32.8093 29.2476 32.6838 29.336 32.5973L30.5515 31.3889C30.7734 31.1699 30.6503 30.7865 30.3451 30.7406L28.665 30.4915C28.5436 30.4738 28.4378 30.3961 28.3841 30.283L27.6316 28.732C27.4946 28.4493 27.0993 28.4493 26.964 28.732H26.9658Z" fill="white"/>
<path d="M25.8856 10.9246L25.4192 11.8892C25.3863 11.9581 25.3204 12.0076 25.2441 12.0182L24.2003 12.1718C24.0113 12.2001 23.935 12.4368 24.072 12.5746L24.8279 13.3254C24.8817 13.3802 24.9077 13.4579 24.8938 13.5339L24.7152 14.5938C24.6823 14.7864 24.8817 14.933 25.0516 14.8429L25.9845 14.343C26.0521 14.3077 26.1318 14.3077 26.1995 14.343L27.1323 14.8429C27.3022 14.933 27.4999 14.7864 27.4687 14.5938L27.2901 13.5339C27.278 13.4579 27.3022 13.3802 27.356 13.3254L28.112 12.5746C28.249 12.4386 28.1744 12.2001 27.9837 12.1718L26.9399 12.0182C26.8653 12.0076 26.7994 11.9581 26.7647 11.8892L26.2983 10.9246C26.2133 10.7497 25.9689 10.7497 25.8839 10.9246H25.8856Z" fill="white"/>
<path opacity="0.05" d="M67.685 9.58378C67.2307 12.1877 61.7637 7.94968 54.9251 9.79047C48.312 11.5712 48.8061 16.7791 42.271 17.8444C39.6892 18.2648 34.8169 19.058 30.0417 14.7475C28.906 13.7212 28.0928 12.6948 26.5323 12.0623C25.7087 11.7302 22.0293 10.241 18.5563 13.7141C17.2784 14.9913 16.89 16.0813 15.8982 15.9859C14.2579 15.8287 12.5604 12.5888 12.8135 10.4105C13.0476 8.39309 14.9133 7.65996 16.323 7.10701C17.8228 6.51873 18.5563 6.78196 20.044 6.69363C23.6592 6.47987 23.8829 4.65851 26.3173 4.83517C27.1166 4.89346 27.5362 5.12136 31.9525 8.3454C37.8669 12.663 37.7334 12.7071 38.3333 12.8891C39.5366 13.2548 43.2472 14.0409 46.8399 10.6172C48.3016 9.22339 48.8217 8.01151 50.5608 7.10701C52.345 6.17778 54.124 6.24314 54.9199 6.28024C56.1076 6.33677 56.0036 6.547 57.3665 6.69363C60.1182 6.98865 62.6202 6.35267 62.8959 6.28024C64.883 5.7591 65.5488 5.15669 66.4054 6.07355C67.1007 6.81729 67.8688 8.50616 67.6815 9.58378H67.685Z" fill="white"/>
<path opacity="0.05" d="M75.4269 34.6889C74.9726 37.2929 69.5056 33.0548 62.6671 34.8956C56.0539 36.6763 56.5481 41.8843 50.013 42.9495C47.4312 43.37 42.5589 44.1632 37.7837 39.8527C36.6479 38.8263 35.8347 37.7999 34.2742 37.1674C33.4506 36.8353 29.7712 35.3461 26.2982 38.8192C25.0203 40.0965 24.6319 41.1865 23.6401 41.0911C21.9998 40.9338 20.3023 37.6939 20.5555 35.5157C20.7896 33.4982 22.6553 32.7651 24.0649 32.2121C25.5648 31.6239 26.2982 31.8871 27.7859 31.7988C31.4011 31.585 31.6248 29.7636 34.0592 29.9403C34.8585 29.9986 35.2782 30.2265 39.6944 33.4505C45.6088 37.7681 45.4753 37.8123 46.0752 37.9942C47.2786 38.3599 50.9891 39.146 54.5818 35.7224C56.0435 34.3285 56.5637 33.1166 58.3028 32.2121C60.087 31.2829 61.866 31.3483 62.6619 31.3854C63.8496 31.4419 63.7455 31.6521 65.1084 31.7988C67.8601 32.0938 70.3622 31.4578 70.6379 31.3854C72.6249 30.8642 73.2907 30.2618 74.1473 31.1787C74.8426 31.9224 75.6107 33.6113 75.4235 34.6889H75.4269Z" fill="white"/>
</g>
<defs>
<clipPath id="clip0_168_85">
<rect width="100" height="50" fill="white"/>
</clipPath>
</defs>
</svg>
