<svg width="62" height="93" viewBox="0 0 62 93" fill="none" xmlns="http://www.w3.org/2000/svg">
<g filter="url(#filter0_d_899_1993)">
<path d="M22.4349 40.4784C22.4462 23.3827 38.0011 9.29498 58.0296 7.37225C52.7958 4.58209 46.823 3 40.481 3C32.1261 3 3.03878 14.115 3.03189 40.4784C3.02739 57.8989 15.724 73.4283 33.35 77.2246C33.8777 77.3528 34.5877 77.6179 35.1098 78.2343C35.5776 78.7891 35.9382 79.6829 35.5469 82.7013C35.0905 86.2167 34.1773 88.2729 35.0533 89.409C35.1654 89.5547 35.5281 90.0253 35.9822 89.9989C36.4083 89.9744 36.6979 89.5266 36.7997 89.3703C37.6106 88.1166 36.6372 85.9024 36.4514 83.1298C36.3177 81.1228 36.5581 78.2483 37.5612 77.9814C37.6594 77.9796 37.7576 77.9761 37.8575 77.9744C38.2222 78.0376 38.6042 78.3449 38.8337 78.6504C40.1283 80.3659 37.9256 83.6759 38.8773 84.3378C39.0876 84.4836 39.4943 84.531 39.7574 84.5275C40.2203 84.5205 40.5833 84.3484 40.6991 84.2764C41.7989 83.5881 39.8008 79.8427 41.1589 78.3624C41.308 78.2009 41.487 78.0745 41.6816 77.9796C42.0201 77.8796 42.6163 77.7602 43.2702 77.9621C44.3957 78.3115 44.921 79.3809 45.0698 79.6847C46.4514 82.4941 43.8313 85.9076 45.0388 86.8593C45.3034 87.0683 45.7662 87.1719 46.1257 87.1772C46.6885 87.186 47.2497 86.9612 47.5147 86.7154C48.7007 85.6162 46.0114 82.3853 47.0722 79.6127C47.5289 78.4204 48.6796 77.7619 50.9826 76.4467C52.535 75.56 54.8748 74.4169 57.9893 73.5846C37.9651 71.6618 22.4236 57.5741 22.4349 40.4784Z" fill="white"/>
</g>
<defs>
<filter id="filter0_d_899_1993" x="0.03125" y="0" width="60.998" height="93" filterUnits="userSpaceOnUse" color-interpolation-filters="sRGB">
<feFlood flood-opacity="0" result="BackgroundImageFix"/>
<feColorMatrix in="SourceAlpha" type="matrix" values="0 0 0 0 0 0 0 0 0 0 0 0 0 0 0 0 0 0 127 0" result="hardAlpha"/>
<feOffset/>
<feGaussianBlur stdDeviation="1.5"/>
<feComposite in2="hardAlpha" operator="out"/>
<feColorMatrix type="matrix" values="0 0 0 0 0.559323 0 0 0 0 0.559323 0 0 0 0 0.559323 0 0 0 1 0"/>
<feBlend mode="normal" in2="BackgroundImageFix" result="effect1_dropShadow_899_1993"/>
<feBlend mode="normal" in="SourceGraphic" in2="effect1_dropShadow_899_1993" result="shape"/>
</filter>
</defs>
</svg>
