<svg width="77" height="112" viewBox="0 0 77 112" fill="none" xmlns="http://www.w3.org/2000/svg">
<path d="M40.4697 111.53C40.7626 111.823 41.2374 111.823 41.5303 111.53L46.3033 106.757C46.5962 106.464 46.5962 105.99 46.3033 105.697C46.0104 105.404 45.5355 105.404 45.2426 105.697L41 109.939L36.7574 105.697C36.4645 105.404 35.9896 105.404 35.6967 105.697C35.4038 105.99 35.4038 106.464 35.6967 106.757L40.4697 111.53ZM40.25 89L40.25 111L41.75 111L41.75 89L40.25 89Z" fill="#AA703D"/>
<g clip-path="url(#clip0_406_3398)">
<path d="M37.4305 77.2578C36.1323 74.5041 33.1636 72.8654 32.172 69.9385C31.0749 66.701 32.5802 63.1927 34.0038 60.3155C35.5748 57.1377 37.4863 54.0475 38.1871 50.5273C38.4739 49.0837 38.5694 47.5924 38.3424 46.1329C38.1115 44.6436 37.5142 43.3115 36.6381 42.091C35.7281 40.8226 34.6111 39.6021 34.3125 38.0192C34.0337 36.5458 34.4479 34.9569 35.3837 33.7881C35.6166 33.4974 35.8834 33.2385 36.1741 33.0096C36.2976 32.912 36.1682 32.7049 36.0427 32.8025C34.8899 33.7025 34.1711 35.0723 34.0138 36.5199C33.9361 37.2407 34.0018 37.9833 34.2268 38.6742C34.4658 39.405 34.862 40.066 35.3 40.6912C35.766 41.3543 36.2817 41.9815 36.7336 42.6545C37.1757 43.3175 37.5341 44.0303 37.777 44.7909C38.2389 46.2384 38.3106 47.7835 38.1374 49.2868C37.7192 52.9027 35.8854 56.0904 34.2547 59.2722C32.7654 62.1772 31.1267 65.5103 31.6583 68.8773C31.8992 70.3985 32.6758 71.6887 33.6554 72.8495C34.6529 74.0322 35.8118 75.0915 36.662 76.3917C36.867 76.7043 37.0502 77.0308 37.2095 77.3693C37.2772 77.5127 37.4942 77.3992 37.4285 77.2558L37.4305 77.2578Z" fill="#CD3C7C"/>
<path d="M33.4284 32.1036C33.4284 32.1036 32.5543 33.3799 32.9187 33.7164C33.2831 34.0529 34.6231 34.1843 35.7819 34.1106C36.9387 34.037 37.2155 33.8757 37.1976 33.589C37.1796 33.3023 36.6162 31.6098 36.1502 31.4943C35.6863 31.3788 33.8804 31.2892 33.4284 32.1016V32.1036Z" fill="url(#paint0_radial_406_3398)"/>
<path d="M47.5014 15.7308C47.4318 23.6235 41.1956 32.1633 35.065 32.1096C31.0549 32.0737 26.8936 28.1214 24.6356 23.1277C24.6297 23.1178 24.6257 23.1058 24.6177 23.0959C24.6177 23.0919 24.6157 23.0899 24.6137 23.0879C24.6137 23.0819 24.6117 23.0799 24.6098 23.0779V23.074C23.5366 20.6846 22.8974 18.0604 22.9213 15.5177C22.991 7.61903 28.5482 1.26941 35.3358 1.32915C38.211 1.35503 40.8452 2.5258 42.9199 4.46712C45.7473 7.1113 47.5413 11.1811 47.5014 15.7308Z" fill="url(#paint1_radial_406_3398)"/>
<path opacity="0.32" d="M29.4522 7.68474C29.4662 7.07745 28.8449 6.69516 28.3033 6.94803C28.1202 7.03365 27.8733 7.30842 27.7797 7.49359C27.2919 8.44733 27.6383 8.71215 27.8932 8.82564C28.4348 9.06656 28.9963 8.59069 29.1894 8.32388C29.3208 8.14269 29.4462 7.90575 29.4522 7.68474Z" fill="white"/>
<path opacity="0.32" d="M33.3924 5.83501C33.8961 4.89321 33.2211 3.8001 32.1718 3.76824C31.8154 3.75829 31.2101 3.99324 30.9174 4.20828C29.3982 5.31931 29.7307 6.00823 30.0433 6.39052C30.7024 7.19891 31.9588 6.89626 32.4765 6.63145C32.8269 6.45225 33.2112 6.17747 33.3944 5.83501H33.3924Z" fill="white"/>
</g>
<path d="M12.3571 109.498C11.2516 107.153 8.72371 105.758 7.87937 103.265C6.94517 100.509 8.22694 97.5212 9.4392 95.0712C10.7769 92.3653 12.4046 89.7339 13.0014 86.7364C13.2455 85.5071 13.3269 84.2372 13.1336 82.9945C12.9369 81.7263 12.4283 80.592 11.6823 79.5527C10.9075 78.4727 9.95631 77.4334 9.70199 76.0855C9.46463 74.8308 9.81729 73.4778 10.6142 72.4826C10.8125 72.2351 11.0397 72.0147 11.2873 71.8197C11.3924 71.7366 11.2822 71.5603 11.1754 71.6433C10.1937 72.4097 9.58162 73.5762 9.44767 74.8088C9.38155 75.4225 9.4375 76.0549 9.62909 76.6433C9.83254 77.2655 10.1699 77.8284 10.5429 78.3608C10.9397 78.9254 11.3788 79.4594 11.7637 80.0325C12.1401 80.5971 12.4453 81.2041 12.6521 81.8517C13.0454 83.0843 13.1065 84.4 12.959 85.6801C12.6029 88.759 11.0414 91.4735 9.65283 94.1828C8.38462 96.6565 6.98925 99.4947 7.44194 102.362C7.64709 103.657 8.30832 104.756 9.14249 105.744C9.99192 106.751 10.9787 107.653 11.7026 108.76C11.8773 109.027 12.0333 109.305 12.1689 109.593C12.2265 109.715 12.4113 109.618 12.3554 109.496L12.3571 109.498Z" fill="#EC7832"/>
<path d="M8.94744 71.0499C8.94744 71.0499 8.20313 72.1367 8.5134 72.4233C8.82367 72.7098 9.96472 72.8217 10.9515 72.759C11.9365 72.6962 12.1722 72.5589 12.1569 72.3148C12.1417 72.0706 11.6619 70.6295 11.2651 70.5311C10.8701 70.4328 9.33231 70.3565 8.94744 71.0482V71.0499Z" fill="url(#paint2_radial_406_3398)"/>
<path d="M20.9309 57.1065C20.8716 63.8273 15.5614 71.0991 10.3411 71.0533C6.92643 71.0228 3.38291 67.6573 1.46026 63.4051C1.45517 63.3966 1.45178 63.3865 1.445 63.378C1.445 63.3746 1.4433 63.3729 1.44161 63.3712C1.44161 63.3661 1.43991 63.3644 1.43822 63.3627V63.3593C0.524364 61.3231 -0.0181844 59.0885 0.000465718 56.9217C0.0598069 50.2009 4.79354 44.794 10.5734 44.8449C13.0216 44.8669 15.2647 45.8639 17.0314 47.5169C19.4389 49.7685 20.9666 53.234 20.9326 57.1082L20.9309 57.1065Z" fill="url(#paint3_radial_406_3398)"/>
<path opacity="0.32" d="M5.56339 50.2568C5.57525 49.7397 5.04627 49.4141 4.5851 49.6295C4.42912 49.7024 4.21888 49.9363 4.1392 50.094C3.72381 50.9061 4.01882 51.1316 4.23584 51.2283C4.697 51.4334 5.17512 51.0282 5.33958 50.801C5.45148 50.6467 5.5583 50.445 5.56339 50.2568Z" fill="white"/>
<path opacity="0.32" d="M8.91668 48.6817C9.34564 47.8797 8.77087 46.9489 7.87737 46.9218C7.57388 46.9133 7.05846 47.1134 6.80922 47.2965C5.51559 48.2426 5.79873 48.8292 6.06492 49.1547C6.62611 49.8431 7.69595 49.5854 8.13677 49.3599C8.43517 49.2073 8.7624 48.9733 8.91838 48.6817H8.91668Z" fill="white"/>
<path d="M67.5 93.5388C66.2755 90.9414 63.4752 89.3957 62.5399 86.6349C61.5051 83.5811 62.9249 80.2718 64.2678 77.558C65.7496 74.5605 67.5526 71.6457 68.2137 68.3252C68.4841 66.9635 68.5743 65.5568 68.3602 64.1802C68.1423 62.7753 67.5789 61.5189 66.7525 60.3676C65.8942 59.1712 64.8406 58.0199 64.5589 56.5268C64.2959 55.137 64.6866 53.6383 65.5693 52.5358C65.789 52.2616 66.0407 52.0175 66.3149 51.8015C66.4313 51.7095 66.3093 51.5141 66.1909 51.6062C65.1035 52.4551 64.4255 53.7472 64.2772 55.1126C64.2039 55.7925 64.2659 56.493 64.4781 57.1447C64.7035 57.834 65.0772 58.4575 65.4904 59.0473C65.9299 59.6727 66.4163 60.2643 66.8427 60.8991C67.2596 61.5245 67.5977 62.1969 67.8268 62.9143C68.2625 64.2797 68.3301 65.7371 68.1667 67.1551C67.7723 70.5657 66.0426 73.5726 64.5044 76.5738C63.0996 79.314 61.5539 82.458 62.0553 85.6339C62.2826 87.0687 63.0151 88.2858 63.9391 89.3807C64.88 90.4963 65.9731 91.4955 66.775 92.7219C66.9685 93.0167 67.1413 93.3247 67.2915 93.644C67.3554 93.7793 67.5601 93.6722 67.4981 93.537L67.5 93.5388Z" fill="#43335C"/>
<path d="M63.7248 50.9488C63.7248 50.9488 62.9003 52.1527 63.244 52.4701C63.5877 52.7875 64.8516 52.9115 65.9447 52.842C67.0359 52.7725 67.2969 52.6204 67.28 52.3499C67.2631 52.0795 66.7316 50.4831 66.2921 50.3741C65.8545 50.2652 64.1511 50.1807 63.7248 50.947V50.9488Z" fill="url(#paint4_radial_406_3398)"/>
<path d="M76.9994 35.5032C76.9337 42.948 71.0514 51.0033 65.2687 50.9526C61.4862 50.9188 57.5609 47.1907 55.4311 42.4804C55.4255 42.471 55.4218 42.4597 55.4142 42.4503C55.4142 42.4466 55.4124 42.4447 55.4105 42.4428C55.4105 42.4372 55.4086 42.4353 55.4067 42.4334V42.4297C54.3944 40.1759 53.7915 37.7006 53.8141 35.3022C53.8798 27.8574 59.1216 21.8662 65.5241 21.9244C68.2361 21.9488 70.7209 23.0532 72.6779 24.8843C75.3448 27.3785 77.037 31.2173 76.9994 35.5088V35.5032Z" fill="url(#paint5_radial_406_3398)"/>
<path opacity="0.32" d="M59.9742 27.9157C59.9874 27.3428 59.4014 26.9822 58.8905 27.2208C58.7178 27.3015 58.4849 27.5607 58.3966 27.7354C57.9365 28.635 58.2633 28.8848 58.5037 28.9918C59.0145 29.2191 59.5441 28.7702 59.7263 28.5185C59.8503 28.3476 59.9686 28.1241 59.9742 27.9157Z" fill="white"/>
<path opacity="0.32" d="M63.6912 26.1709C64.1663 25.2825 63.5296 24.2515 62.5399 24.2214C62.2037 24.212 61.6327 24.4336 61.3567 24.6365C59.9237 25.6845 60.2373 26.3343 60.5322 26.6949C61.1538 27.4574 62.3389 27.1719 62.8272 26.9221C63.1578 26.7531 63.5202 26.4939 63.693 26.1709H63.6912Z" fill="white"/>
<path d="M21.2898 86.9212C20.2003 87.3244 18.4386 86.106 17.4882 84.9617C15.391 82.4386 16.0842 78.8846 16.2105 78.2877C16.3168 74.4094 16.4232 70.5311 16.5296 66.654C16.0036 63.5736 15.8189 59.7532 17.8646 57.8973C20.0635 55.902 23.0316 57.7185 31.1281 58.6939C38.7091 59.6065 45.4671 58.837 46.3368 58.6939C49.7889 58.1242 52.197 57.3078 56.2921 57.7148C60.739 58.1563 65.083 59.8309 64.9988 60.2872C64.9731 60.4241 64.537 60.5239 62.8186 60.3957C58.3226 62.4908 50.7218 65.321 40.9676 65.6132C32.3439 65.8722 25.3778 64.0483 20.9414 62.4908C23.9516 81.0747 23.0468 86.2725 21.2898 86.9224V86.9212Z" fill="#AA703D"/>
<path d="M20.5381 63.048C22.3018 60.6599 26.3588 62.5172 34.744 62.8726C44.3437 63.2798 53.0575 61.645 53.0575 61.645C58.0452 60.7093 60.4489 59.7007 63.8407 60.9436C59.2011 58.6673 66.1605 61.7933 63.8407 60.9436C63.5144 59.6795 67.2336 62.609 63.8407 60.9436C64.2072 62.3606 66.9267 57.9729 64.5575 61.239C69.259 59.0333 69.8268 79.4573 68.1206 81.1062C65.293 83.838 61.9115 83.0164 53.7435 83.2106C47.8102 83.3519 43.4372 83.931 36.9696 84.789C25.9888 86.2449 20.4105 88.2151 19.1696 86.0165C18.5274 84.8784 19.8682 84.0816 20.5392 80.0552C20.8977 77.9037 20.6828 77.1257 20.368 70.0615C20.0934 63.9036 20.2118 63.4905 20.5381 63.048Z" fill="#E8B376"/>
<path d="M44.3476 71.0541C44.3908 71.1405 44.4294 71.2112 44.4634 71.266C44.5749 71.4701 44.6317 71.6001 44.6337 71.6561C44.6357 71.712 44.6093 71.757 44.5545 71.791C44.5077 71.8248 44.4444 71.8431 44.3644 71.846L42.8774 71.8999C42.7975 71.9028 42.7289 71.8893 42.6718 71.8594C42.6227 71.8291 42.5971 71.786 42.595 71.7301C42.5927 71.6661 42.6363 71.5444 42.7258 71.3651C42.778 71.2591 42.8149 71.1737 42.8366 71.1089L42.6777 66.7438L40.7908 71.9757L40.0952 72.0009L37.7708 66.8618L37.9344 71.3589C37.9613 71.4379 38.0042 71.5164 38.0631 71.5944C38.1489 71.7513 38.1926 71.8538 38.1944 71.9018C38.1967 71.9658 38.1703 72.0107 38.1152 72.0368C38.0681 72.0625 38.0166 72.0764 37.9606 72.0784L37.9486 72.0788L37.9247 72.0797L37.469 72.0962L37.445 72.0971L37.397 72.0988C37.349 72.1006 37.3006 72.0903 37.2518 72.0681C37.2107 72.0376 37.1891 71.9943 37.187 71.9384C37.185 71.8824 37.2101 71.8014 37.2622 71.6955C37.3141 71.5815 37.3513 71.5041 37.3739 71.4633L37.1849 66.2707C37.1497 66.1839 37.1111 66.1133 37.0691 66.0588C36.9662 65.8704 36.9137 65.7482 36.9116 65.6922C36.9076 65.5803 36.9895 65.5213 37.1574 65.5152L38.8003 65.4556L40.8893 70.0628L42.6138 65.3172L44.1607 65.261C44.2167 65.259 44.2731 65.269 44.3299 65.2909C44.3868 65.3129 44.4164 65.3558 44.4187 65.4198C44.421 65.4837 44.3774 65.6054 44.2879 65.7848C44.2357 65.8907 44.1988 65.9761 44.1771 66.0409L44.3476 71.0541ZM50.4336 65.0694C50.4661 65.0842 50.4827 65.0996 50.4833 65.1156C50.4847 65.1556 50.42 65.246 50.289 65.3868C50.158 65.5277 50.081 65.6105 50.0579 65.6354L48.7033 68.3383L48.7976 70.9286C48.8068 70.9603 48.8495 71.0348 48.9258 71.1521C48.9427 71.1755 48.9727 71.2304 49.0159 71.3169C49.067 71.4031 49.0937 71.4742 49.0957 71.5302C49.098 71.5941 49.0718 71.6431 49.017 71.6771C48.9619 71.7031 48.8944 71.7176 48.8144 71.7205L47.3274 71.7745C47.2475 71.7774 47.1791 71.7678 47.1222 71.7459C47.0731 71.7156 47.0474 71.6685 47.045 71.6046C47.043 71.5486 47.0604 71.4759 47.0971 71.3865C47.1419 71.2969 47.1718 71.2397 47.187 71.2152C47.2546 71.0926 47.2918 71.0152 47.2986 70.983L47.2231 68.9083L45.8363 66.437L45.8358 66.425L45.7196 66.2011C45.7196 66.2011 45.6906 66.1741 45.6326 66.1202C45.616 66.1048 45.5132 66.0285 45.3241 65.8912C45.1601 65.7851 45.0367 65.6935 44.9538 65.6165C44.871 65.5394 44.8279 65.457 44.8247 65.369C44.8227 65.313 44.9253 65.2733 45.1326 65.2498L45.1686 65.2485L46.6196 65.1958L47.4231 65.1666L47.4591 65.1653C47.5233 65.171 47.5571 65.2178 47.5603 65.3057C47.5632 65.3857 47.5377 65.4547 47.4837 65.5127C47.3845 65.6443 47.309 65.7712 47.2574 65.8931L48.3243 67.8237L49.3761 65.7082C49.2285 65.3933 49.1539 65.2119 49.1521 65.1639C49.1513 65.1399 49.1667 65.1234 49.1984 65.1142C49.2537 65.0962 49.4134 65.0824 49.6772 65.0728L49.7251 65.0711L50.3367 65.0489L50.4207 65.0458L50.4336 65.0694ZM37.4723 74.5457C37.5048 74.5606 37.5214 74.576 37.522 74.592C37.524 74.6479 37.3551 74.8462 37.0153 75.1867L35.1338 80.2383L34.9803 80.6401L34.7508 81.2609L33.9353 81.2905L31.7669 76.4819L30.3014 80.4257L30.2031 80.6934L30.1479 80.8275L29.9184 81.4483L29.1029 81.4779L26.5562 75.8425L26.2726 75.6367C26.1003 75.5228 25.9687 75.4275 25.8779 75.3508C25.7947 75.2658 25.7516 75.1793 25.7484 75.0913C25.7472 75.0593 25.7783 75.0342 25.8417 75.0159C25.9051 74.9976 25.9807 74.9868 26.0687 74.9836L26.1526 74.9806L26.4164 74.971L27.5557 74.9297L28.3592 74.9005L28.3831 74.8996C28.4474 74.9053 28.4811 74.9521 28.4843 75.0401C28.4872 75.12 28.4656 75.1848 28.4193 75.2345C28.3734 75.2922 28.3204 75.3742 28.2602 75.4805C28.2077 75.5784 28.1747 75.6597 28.161 75.7242L29.9506 79.6939L30.9565 76.9797L31.4281 75.7497L31.5593 75.3968L31.7769 74.7765L32.1966 74.7612C32.276 74.7423 32.3437 74.7319 32.3996 74.7298L32.4001 74.7418L32.6279 74.7336L32.9934 75.5368L34.783 79.5065L35.7889 76.7923L36.3913 75.1974C36.3398 75.1032 36.2879 74.997 36.2356 74.8788C36.183 74.7526 36.1561 74.6736 36.1549 74.6416C36.1543 74.6256 36.1697 74.609 36.2011 74.5919C36.2325 74.5747 36.3082 74.564 36.4281 74.5596C36.588 74.5538 36.7041 74.5536 36.7763 74.559L37.0401 74.5494C37.0798 74.54 37.1476 74.5335 37.2436 74.53L37.3755 74.5252L37.3995 74.5244L37.4594 74.5222L37.4723 74.5457ZM41.3815 74.2237C41.9971 74.2014 42.5663 74.3328 43.089 74.6181C43.6197 74.903 44.0464 75.2998 44.3692 75.8084C44.6916 76.309 44.864 76.8672 44.8864 77.4827C44.9088 78.0983 44.7776 78.6715 44.4927 79.2022C44.2078 79.7328 43.8111 80.1595 43.3025 80.4822C42.8019 80.8045 42.2438 80.9769 41.6282 80.9992C41.0126 81.0216 40.4394 80.8903 39.9087 80.6053C39.386 80.3201 38.9633 79.9232 38.6405 79.4146C38.3178 78.9059 38.1453 78.3438 38.1229 77.7282C38.1004 77.1126 38.2318 76.5435 38.517 76.0208C38.8019 75.4901 39.1946 75.0636 39.6952 74.7412C40.2038 74.4186 40.7659 74.2461 41.3815 74.2237ZM41.66 80.5538C41.8998 80.5451 42.1189 80.405 42.3171 80.1337C42.5151 79.8543 42.6659 79.4886 42.7695 79.0365C42.8809 78.5762 42.9268 78.0782 42.9073 77.5426C42.8878 77.0069 42.8059 76.5176 42.6617 76.0745C42.5252 75.6232 42.3482 75.2693 42.1307 75.0131C41.9213 74.7565 41.6926 74.6327 41.4448 74.6417C41.1969 74.6507 40.9739 74.7909 40.7756 75.0623C40.5854 75.3333 40.4346 75.699 40.3232 76.1594C40.2196 76.6114 40.1776 77.1053 40.1971 77.6409C40.2166 78.1766 40.2946 78.6701 40.4311 79.1214C40.5753 79.5645 40.7563 79.9181 40.974 80.1824C41.1915 80.4387 41.4201 80.5625 41.66 80.5538ZM50.6843 80.5265C50.6863 80.5824 50.5877 80.622 50.3884 80.6453L50.2805 80.6492L50.0046 80.6592L48.9853 80.6962L48.7455 80.7049L48.1818 80.7253L48.1579 80.7262C48.0936 80.7205 48.0599 80.6737 48.0567 80.5858C48.0535 80.4979 48.075 80.429 48.1212 80.3793C48.1757 80.3373 48.2479 80.2306 48.3377 80.0593L47.1428 78.2414L47.2061 79.9803C47.2493 80.0667 47.2879 80.1374 47.3219 80.1922C47.4334 80.3963 47.4902 80.5263 47.4922 80.5823C47.4942 80.6382 47.4678 80.6832 47.413 80.7172C47.3659 80.743 47.3024 80.7573 47.2225 80.7602L45.7355 80.8141L45.7235 80.8146C45.6675 80.8166 45.6071 80.8068 45.5423 80.7851C45.4854 80.7632 45.4559 80.7202 45.4535 80.6563C45.4521 80.6163 45.466 80.5597 45.4954 80.4866C45.5325 80.4052 45.5584 80.3483 45.5732 80.3157C45.6334 80.2094 45.674 80.1159 45.6951 80.0351L45.5118 74.9984C45.5109 74.9744 45.4936 74.939 45.4599 74.8922C45.4341 74.8451 45.3912 74.7666 45.3312 74.6568C45.2712 74.5469 45.2401 74.4639 45.2381 74.408C45.2361 74.352 45.2586 74.3112 45.3057 74.2854C45.3605 74.2514 45.4279 74.233 45.5078 74.2301L47.0068 74.1757C47.1504 74.1624 47.4221 74.1486 47.8218 74.1341C48.3895 74.1135 48.8974 74.2111 49.3455 74.427C49.8014 74.6346 50.0437 75.1341 50.0725 75.9256C50.108 76.901 49.6719 77.5652 48.7641 77.9184L49.6847 79.458L49.8635 79.7517L49.9008 79.7864C49.9834 79.8554 50.082 79.9239 50.1965 79.9918C50.3773 80.1213 50.505 80.2208 50.5796 80.2901C50.6622 80.3591 50.7051 80.4376 50.7083 80.5256L50.6843 80.5265ZM48.3799 77.2599C48.7049 76.9519 48.8578 76.5341 48.8386 76.0064C48.8282 75.7186 48.7506 75.4573 48.606 75.2223C48.4693 74.9871 48.2987 74.8092 48.0942 74.6886C47.8974 74.5596 47.707 74.4985 47.5231 74.5051C47.3872 74.5101 47.2728 74.5543 47.1797 74.6377C47.0947 74.7208 47.0393 74.8469 47.0134 75.016L47.1086 77.6302C47.1426 77.685 47.2395 77.7095 47.3994 77.7037C47.5513 77.6982 47.714 77.6603 47.8876 77.59C48.0612 77.5196 48.2174 77.4139 48.3564 77.2727L48.3799 77.2599ZM56.4134 80.3545C56.4154 80.4105 56.3168 80.4501 56.1175 80.4734L56.0096 80.4773L55.7338 80.4873L54.7145 80.5243L54.4746 80.533L53.911 80.5534L53.887 80.5543C53.8227 80.5486 53.7889 80.4978 53.7854 80.4019C53.7825 80.3219 53.8041 80.2571 53.8504 80.2074C53.9197 80.1328 53.9917 80.0222 54.0664 79.8754L52.8333 77.9988L52.8966 79.7377C52.9152 79.8091 52.9627 79.9034 53.039 80.0207C53.0479 80.0444 53.0738 80.0955 53.1167 80.174C53.1595 80.2525 53.1819 80.3157 53.1836 80.3637C53.1856 80.4197 53.1593 80.4646 53.1045 80.4987C53.0574 80.5244 52.9938 80.5387 52.9139 80.5416L51.4149 80.596L51.4029 80.5964C51.3469 80.5985 51.2865 80.5887 51.2217 80.567C51.1649 80.545 51.1353 80.5021 51.1329 80.4381C51.1309 80.3822 51.1483 80.3095 51.1851 80.2201C51.2298 80.1304 51.2598 80.0733 51.2749 80.0487L51.3749 79.8289L51.1925 74.8163L51.0767 74.6043C51.0598 74.5809 51.0258 74.5261 50.9747 74.4399C50.9315 74.3534 50.9089 74.2822 50.9068 74.2262C50.9042 74.1543 50.9305 74.1053 50.9855 74.0793C51.0486 74.053 51.1081 74.0388 51.1641 74.0368L52.6871 73.9815C52.7351 73.9798 52.7915 73.9897 52.8563 74.0114C52.9211 74.033 52.9549 74.0799 52.9575 74.1518C52.9598 74.2158 52.9162 74.3374 52.8267 74.5168C52.7745 74.6228 52.7376 74.7082 52.7159 74.773L52.7578 75.9242L52.781 76.5598L54.5069 74.4918C54.5294 74.451 54.5281 74.415 54.5029 74.3839C54.4855 74.3445 54.4356 74.2943 54.3534 74.2332C54.2788 74.1639 54.2406 74.1052 54.2389 74.0573C54.2366 73.9933 54.2951 73.9512 54.4144 73.9308C54.5337 73.9105 54.6495 73.9023 54.7617 73.9062C54.8817 73.9019 54.9616 73.899 55.0016 73.8975L55.6612 73.8736C55.758 73.8941 55.8081 73.9523 55.8116 74.0482C55.8131 74.0882 55.7825 74.1293 55.72 74.1716C55.6655 74.2136 55.6107 74.2476 55.5556 74.2737C55.5085 74.2994 55.4771 74.3165 55.4614 74.3251C55.4378 74.334 55.3788 74.3641 55.2846 74.4156C55.1904 74.467 55.1204 74.5216 55.0744 74.5793L53.5437 76.4L55.4006 79.2506L55.5914 79.5438C55.5917 79.5518 55.6001 79.5635 55.6167 79.5789C55.6992 79.648 55.7978 79.7164 55.9123 79.7843C56.0932 79.9139 56.2209 80.0133 56.2954 80.0826C56.378 80.1517 56.4209 80.2302 56.4241 80.3181L56.4134 80.3545ZM58.7403 75.1547C58.7487 75.3866 58.8199 75.5841 58.954 75.7474C59.096 75.9103 59.2651 76.0483 59.4614 76.1612C59.6653 76.2659 59.9339 76.3882 60.2672 76.5282C60.6494 76.6905 60.9549 76.8355 61.1837 76.9633C61.4125 77.0911 61.6109 77.264 61.7789 77.482C61.9467 77.6921 62.0364 77.957 62.048 78.2768C62.0637 78.7085 61.9415 79.0892 61.6813 79.4189C61.4208 79.7405 61.0738 79.9933 60.6402 80.1771C60.2063 80.353 59.7495 80.4496 59.2699 80.467C58.8142 80.4835 58.4038 80.4264 58.0388 80.2955C57.6815 80.1564 57.3983 79.9626 57.1891 79.714C56.9799 79.4654 56.8695 79.1812 56.8579 78.8614C56.8509 78.6696 56.8936 78.5239 56.986 78.4245C57.0782 78.3171 57.2002 78.2606 57.3521 78.2551C57.56 78.2476 57.7591 78.3284 57.9493 78.4976C58.1393 78.6588 58.2388 78.8633 58.2479 79.1112C58.2563 79.343 58.3672 79.5311 58.5806 79.6755C58.802 79.8196 59.0406 79.8869 59.2964 79.8777C59.5363 79.869 59.7375 79.7896 59.9002 79.6396C60.0625 79.4816 60.1385 79.2587 60.128 78.9709C60.1187 78.7151 60.0073 78.515 59.7939 78.3706C59.5883 78.218 59.2742 78.0573 58.8518 77.8885C58.4699 77.7342 58.1564 77.5895 57.9114 77.4543C57.666 77.3111 57.4507 77.1148 57.2655 76.8653C57.0883 76.6156 56.9929 76.3029 56.9792 75.9271C56.9603 75.4074 57.0968 74.9782 57.3886 74.6394C57.6805 74.3006 58.0158 74.0563 58.3946 73.9064C58.7811 73.7483 59.0983 73.6648 59.3461 73.6558C59.8658 73.6369 60.2955 73.6773 60.6354 73.7771C60.975 73.8688 61.2238 73.9959 61.3818 74.1583C61.5478 74.3203 61.634 74.4893 61.6404 74.6652C61.6462 74.8251 61.5912 74.9632 61.4753 75.0795C61.3672 75.1875 61.2212 75.2448 61.0373 75.2515C60.7815 75.2608 60.592 75.2236 60.4689 75.14C60.3535 75.0481 60.2406 74.9161 60.1302 74.744C60.0365 74.5873 59.9403 74.4747 59.8418 74.4063C59.7509 74.3295 59.6135 74.2945 59.4297 74.3012C59.2938 74.3061 59.14 74.3717 58.9685 74.498C58.797 74.6243 58.7171 74.8474 58.7287 75.1671L58.7403 75.1547Z" fill="#8F5E33"/>
<defs>
<radialGradient id="paint0_radial_406_3398" cx="0" cy="0" r="1" gradientUnits="userSpaceOnUse" gradientTransform="translate(34.9936 32.7666) rotate(178.62) scale(1.81589 1.81588)">
<stop stop-color="#CD7F71"/>
<stop offset="1" stop-color="#CD6475"/>
</radialGradient>
<radialGradient id="paint1_radial_406_3398" cx="0" cy="0" r="1" gradientUnits="userSpaceOnUse" gradientTransform="translate(32.1998 31.5322) scale(29.8207 29.8207)">
<stop stop-color="#CD9570"/>
<stop offset="1" stop-color="#CD6475"/>
</radialGradient>
<radialGradient id="paint2_radial_406_3398" cx="0" cy="0" r="1" gradientUnits="userSpaceOnUse" gradientTransform="translate(10.2804 71.6118) rotate(178.62) scale(1.54626)">
<stop stop-color="#ECD262"/>
<stop offset="1" stop-color="#ECAF52"/>
</radialGradient>
<radialGradient id="paint3_radial_406_3398" cx="0" cy="0" r="1" gradientUnits="userSpaceOnUse" gradientTransform="translate(7.90132 70.5634) scale(25.3929 25.3929)">
<stop stop-color="#ECE271"/>
<stop offset="0.74" stop-color="#ECAD5A"/>
<stop offset="1" stop-color="#EC9A52"/>
</radialGradient>
<radialGradient id="paint4_radial_406_3398" cx="0" cy="0" r="1" gradientUnits="userSpaceOnUse" gradientTransform="translate(65.2015 51.573) rotate(178.62) scale(1.71284 1.71284)">
<stop stop-color="#7D78E3"/>
<stop offset="1" stop-color="#6A40BE"/>
</radialGradient>
<radialGradient id="paint5_radial_406_3398" cx="0" cy="0" r="1" gradientUnits="userSpaceOnUse" gradientTransform="translate(62.5642 50.4098) scale(28.1285 28.1285)">
<stop stop-color="#94B3F9"/>
<stop offset="0.48" stop-color="#807EDE"/>
<stop offset="1" stop-color="#6A40BE"/>
</radialGradient>
<clipPath id="clip0_406_3398">
<rect width="24.6109" height="89.689" fill="white" transform="translate(22.9453)"/>
</clipPath>
</defs>
</svg>
