<svg width="232" height="339" viewBox="0 0 232 339" fill="none" xmlns="http://www.w3.org/2000/svg">
<g clip-path="url(#clip0_342_2)">
<path d="M112.68 232.577C108.772 224.287 99.8351 219.354 96.8501 210.543C93.5474 200.797 98.0789 190.235 102.365 181.574C107.094 172.007 112.848 162.705 114.958 152.107C115.821 147.762 116.109 143.272 115.426 138.879C114.73 134.395 112.932 130.385 110.295 126.711C107.555 122.893 104.193 119.218 103.294 114.453C102.455 110.017 103.701 105.234 106.518 101.716C107.22 100.841 108.023 100.061 108.898 99.372C109.27 99.0783 108.88 98.4549 108.502 98.7486C105.032 101.458 102.868 105.582 102.395 109.939C102.161 112.109 102.359 114.345 103.036 116.425C103.755 118.625 104.948 120.615 106.267 122.497C107.669 124.493 109.222 126.381 110.582 128.407C111.913 130.403 112.992 132.549 113.723 134.839C115.114 139.196 115.33 143.848 114.808 148.373C113.549 159.258 108.029 168.855 103.12 178.433C98.6363 187.178 93.7033 197.212 95.3037 207.348C96.0289 211.928 98.3666 215.812 101.316 219.306C104.319 222.867 107.807 226.055 110.367 229.97C110.984 230.911 111.535 231.894 112.015 232.913C112.219 233.344 112.872 233.003 112.674 232.571L112.68 232.577Z" fill="#CD3C7C"/>
<path d="M100.632 96.6448C100.632 96.6448 98.001 100.487 99.0979 101.5C100.195 102.513 104.229 102.909 107.717 102.687C111.2 102.465 112.033 101.98 111.979 101.116C111.925 100.253 110.229 95.1583 108.826 94.8107C107.43 94.463 101.993 94.1933 100.632 96.6388V96.6448Z" fill="url(#paint0_radial_342_2)"/>
<path d="M142.998 47.356C142.788 71.1162 124.015 96.8245 105.559 96.6627C93.4875 96.5548 80.96 84.6567 74.1628 69.6237C74.1448 69.5937 74.1328 69.5578 74.1089 69.5278C74.1089 69.5158 74.1029 69.5098 74.0969 69.5038C74.0969 69.4858 74.0909 69.4799 74.0849 69.4739V69.4619C70.8541 62.2691 68.93 54.3689 69.0019 46.7146C69.2117 22.9363 85.941 3.82144 106.375 4.00126C115.03 4.07918 122.96 7.60366 129.206 13.4478C137.717 21.4079 143.118 33.6596 142.998 47.356Z" fill="url(#paint1_radial_342_2)"/>
<path opacity="0.32" d="M88.6623 23.1341C88.7043 21.306 86.8341 20.1551 85.2038 20.9163C84.6523 21.1741 83.909 22.0013 83.6273 22.5587C82.1588 25.4298 83.2018 26.227 83.969 26.5687C85.5994 27.294 87.2897 25.8614 87.8711 25.0582C88.2667 24.5128 88.6443 23.7995 88.6623 23.1341Z" fill="white"/>
<path opacity="0.32" d="M100.524 17.5657C102.041 14.7306 100.009 11.4398 96.8501 11.3439C95.7771 11.314 93.955 12.0213 93.0738 12.6686C88.5004 16.0133 89.5014 18.0872 90.4425 19.2381C92.4265 21.6716 96.2087 20.7605 97.7671 19.9633C98.8221 19.4239 99.9789 18.5967 100.53 17.5657H100.524Z" fill="white"/>
</g>
<path d="M90.5376 205.434C94.9105 200.319 103.761 198.358 107.364 201.545C111.089 204.84 108.606 213.103 107.364 217.745C103.614 231.749 103.353 251.704 102.835 291.61C102.467 319.883 102.281 334.018 102.835 337.613C104.126 346 106.289 355.01 101.542 358.993C98.0061 361.958 91.3326 361.557 87.7124 358.33C82.6748 353.838 84.4083 344.633 85.3598 338.908C86.2852 333.352 87.2693 315.117 89.2439 278.649C90.5832 253.909 91.2512 241.539 89.8924 232.646C88.1263 221.085 85.135 211.756 90.5408 205.434H90.5376Z" fill="#AA703D"/>
<path d="M95.2495 205.434C99.6224 200.319 108.473 198.358 112.076 201.545C115.801 204.84 113.318 213.103 112.076 217.745C108.326 231.749 108.065 251.704 107.547 291.61C107.179 319.883 106.993 334.018 107.547 337.613C108.837 346 111.001 355.01 106.253 358.993C102.718 361.958 96.0446 361.557 92.4244 358.33C87.3867 353.838 89.1202 344.633 90.0717 338.908C90.9971 333.352 91.9812 315.117 93.9559 278.649C95.2951 253.909 95.9631 241.539 94.6043 232.646C92.8382 221.085 89.8469 211.756 95.2527 205.434H95.2495Z" fill="#E8B376"/>
<path d="M55.7857 296.859C52.7487 297.925 47.8382 294.702 45.189 291.675C39.3432 285.001 41.2755 275.599 41.6274 274.02C41.924 263.761 42.2205 253.501 42.517 243.245C41.0507 235.096 40.5358 224.99 46.2382 220.081C52.3675 214.803 60.6408 219.608 83.2093 222.188C104.341 224.602 123.178 222.566 125.602 222.188C135.225 220.681 141.937 218.521 153.352 219.598C165.747 220.766 177.856 225.196 177.621 226.403C177.55 226.765 176.334 227.029 171.544 226.69C159.012 232.232 137.825 239.719 110.636 240.492C86.5981 241.177 67.1807 236.352 54.8146 232.232C63.2053 281.393 60.6832 295.143 55.7857 296.862V296.859Z" fill="#AA703D"/>
<path d="M54.8144 232.229C59.8163 225.61 71.3221 230.758 95.1026 231.743C122.327 232.872 147.04 228.34 147.04 228.34C161.185 225.747 168.002 222.951 177.621 226.396C184.2 228.752 184.366 231.263 197.524 237.572C207.146 242.188 211.161 242.815 212.086 246.318C213.126 250.246 209.098 253.302 202.379 262.355C192.737 275.345 194.598 277.71 189.759 282.28C181.74 289.852 172.15 287.575 148.985 288.113C132.158 288.504 119.757 290.109 101.414 292.487C70.2728 296.523 54.4528 301.983 50.9336 295.89C49.1121 292.735 52.9147 290.527 54.8177 279.367C55.8344 273.404 55.225 271.248 54.3322 251.668C53.5534 234.601 53.8923 233.456 54.8177 232.229H54.8144Z" fill="#E8B376"/>
<path d="M88.9907 268.198C89.0784 268.37 89.1566 268.511 89.2255 268.62C89.4516 269.026 89.5672 269.285 89.5721 269.397C89.577 269.509 89.525 269.599 89.4159 269.668C89.3228 269.736 89.1963 269.774 89.0365 269.781L86.0634 269.912C85.9035 269.919 85.7662 269.893 85.6515 269.834C85.5528 269.774 85.501 269.688 85.496 269.576C85.4904 269.449 85.5757 269.205 85.752 268.845C85.8548 268.632 85.9273 268.46 85.9696 268.33L85.5849 259.603L81.8914 270.095L80.5007 270.156L75.7731 259.914L76.1694 268.906C76.2244 269.063 76.3114 269.22 76.4303 269.375C76.6043 269.687 76.6934 269.892 76.6976 269.987C76.7032 270.115 76.6512 270.206 76.5414 270.259C76.4476 270.311 76.3448 270.339 76.2329 270.344L76.2089 270.345L76.1609 270.347L75.2498 270.387L75.2019 270.39L75.106 270.394C75.01 270.398 74.9131 270.378 74.8151 270.334C74.7323 270.274 74.6885 270.188 74.6835 270.076C74.6786 269.964 74.7275 269.802 74.8302 269.589C74.9323 269.36 75.0055 269.205 75.0499 269.123L74.5923 258.741C74.5206 258.568 74.4423 258.427 74.3574 258.319C74.1487 257.944 74.0419 257.7 74.0369 257.588C74.0271 257.365 74.19 257.245 74.5257 257.231L77.8105 257.086L82.059 266.268L85.4351 256.751L88.5281 256.615C88.64 256.61 88.753 256.629 88.867 256.672C88.981 256.715 89.0408 256.8 89.0464 256.928C89.0521 257.056 88.9667 257.3 88.7904 257.66C88.6877 257.873 88.6152 258.044 88.5729 258.174L88.9907 268.198ZM101.07 256.135C101.136 256.164 101.169 256.195 101.171 256.227C101.174 256.307 101.046 256.489 100.786 256.772C100.526 257.056 100.374 257.223 100.328 257.273L97.6602 262.699L97.8885 267.878C97.9073 267.942 97.9939 268.09 98.1484 268.323C98.1825 268.37 98.2433 268.479 98.331 268.652C98.4347 268.823 98.489 268.965 98.4939 269.077C98.4995 269.205 98.4478 269.303 98.3387 269.372C98.229 269.425 98.0942 269.455 97.9343 269.462L94.9612 269.593C94.8013 269.6 94.6644 269.582 94.5504 269.539C94.4517 269.479 94.3995 269.385 94.3939 269.257C94.3889 269.145 94.4225 269 94.4947 268.82C94.5829 268.64 94.6419 268.526 94.6717 268.476C94.805 268.23 94.8783 268.075 94.8914 268.01L94.7086 263.862L91.8971 258.941L91.896 258.917L91.6602 258.471C91.6602 258.471 91.6018 258.417 91.4849 258.31C91.4515 258.28 91.2447 258.129 90.8644 257.857C90.5348 257.648 90.2866 257.466 90.1197 257.313C89.9528 257.161 89.8655 256.996 89.8577 256.821C89.8528 256.709 90.0574 256.628 90.4716 256.577L90.5435 256.574L93.4447 256.447L95.0512 256.376L95.1231 256.373C95.2517 256.383 95.3199 256.476 95.3276 256.652C95.3347 256.812 95.2847 256.95 95.1777 257.067C94.9812 257.332 94.8323 257.587 94.731 257.831L96.8944 261.676L98.9654 257.429C98.6654 256.802 98.5134 256.44 98.5091 256.344C98.507 256.296 98.5376 256.263 98.6008 256.244C98.7113 256.207 99.0303 256.177 99.5578 256.154L99.6537 256.149L100.876 256.096L101.044 256.088L101.07 256.135ZM129.62 254.88C129.685 254.909 129.719 254.939 129.72 254.971C129.725 255.083 129.39 255.482 128.716 256.169L125.03 266.3L124.73 267.106L124.28 268.351L122.65 268.423L118.239 258.839L115.369 266.749L115.176 267.286L115.068 267.555L114.618 268.8L112.988 268.872L107.808 257.641L107.238 257.233C106.892 257.008 106.627 256.82 106.444 256.668C106.277 256.499 106.189 256.327 106.181 256.151C106.178 256.087 106.24 256.036 106.367 255.998C106.493 255.961 106.644 255.938 106.82 255.93L106.988 255.923L107.515 255.9L109.793 255.8L111.4 255.729L111.448 255.727C111.576 255.737 111.644 255.83 111.652 256.006C111.659 256.166 111.617 256.296 111.525 256.396C111.434 256.512 111.329 256.677 111.211 256.89C111.107 257.087 111.042 257.25 111.016 257.379L114.656 265.291L116.626 259.847L117.55 257.38L117.807 256.672L118.233 255.428L119.072 255.392C119.231 255.353 119.366 255.331 119.478 255.326L119.479 255.35L119.934 255.33L120.678 256.931L124.318 264.842L126.288 259.398L127.468 256.199C127.364 256.012 127.258 255.8 127.152 255.565C127.044 255.313 126.989 255.155 126.987 255.092C126.985 255.06 127.016 255.026 127.078 254.991C127.141 254.957 127.292 254.934 127.532 254.923C127.851 254.909 128.084 254.907 128.228 254.917L128.756 254.894C128.835 254.874 128.97 254.86 129.162 254.852L129.426 254.84L129.474 254.838L129.594 254.833L129.62 254.88ZM137.433 254.176C138.664 254.122 139.804 254.376 140.854 254.938C141.92 255.5 142.779 256.287 143.433 257.299C144.085 258.295 144.438 259.409 144.493 260.64C144.547 261.871 144.293 263.019 143.732 264.085C143.17 265.15 142.383 266.01 141.371 266.663C140.375 267.315 139.261 267.668 138.03 267.723C136.8 267.777 135.651 267.523 134.586 266.961C133.536 266.399 132.684 265.611 132.031 264.599C131.378 263.587 131.024 262.465 130.97 261.234C130.916 260.004 131.17 258.863 131.732 257.814C132.294 256.748 133.072 255.889 134.069 255.237C135.081 254.583 136.202 254.23 137.433 254.176ZM138.087 266.831C138.567 266.81 139.003 266.527 139.395 265.981C139.787 265.419 140.083 264.685 140.283 263.78C140.499 262.857 140.583 261.861 140.536 260.79C140.488 259.719 140.317 258.741 140.022 257.857C139.742 256.957 139.383 256.252 138.944 255.743C138.521 255.233 138.062 254.989 137.566 255.011C137.071 255.032 136.627 255.316 136.234 255.862C135.858 256.407 135.562 257.141 135.346 258.063C135.146 258.969 135.07 259.957 135.117 261.028C135.164 262.099 135.328 263.085 135.607 263.985C135.903 264.869 136.27 265.574 136.71 266.099C137.148 266.608 137.608 266.852 138.087 266.831ZM156.135 266.638C156.14 266.75 155.943 266.831 155.545 266.88L155.329 266.89L154.778 266.914L152.74 267.004L152.26 267.025L151.133 267.074L151.085 267.076C150.957 267.066 150.889 266.973 150.881 266.797C150.873 266.621 150.915 266.483 151.007 266.383C151.115 266.298 151.258 266.084 151.435 265.74L149.017 262.122L149.17 265.599C149.258 265.771 149.336 265.912 149.405 266.021C149.631 266.428 149.747 266.687 149.752 266.799C149.757 266.911 149.705 267.001 149.596 267.07C149.502 267.122 149.375 267.152 149.215 267.159L146.242 267.289L146.218 267.29C146.106 267.295 145.985 267.277 145.855 267.234C145.741 267.191 145.681 267.106 145.676 266.978C145.672 266.898 145.699 266.785 145.757 266.638C145.83 266.475 145.881 266.36 145.91 266.295C146.029 266.082 146.108 265.894 146.149 265.732L145.705 255.662C145.703 255.614 145.668 255.543 145.6 255.45C145.548 255.356 145.461 255.2 145.339 254.981C145.217 254.762 145.154 254.597 145.149 254.485C145.144 254.373 145.188 254.291 145.282 254.239C145.391 254.17 145.526 254.132 145.686 254.125L148.683 253.993C148.97 253.965 149.513 253.933 150.312 253.898C151.447 253.848 152.464 254.035 153.364 254.46C154.279 254.868 154.771 255.864 154.841 257.446C154.927 259.396 154.065 260.731 152.255 261.451L154.119 264.517L154.482 265.101L154.557 265.17C154.723 265.307 154.921 265.442 155.151 265.576C155.515 265.832 155.772 266.029 155.922 266.167C156.088 266.304 156.175 266.46 156.183 266.636L156.135 266.638ZM151.476 260.14C152.121 259.519 152.421 258.682 152.374 257.627C152.349 257.051 152.19 256.53 151.897 256.062C151.62 255.594 151.276 255.24 150.865 255.002C150.47 254.747 150.088 254.628 149.72 254.644C149.449 254.656 149.22 254.746 149.036 254.915C148.867 255.082 148.758 255.335 148.709 255.674L148.939 260.901C149.008 261.01 149.202 261.057 149.522 261.043C149.826 261.03 150.151 260.951 150.497 260.808C150.843 260.665 151.154 260.451 151.429 260.167L151.476 260.14ZM167.59 266.206C167.595 266.318 167.398 266.399 167 266.448L166.784 266.458L166.233 266.482L164.195 266.572L163.715 266.593L162.588 266.642L162.541 266.645C162.412 266.634 162.343 266.533 162.335 266.341C162.328 266.181 162.37 266.052 162.462 265.951C162.599 265.801 162.742 265.579 162.889 265.284L160.394 261.55L160.547 265.027C160.586 265.169 160.682 265.357 160.836 265.59C160.855 265.638 160.907 265.739 160.994 265.896C161.081 266.052 161.127 266.178 161.131 266.274C161.136 266.386 161.084 266.476 160.975 266.545C160.881 266.597 160.754 266.627 160.594 266.634L157.597 266.766L157.573 266.767C157.461 266.772 157.34 266.753 157.21 266.711C157.096 266.668 157.036 266.582 157.031 266.454C157.026 266.343 157.06 266.197 157.132 266.018C157.22 265.838 157.279 265.723 157.309 265.674L157.505 265.232L157.064 255.21L156.829 254.788C156.795 254.742 156.726 254.632 156.622 254.461C156.535 254.289 156.488 254.146 156.483 254.035C156.477 253.891 156.529 253.792 156.638 253.739C156.764 253.686 156.883 253.657 156.995 253.652L160.04 253.518C160.136 253.514 160.249 253.533 160.379 253.575C160.509 253.617 160.577 253.71 160.583 253.854C160.589 253.982 160.504 254.226 160.327 254.586C160.225 254.799 160.152 254.97 160.11 255.1L160.211 257.402L160.267 258.673L163.687 254.51C163.732 254.428 163.729 254.357 163.678 254.295C163.642 254.216 163.542 254.117 163.376 253.996C163.226 253.858 163.149 253.741 163.145 253.645C163.139 253.518 163.255 253.432 163.494 253.39C163.732 253.347 163.963 253.329 164.188 253.335C164.428 253.325 164.588 253.318 164.668 253.314L165.986 253.256C166.18 253.296 166.281 253.411 166.29 253.603C166.293 253.683 166.233 253.766 166.109 253.851C166 253.936 165.891 254.005 165.781 254.058C165.688 254.11 165.625 254.145 165.594 254.162C165.547 254.18 165.429 254.242 165.242 254.346C165.054 254.45 164.915 254.561 164.824 254.677L161.79 258.342L165.548 264.014L165.934 264.598C165.934 264.614 165.951 264.637 165.985 264.667C166.151 264.804 166.349 264.94 166.579 265.074C166.943 265.33 167.2 265.527 167.35 265.664C167.516 265.801 167.603 265.957 167.611 266.133L167.59 266.206Z" fill="#8F5E33"/>
<path d="M37.1995 329.633C33.8716 322.574 26.2615 318.373 23.7197 310.87C20.9074 302.571 24.7661 293.578 28.4154 286.203C32.4425 278.057 37.3424 270.135 39.139 261.111C39.874 257.411 40.119 253.588 39.5371 249.847C38.945 246.029 37.4138 242.614 35.1681 239.485C32.8355 236.234 29.9722 233.105 29.2066 229.048C28.492 225.271 29.5536 221.198 31.9525 218.202C32.5497 217.457 33.2336 216.793 33.9788 216.206C34.2953 215.956 33.9635 215.425 33.642 215.675C30.6867 217.982 28.8442 221.494 28.441 225.204C28.2419 227.052 28.4103 228.956 28.9871 230.727C29.5996 232.6 30.6153 234.295 31.7382 235.897C32.9325 237.597 34.2544 239.205 35.4131 240.93C36.5462 242.63 37.4649 244.457 38.0876 246.407C39.2717 250.117 39.4554 254.078 39.0114 257.931C37.9396 267.2 33.2387 275.372 29.0586 283.528C25.2407 290.975 21.0401 299.519 22.4029 308.15C23.0205 312.049 25.0111 315.357 27.5222 318.332C30.0794 321.364 33.0499 324.08 35.2293 327.412C35.755 328.214 36.2246 329.051 36.6329 329.919C36.8065 330.286 37.3628 329.995 37.1944 329.628L37.1995 329.633Z" fill="#EC7832"/>
<path d="M26.9353 213.889C26.9353 213.889 24.6946 217.16 25.6286 218.023C26.5627 218.886 29.9977 219.223 32.9682 219.034C35.9337 218.845 36.6431 218.431 36.5972 217.696C36.5512 216.961 35.1068 212.623 33.9125 212.327C32.7232 212.031 28.0939 211.801 26.9353 213.884V213.889Z" fill="url(#paint2_radial_342_2)"/>
<path d="M63.0106 171.913C62.8319 192.146 46.8461 214.037 31.1308 213.899C20.8513 213.807 10.1839 203.676 4.39597 190.875C4.38065 190.849 4.37045 190.819 4.35003 190.793C4.35003 190.783 4.34492 190.778 4.33982 190.773C4.33982 190.757 4.33472 190.752 4.32961 190.747V190.737C1.57854 184.607 -0.0547423 177.88 0.001402 171.357C0.180043 151.125 14.4305 134.848 31.8301 135.001C39.2003 135.067 45.9529 138.069 51.2713 143.045C58.519 149.823 63.1177 160.256 63.0157 171.918L63.0106 171.913Z" fill="url(#paint3_radial_342_2)"/>
<path opacity="0.32" d="M16.7477 151.293C16.7834 149.736 15.1909 148.756 13.8027 149.405C13.3331 149.624 12.7002 150.328 12.4603 150.803C11.2098 153.248 12.0979 153.927 12.7512 154.218C14.1395 154.835 15.5789 153.615 16.0739 152.932C16.4108 152.467 16.7324 151.86 16.7477 151.293Z" fill="white"/>
<path opacity="0.32" d="M26.8435 146.551C28.1348 144.137 26.4045 141.335 23.7147 141.253C22.8011 141.228 21.2495 141.83 20.4992 142.381C16.6048 145.23 17.4572 146.995 18.2585 147.975C19.9479 150.048 23.1686 149.272 24.4956 148.593C25.3939 148.134 26.379 147.429 26.8486 146.551H26.8435Z" fill="white"/>
<path d="M203.202 281.589C199.515 273.77 191.085 269.117 188.27 260.806C185.154 251.612 189.429 241.65 193.471 233.48C197.932 224.457 203.36 215.682 205.35 205.686C206.164 201.587 206.436 197.352 205.791 193.208C205.135 188.979 203.439 185.196 200.951 181.73C198.368 178.129 195.196 174.663 194.348 170.168C193.556 165.984 194.732 161.473 197.389 158.154C198.051 157.328 198.809 156.593 199.634 155.943C199.985 155.666 199.617 155.078 199.261 155.355C195.987 157.911 193.946 161.801 193.5 165.911C193.279 167.958 193.466 170.067 194.105 172.028C194.783 174.103 195.908 175.98 197.152 177.756C198.475 179.639 199.939 181.42 201.223 183.331C202.478 185.213 203.496 187.237 204.185 189.397C205.497 193.507 205.701 197.895 205.209 202.164C204.021 212.431 198.814 221.483 194.184 230.518C189.955 238.767 185.301 248.231 186.811 257.792C187.495 262.112 189.7 265.775 192.482 269.072C195.315 272.43 198.605 275.438 201.019 279.13C201.602 280.018 202.122 280.945 202.574 281.906C202.766 282.313 203.383 281.991 203.196 281.584L203.202 281.589Z" fill="#43335C"/>
<path d="M191.837 153.376C191.837 153.376 189.355 157.001 190.39 157.956C191.425 158.912 195.23 159.285 198.52 159.076C201.805 158.866 202.591 158.408 202.54 157.594C202.489 156.78 200.889 151.974 199.566 151.646C198.249 151.318 193.121 151.064 191.837 153.371V153.376Z" fill="url(#paint4_radial_342_2)"/>
<path d="M231.799 106.879C231.601 129.291 213.893 153.54 196.485 153.388C185.098 153.286 173.281 142.063 166.87 127.883C166.853 127.855 166.842 127.821 166.819 127.793C166.819 127.781 166.813 127.776 166.808 127.77C166.808 127.753 166.802 127.747 166.796 127.742V127.73C163.749 120.946 161.934 113.494 162.002 106.274C162.2 83.8619 177.98 65.826 197.254 66.0013C205.418 66.0748 212.898 69.3992 218.789 74.9118C226.818 82.4201 231.912 93.9767 231.799 106.896V106.879Z" fill="url(#paint5_radial_342_2)"/>
<path opacity="0.32" d="M180.547 84.0372C180.586 82.3128 178.822 81.2273 177.284 81.9453C176.764 82.1884 176.063 82.9687 175.797 83.4945C174.412 86.2027 175.396 86.9546 176.12 87.2769C177.657 87.961 179.252 86.6098 179.8 85.8521C180.173 85.3376 180.53 84.6648 180.547 84.0372Z" fill="white"/>
<path opacity="0.32" d="M191.736 78.7846C193.166 76.1104 191.249 73.0064 188.27 72.9159C187.258 72.8876 185.539 73.5548 184.708 74.1654C180.394 77.3203 181.338 79.2765 182.226 80.3621C184.097 82.6575 187.665 81.7982 189.135 81.0462C190.13 80.5373 191.221 79.7571 191.741 78.7846H191.736Z" fill="white"/>
<defs>
<radialGradient id="paint0_radial_342_2" cx="0" cy="0" r="1" gradientUnits="userSpaceOnUse" gradientTransform="translate(105.344 98.6408) rotate(178.62) scale(5.46654 5.46654)">
<stop stop-color="#CD7F71"/>
<stop offset="1" stop-color="#CD6475"/>
</radialGradient>
<radialGradient id="paint1_radial_342_2" cx="0" cy="0" r="1" gradientUnits="userSpaceOnUse" gradientTransform="translate(96.934 94.9244) scale(89.7723 89.7723)">
<stop stop-color="#CD9570"/>
<stop offset="1" stop-color="#CD6475"/>
</radialGradient>
<radialGradient id="paint2_radial_342_2" cx="0" cy="0" r="1" gradientUnits="userSpaceOnUse" gradientTransform="translate(30.9479 215.58) rotate(178.62) scale(4.65487)">
<stop stop-color="#ECD262"/>
<stop offset="1" stop-color="#ECAF52"/>
</radialGradient>
<radialGradient id="paint3_radial_342_2" cx="0" cy="0" r="1" gradientUnits="userSpaceOnUse" gradientTransform="translate(23.7861 212.424) scale(76.4429 76.4429)">
<stop stop-color="#ECE271"/>
<stop offset="0.74" stop-color="#ECAD5A"/>
<stop offset="1" stop-color="#EC9A52"/>
</radialGradient>
<radialGradient id="paint4_radial_342_2" cx="0" cy="0" r="1" gradientUnits="userSpaceOnUse" gradientTransform="translate(196.283 155.255) rotate(178.62) scale(5.15634 5.15634)">
<stop stop-color="#7D78E3"/>
<stop offset="1" stop-color="#6A40BE"/>
</radialGradient>
<radialGradient id="paint5_radial_342_2" cx="0" cy="0" r="1" gradientUnits="userSpaceOnUse" gradientTransform="translate(188.343 151.754) scale(84.6782 84.6782)">
<stop stop-color="#94B3F9"/>
<stop offset="0.48" stop-color="#807EDE"/>
<stop offset="1" stop-color="#6A40BE"/>
</radialGradient>
<clipPath id="clip0_342_2">
<rect width="74.0888" height="270" fill="white" transform="translate(69.0745)"/>
</clipPath>
</defs>
</svg>
