<svg width="1440" height="142" viewBox="0 0 1440 142" fill="none" xmlns="http://www.w3.org/2000/svg">
<path opacity="0.14" d="M346.351 28.4979C351.622 44.0916 415.135 18.7078 494.573 29.7309C571.398 40.3925 565.655 71.5706 641.563 77.9397C671.56 80.4614 728.153 85.2081 783.606 59.3979C796.807 53.2605 806.238 47.1046 824.367 43.3314C833.928 41.3381 876.68 32.4287 917.006 53.2234C931.847 60.872 936.358 67.3894 947.883 66.8239C966.938 65.8783 986.652 46.4927 983.706 33.4485C980.982 21.3685 959.323 16.9834 942.945 13.6737C925.529 10.1507 917.015 11.7268 899.71 11.1983C857.717 9.91893 855.123 -0.992953 826.831 0.0732032C817.558 0.425498 812.676 1.78832 761.364 21.0904C692.653 46.9377 694.21 47.1973 687.253 48.282C673.283 50.47 630.169 55.1796 588.435 34.6816C571.454 26.347 565.405 19.0879 545.2 13.6644C524.477 8.1111 503.818 8.49121 494.555 8.72298C480.761 9.06601 481.974 10.3176 466.142 11.1983C434.182 12.9598 405.121 9.15871 401.916 8.72298C378.83 5.59868 371.104 1.99229 361.155 7.48995C353.077 11.9493 344.156 22.0546 346.333 28.5071L346.351 28.4979Z" fill="white"/>
<path opacity="0.27" d="M680.427 117.541C687.329 124.947 770.453 112.891 874.431 118.124C974.981 123.187 967.467 137.992 1066.81 141.022C1106.08 142.217 1180.14 144.476 1252.73 132.213C1270 129.295 1282.35 126.378 1306.08 124.58C1318.59 123.63 1374.54 119.404 1427.32 129.277C1446.74 132.91 1452.65 136.006 1467.74 135.733C1492.67 135.281 1518.47 126.077 1514.62 119.884C1511.05 114.152 1482.7 112.063 1461.27 110.491C1438.48 108.816 1427.32 109.569 1404.69 109.315C1349.73 108.712 1346.34 103.527 1309.31 104.035C1297.17 104.204 1290.78 104.854 1223.63 114.011C1133.7 126.284 1135.72 126.406 1126.63 126.924C1108.35 127.959 1051.91 130.199 997.291 120.467C975.064 116.505 967.152 113.061 940.711 110.491C913.593 107.856 886.549 108.035 874.431 108.138C856.374 108.298 857.958 108.901 837.251 109.315C795.421 110.152 757.38 108.345 753.183 108.138C722.961 106.661 712.863 104.948 699.837 107.555C689.266 109.672 677.583 114.472 680.436 117.531L680.427 117.541Z" fill="white"/>
<path opacity="0.73" d="M1392 102.804C1392.65 102.565 1396.76 101.165 1400.85 103.555C1403.82 105.296 1405.07 108.061 1405.44 109C1405.72 108.198 1406.95 105.006 1410.28 103.179C1414.4 100.926 1418.43 102.548 1419 102.804" stroke="black" stroke-width="3" stroke-linecap="round" stroke-linejoin="round"/>
<path d="M141.986 137H-30.7262C-37.488 130.715 -37.8304 120.124 -31.4887 113.415L-30.7262 112.609C-30.5237 111.495 -29.5245 106.62 -24.9745 103.184C-19.9249 99.3809 -14.3487 100.25 -13.4036 100.413C-11.7159 92.1695 -4.56004 86.1667 3.68945 86.0038C12.1955 85.8272 19.7699 91.8979 21.5116 100.413C22.4027 99.9513 25.319 98.5796 29.0455 99.2994C33.6225 100.196 35.9988 103.605 36.4579 104.284C37.592 103.74 41.629 101.961 46.6786 103.17C52.0657 104.474 54.9281 108.29 55.6302 109.268C57.4124 108.697 61.0308 107.801 65.4323 108.711C72.0076 110.083 75.7611 114.564 76.8142 115.922C78.8934 118.326 80.9862 120.73 83.0654 123.134C83.7135 122.604 87.6425 119.521 92.9891 120.363C97.4582 121.07 101.239 124.261 102.913 128.675C103.291 128.498 105.789 127.425 108.421 128.675C110.609 129.707 112.04 131.948 112.175 134.474C114.74 134.528 117.346 134.637 120.006 134.786C127.769 135.221 135.114 135.995 142 137H141.986Z" fill="white"/>
</svg>
