<svg width="42" height="42" viewBox="0 0 42 42" fill="none" xmlns="http://www.w3.org/2000/svg">
<path d="M20.6306 41.0005C31.4718 41.0005 40.2602 32.0464 40.2602 21.0009C40.2602 9.95537 31.4718 1.00122 20.6306 1.00122C9.78946 1.00122 1.00098 9.95537 1.00098 21.0009C1.00098 32.0464 9.78946 41.0005 20.6306 41.0005Z" fill="#D1D7D8" stroke="#ACB5C0" stroke-width="2" stroke-miterlimit="10"/>
<path d="M11.29 21.439C12.6211 21.439 13.7002 20.3396 13.7002 18.9834C13.7002 17.6272 12.6211 16.5278 11.29 16.5278C9.95894 16.5278 8.87988 17.6272 8.87988 18.9834C8.87988 20.3396 9.95894 21.439 11.29 21.439Z" fill="#ACB5C0"/>
<path d="M14.8825 14.2153C15.9407 14.2153 16.7985 13.3414 16.7985 12.2632C16.7985 11.1851 15.9407 10.3112 14.8825 10.3112C13.8244 10.3112 12.9666 11.1851 12.9666 12.2632C12.9666 13.3414 13.8244 14.2153 14.8825 14.2153Z" fill="#ACB5C0"/>
<path d="M25.1925 37.5609C27.3089 37.5609 29.0245 35.813 29.0245 33.6567C29.0245 31.5005 27.3089 29.7526 25.1925 29.7526C23.0762 29.7526 21.3606 31.5005 21.3606 33.6567C21.3606 35.813 23.0762 37.5609 25.1925 37.5609Z" fill="#ACB5C0"/>
<path d="M18.7146 31.7064C19.7727 31.7064 20.6305 30.8324 20.6305 29.7543C20.6305 28.6762 19.7727 27.8022 18.7146 27.8022C17.6564 27.8022 16.7986 28.6762 16.7986 29.7543C16.7986 30.8324 17.6564 31.7064 18.7146 31.7064Z" fill="#ACB5C0"/>
<path d="M33.1008 12.3481C33.1008 13.7049 32.0223 14.8037 30.6907 14.8037C29.359 14.8037 28.2805 13.7049 28.2805 12.3481C28.2805 10.9914 29.359 9.89258 30.6907 9.89258C32.0223 9.89258 33.1008 10.9914 33.1008 12.3481Z" fill="#ACB5C0"/>
<path d="M16.7987 35.2997C17.3273 35.2997 17.7558 34.8631 17.7558 34.3245C17.7558 33.786 17.3273 33.3494 16.7987 33.3494C16.2701 33.3494 15.8416 33.786 15.8416 34.3245C15.8416 34.8631 16.2701 35.2997 16.7987 35.2997Z" fill="#ACB5C0"/>
<path d="M9.83871 13.3232C10.3673 13.3232 10.7958 12.8867 10.7958 12.3481C10.7958 11.8095 10.3673 11.3729 9.83871 11.3729C9.31011 11.3729 8.88159 11.8095 8.88159 12.3481C8.88159 12.8867 9.31011 13.3232 9.83871 13.3232Z" fill="#ACB5C0"/>
<path d="M34.7948 15.7806C35.3234 15.7806 35.7519 15.3441 35.7519 14.8055C35.7519 14.2669 35.3234 13.8303 34.7948 13.8303C34.2662 13.8303 33.8376 14.2669 33.8376 14.8055C33.8376 15.3441 34.2662 15.7806 34.7948 15.7806Z" fill="#ACB5C0"/>
</svg>
