<svg width="100" height="49" viewBox="0 0 100 49" fill="none" xmlns="http://www.w3.org/2000/svg">
<path d="M50.4722 48.3693C40.7318 48.3265 30.9915 48.2837 21.2507 48.2405C9.6293 46.4333 0.929233 36.652 0.515469 25.2557L0.515467 25.2557C0.0779566 13.2327 8.97389 2.42749 21.2499 0.5H78.1692C90.9338 2.5126 100.027 13.6827 99.4762 25.767C98.9851 36.5679 90.8811 46.0762 79.6847 48.4981C70.0343 48.4552 60.3844 48.4128 50.7345 48.3704L50.4722 48.3693Z" fill="#B7DEF9" stroke="white"/>
<path opacity="0.23" d="M86.9753 34.6307C86.5286 37.1635 81.1534 33.0412 74.4296 34.8317C67.9274 36.5638 68.4133 41.6295 61.9879 42.6657C59.4494 43.0746 54.6589 43.8462 49.9638 39.6534C48.8472 38.655 48.0476 37.6567 46.5133 37.0415C45.7035 36.7185 42.0859 35.2699 38.6711 38.6482C37.4147 39.8905 37.0328 40.9508 36.0577 40.858C34.4449 40.705 32.7759 37.5536 33.0248 35.4348C33.2549 33.4725 35.0893 32.7594 36.4753 32.2215C37.95 31.6493 38.6711 31.9053 40.1339 31.8194C43.6884 31.6115 43.9083 29.8399 46.3019 30.0117C47.0878 30.0684 47.5004 30.2901 51.8425 33.4261C57.6576 37.6257 57.5264 37.6687 58.1162 37.8457C59.2994 38.2014 62.9477 38.9661 66.48 35.6359C67.9172 34.2801 68.4286 33.1013 70.1386 32.2215C71.8928 31.3177 73.642 31.3812 74.4245 31.4173C75.5923 31.4723 75.49 31.6768 76.83 31.8194C79.5355 32.1064 81.9956 31.4878 82.2666 31.4173C84.2203 30.9104 84.875 30.3245 85.7172 31.2163C86.4008 31.9397 87.156 33.5825 86.9719 34.6307H86.9753Z" fill="white"/>
<path opacity="0.23" d="M39.0271 25.2086C39.4572 26.962 44.6329 24.1086 51.1076 25.3471C57.3689 26.5464 56.9009 30.0516 63.0883 30.7686C65.5333 31.0521 70.1463 31.585 74.6664 28.6828C75.7418 27.9918 76.5109 27.3009 77.9889 26.8756C78.7684 26.6507 82.2526 25.6502 85.539 27.9869C86.7486 28.8473 87.1169 29.5806 88.0563 29.5155C89.6083 29.4095 91.2154 27.2292 90.9762 25.7626C90.7543 24.4052 88.9889 23.9114 87.6537 23.5383C86.2342 23.1423 85.5408 23.3199 84.1298 23.2596C80.7075 23.1162 80.4959 21.8892 78.1903 22.0081C77.4349 22.0472 77.0357 22.2004 72.8546 24.371C67.2539 27.2781 67.3813 27.3074 66.8135 27.4296C65.6744 27.6757 62.1609 28.2053 58.7592 25.9011C57.3758 24.9641 56.882 24.1477 55.2354 23.5383C53.5457 22.9125 51.8629 22.9565 51.1076 22.9826C49.9823 23.0201 50.0821 23.1618 48.7916 23.2612C46.1866 23.46 43.8173 23.0315 43.5575 22.9826C41.6751 22.6322 41.0471 22.2265 40.235 22.8441C39.576 23.346 38.8498 24.4818 39.0271 25.2069V25.2086Z" fill="white"/>
<path opacity="0.23" d="M81.9748 10.6307C81.5199 13.1635 76.0451 9.04118 69.1968 10.8317C62.5742 12.5638 63.0691 17.6295 56.5247 18.6657C53.9392 19.0746 49.06 19.8462 44.278 15.6534C43.1406 14.655 42.3263 13.6567 40.7635 13.0415C39.9387 12.7185 36.2541 11.2699 32.7762 14.6482C31.4964 15.8905 31.1075 16.9508 30.1143 16.858C28.4717 16.705 26.7717 13.5536 27.0253 11.4348C27.2597 9.47248 29.128 8.75937 30.5397 8.22152C32.0417 7.64931 32.7762 7.90534 34.266 7.81943C37.8863 7.61151 38.1103 5.83988 40.5482 6.01172C41.3487 6.06842 41.7689 6.29009 46.1915 9.42609C52.1143 13.6257 51.9806 13.6687 52.5813 13.8457C53.7864 14.2014 57.5023 14.9661 61.1 11.6359C62.5638 10.2801 63.0847 9.10132 64.8263 8.22152C66.6131 7.31767 68.3946 7.38125 69.1916 7.41733C70.381 7.47232 70.2768 7.6768 71.6416 7.81943C74.3973 8.10639 76.9029 7.48778 77.179 7.41733C79.1689 6.91042 79.8356 6.32446 80.6934 7.21628C81.3897 7.93971 82.1589 9.58246 81.9714 10.6307H81.9748Z" fill="white"/>
<path d="M62 17.998H91V13.2156C90.9641 12.9974 90.7843 12.0421 89.9631 11.3679C89.0519 10.621 88.0473 10.792 87.8766 10.8254C87.5729 9.20964 86.2826 8.03418 84.7964 8.00077C83.2616 7.96539 81.8976 9.15657 81.5831 10.8254C81.4214 10.735 80.8966 10.4657 80.2263 10.6072C79.4014 10.7822 78.9737 11.4505 78.8911 11.5861C78.6862 11.478 77.9584 11.1301 77.0472 11.3679C76.075 11.6235 75.5592 12.3704 75.4352 12.563C75.1135 12.451 74.4612 12.2741 73.6686 12.4549C72.4826 12.7242 71.8068 13.6009 71.6163 13.8682C71.2408 14.34 70.8652 14.8098 70.4896 15.2815C70.3727 15.1773 69.6629 14.5719 68.7014 14.739C67.8963 14.8766 67.2152 15.5036 66.9133 16.3685C66.845 16.3351 66.3939 16.1248 65.9195 16.3685C65.5259 16.571 65.2672 17.0093 65.2438 17.5047C64.1637 17.6698 63.0819 17.8349 62.0018 18L62 17.998Z" fill="white"/>
<path d="M56.4498 35.4168C56.509 35.644 56.9248 37.1446 58.4104 37.8785C59.5986 38.4648 60.709 38.1855 60.9997 38.1023C62.144 38.1023 63.2899 38.1023 64.4341 38.1023C64.9513 38.3607 65.8099 38.706 66.917 38.7736C68.4483 38.8673 69.6246 38.3816 70.1874 38.1023C70.5491 38.3607 71.4821 38.954 72.8038 38.9974C74.3148 39.0477 75.3864 38.3503 75.7362 38.1023C75.885 38.2046 77.5177 39.2941 79.3464 38.5498C80.6749 38.0103 81.2512 36.8515 81.3848 36.5618C82.5898 36.4941 83.7949 36.4264 85 36.3605C83.9994 35.8592 83.0005 35.3578 82 34.8564C82.3059 33.9301 81.9611 32.9221 81.2005 32.4312C80.5431 32.0079 79.6777 32.0356 79.0084 32.5058C78.6484 32.2438 78.023 31.8639 77.1661 31.6852C76.5948 31.5655 76.0979 31.5742 75.7362 31.6106C75.6957 30.6322 75.1548 29.7648 74.3317 29.3727C73.3734 28.9165 72.4624 29.3068 72.317 29.3727C72.2646 29.0639 72.1058 28.3839 71.57 27.7316C71.0613 27.114 70.4731 26.8382 70.1891 26.7272C69.8646 26.3507 68.7457 25.1467 66.9187 24.8952C65.9232 24.7582 65.1034 24.9577 64.6217 25.119C64.1569 24.7981 62.8606 23.9931 61.0302 24C59.2268 24.007 57.9507 24.7963 57.4842 25.119C57.3659 25.145 56.0814 25.4555 55.5794 26.7272C55.2109 27.6605 55.5033 28.5019 55.5794 28.7014C54.1394 29.9574 53.634 31.8865 54.2712 33.4027C54.8492 34.7801 56.1557 35.3058 56.4549 35.4168H56.4498Z" fill="white"/>
</svg>
